G04*
G04 #@! TF.GenerationSoftware,Altium Limited,Altium Designer,20.0.13 (296)*
G04*
G04 Layer_Physical_Order=1*
G04 Layer_Color=255*
%FSLAX44Y44*%
%MOMM*%
G71*
G01*
G75*
%ADD10C,0.2500*%
%ADD14R,1.3000X1.0000*%
%ADD15R,1.0000X1.0000*%
%ADD16O,1.5500X0.5000*%
%ADD17R,5.5000X2.0000*%
G04:AMPARAMS|DCode=18|XSize=0.55mm|YSize=1.45mm|CornerRadius=0mm|HoleSize=0mm|Usage=FLASHONLY|Rotation=45.000|XOffset=0mm|YOffset=0mm|HoleType=Round|Shape=Round|*
%AMOVALD18*
21,1,0.9000,0.5500,0.0000,0.0000,135.0*
1,1,0.5500,0.3182,-0.3182*
1,1,0.5500,-0.3182,0.3182*
%
%ADD18OVALD18*%

G04:AMPARAMS|DCode=19|XSize=0.55mm|YSize=1.45mm|CornerRadius=0mm|HoleSize=0mm|Usage=FLASHONLY|Rotation=135.000|XOffset=0mm|YOffset=0mm|HoleType=Round|Shape=Round|*
%AMOVALD19*
21,1,0.9000,0.5500,0.0000,0.0000,225.0*
1,1,0.5500,0.3182,0.3182*
1,1,0.5500,-0.3182,-0.3182*
%
%ADD19OVALD19*%

%ADD20P,1.4142X4X90.0*%
%ADD21R,0.3300X0.7300*%
%ADD22R,1.0000X0.9000*%
%ADD23R,1.0000X1.3000*%
%ADD40C,0.5000*%
%ADD41C,0.3000*%
%ADD42C,0.8000*%
%ADD43C,0.2540*%
%ADD44C,1.8000*%
%ADD45R,1.5000X1.5000*%
G04:AMPARAMS|DCode=46|XSize=1.6mm|YSize=1.5mm|CornerRadius=0.375mm|HoleSize=0mm|Usage=FLASHONLY|Rotation=180.000|XOffset=0mm|YOffset=0mm|HoleType=Round|Shape=RoundedRectangle|*
%AMROUNDEDRECTD46*
21,1,1.6000,0.7500,0,0,180.0*
21,1,0.8500,1.5000,0,0,180.0*
1,1,0.7500,-0.4250,0.3750*
1,1,0.7500,0.4250,0.3750*
1,1,0.7500,0.4250,-0.3750*
1,1,0.7500,-0.4250,-0.3750*
%
%ADD46ROUNDEDRECTD46*%
%ADD47O,1.3300X1.9800*%
%ADD48C,0.6800*%
%ADD49O,0.9500X1.8000*%
%ADD50C,0.6000*%
G36*
X217000Y405000D02*
X270000Y405000D01*
X280000Y395000D01*
Y15000D01*
X270000Y5000D01*
X15000D01*
X10000Y10000D01*
X5000Y15000D01*
Y395000D01*
X15000Y405000D01*
X50000Y405000D01*
X70000Y425000D01*
X70000Y540000D01*
X217000D01*
Y405000D01*
D02*
G37*
%LPC*%
G36*
X187750Y530113D02*
X185506Y529666D01*
X183605Y528396D01*
X182334Y526493D01*
X181887Y524250D01*
Y515750D01*
X182334Y513507D01*
X183605Y511604D01*
X185506Y510334D01*
X187750Y509887D01*
X189993Y510334D01*
X191896Y511604D01*
X193166Y513507D01*
X193613Y515750D01*
Y524250D01*
X193166Y526493D01*
X191896Y528396D01*
X189993Y529666D01*
X187750Y530113D01*
D02*
G37*
G36*
X96250D02*
X94006Y529666D01*
X92105Y528396D01*
X90834Y526493D01*
X90387Y524250D01*
Y515750D01*
X90834Y513507D01*
X92105Y511604D01*
X94006Y510334D01*
X96250Y509887D01*
X98493Y510334D01*
X100395Y511604D01*
X101666Y513507D01*
X102113Y515750D01*
Y524250D01*
X101666Y526493D01*
X100395Y528396D01*
X98493Y529666D01*
X96250Y530113D01*
D02*
G37*
G36*
X134000Y491486D02*
X132283Y491145D01*
X130828Y490172D01*
X130000Y488933D01*
X129172Y490172D01*
X127717Y491145D01*
X126000Y491486D01*
X124283Y491145D01*
X122828Y490172D01*
X122000Y488933D01*
X121172Y490172D01*
X119717Y491145D01*
X118000Y491486D01*
X116283Y491145D01*
X114828Y490172D01*
X113855Y488717D01*
X113514Y487000D01*
X113855Y485283D01*
X114828Y483828D01*
X116283Y482855D01*
X118000Y482514D01*
X119717Y482855D01*
X121172Y483828D01*
X122000Y485067D01*
X122828Y483828D01*
X124283Y482855D01*
X126000Y482514D01*
X127717Y482855D01*
X129172Y483828D01*
X130000Y485067D01*
X130828Y483828D01*
X132283Y482855D01*
X134000Y482514D01*
X135717Y482855D01*
X137172Y483828D01*
X138145Y485283D01*
X138486Y487000D01*
X138145Y488717D01*
X137172Y490172D01*
X135717Y491145D01*
X134000Y491486D01*
D02*
G37*
G36*
X166000D02*
X164283Y491145D01*
X162828Y490172D01*
X162000Y488933D01*
X161172Y490172D01*
X159717Y491145D01*
X158000Y491486D01*
X156283Y491145D01*
X154828Y490172D01*
X154000Y488933D01*
X153172Y490172D01*
X151717Y491145D01*
X150000Y491486D01*
X148283Y491145D01*
X146828Y490172D01*
X145855Y488717D01*
X145514Y487000D01*
X145855Y485283D01*
X146828Y483828D01*
X148283Y482855D01*
X150000Y482514D01*
X151717Y482855D01*
X153172Y483828D01*
X154000Y485067D01*
X154828Y483828D01*
X156283Y482855D01*
X158000Y482514D01*
X159717Y482855D01*
X161172Y483828D01*
X162000Y485067D01*
X162828Y483828D01*
X164283Y482855D01*
X166000Y482514D01*
X167717Y482855D01*
X169172Y483828D01*
X170145Y485283D01*
X170486Y487000D01*
X170145Y488717D01*
X169172Y490172D01*
X167717Y491145D01*
X166000Y491486D01*
D02*
G37*
G36*
X146000Y482486D02*
X144283Y482145D01*
X142828Y481172D01*
X142000Y479933D01*
X141172Y481172D01*
X139717Y482145D01*
X138000Y482486D01*
X136283Y482145D01*
X134828Y481172D01*
X133855Y479717D01*
X133514Y478000D01*
X133855Y476283D01*
X134828Y474828D01*
X136283Y473855D01*
X138000Y473514D01*
X138996Y473712D01*
X141158Y471550D01*
X131850D01*
Y462250D01*
X134676D01*
X134439Y462203D01*
X133116Y461319D01*
X132232Y459996D01*
X131922Y458435D01*
X132232Y456874D01*
X133116Y455551D01*
X134439Y454667D01*
X136000Y454357D01*
X136672Y454490D01*
X137915Y453246D01*
Y330764D01*
X138092Y329878D01*
X138593Y329127D01*
X148897Y318824D01*
X149399Y318488D01*
X149648Y318322D01*
X150534Y318146D01*
X182386D01*
X183272Y318322D01*
X184023Y318824D01*
X194487Y329287D01*
X194988Y330038D01*
X195165Y330924D01*
Y340208D01*
X194988Y341094D01*
X194822Y341343D01*
X194487Y341845D01*
X190925Y345407D01*
X190174Y345908D01*
X189288Y346085D01*
X186403D01*
X186297Y346616D01*
X185523Y347773D01*
X184913Y348181D01*
X196772D01*
X201431Y343522D01*
Y324500D01*
X197500D01*
Y312500D01*
X212500D01*
Y324500D01*
X208569D01*
Y345000D01*
X208297Y346366D01*
X207523Y347523D01*
X200773Y354273D01*
X200163Y354681D01*
X201767D01*
X202439Y354232D01*
X204000Y353922D01*
X205561Y354232D01*
X206884Y355116D01*
X207768Y356439D01*
X208078Y358000D01*
X207768Y359561D01*
X206884Y360884D01*
X205561Y361768D01*
X204000Y362078D01*
X202694Y361819D01*
X201663D01*
X202163Y362153D01*
X202561Y362232D01*
X203884Y363116D01*
X204768Y364439D01*
X205078Y366000D01*
X204768Y367561D01*
X203884Y368884D01*
X202561Y369768D01*
X201000Y370078D01*
X199439Y369768D01*
X198116Y368884D01*
X197738Y368319D01*
X172500D01*
X171134Y368047D01*
X169977Y367273D01*
X169203Y366116D01*
X168931Y364750D01*
X169203Y363384D01*
X169977Y362227D01*
X171064Y361500D01*
X169977Y360773D01*
X169203Y359616D01*
X168931Y358250D01*
X169203Y356884D01*
X169977Y355727D01*
X171064Y355000D01*
X169977Y354273D01*
X169203Y353116D01*
X168931Y351750D01*
X169203Y350384D01*
X169977Y349227D01*
X171064Y348500D01*
X169977Y347773D01*
X169203Y346616D01*
X168931Y345250D01*
X169203Y343884D01*
X169977Y342727D01*
X171064Y342000D01*
X169977Y341273D01*
X169203Y340116D01*
X168931Y338750D01*
X169203Y337384D01*
X169977Y336227D01*
X171134Y335453D01*
X172500Y335181D01*
X183000D01*
X184366Y335453D01*
X185523Y336227D01*
X186297Y337384D01*
X186403Y337915D01*
X186863D01*
X186996Y337783D01*
Y333349D01*
X179961Y326315D01*
X152959D01*
X146084Y333189D01*
Y462250D01*
X152150D01*
Y471550D01*
X146434D01*
Y471861D01*
X146258Y472747D01*
X145757Y473498D01*
X145676Y473578D01*
X146000Y473514D01*
X147717Y473855D01*
X149172Y474828D01*
X150145Y476283D01*
X150486Y478000D01*
X150145Y479717D01*
X149172Y481172D01*
X147717Y482145D01*
X146000Y482486D01*
D02*
G37*
G36*
X169500D02*
X167783Y482145D01*
X166328Y481172D01*
X165355Y479717D01*
X165014Y478000D01*
X165355Y476283D01*
X166328Y474828D01*
X166951Y474411D01*
Y471550D01*
X156850D01*
Y462250D01*
X172150D01*
Y471550D01*
X172049D01*
Y474411D01*
X172672Y474828D01*
X173645Y476283D01*
X173986Y478000D01*
X173645Y479717D01*
X172672Y481172D01*
X171217Y482145D01*
X169500Y482486D01*
D02*
G37*
G36*
X114500D02*
X112783Y482145D01*
X111328Y481172D01*
X110355Y479717D01*
X110014Y478000D01*
X110355Y476283D01*
X111328Y474828D01*
X111951Y474411D01*
Y471550D01*
X111850D01*
Y462250D01*
X127150D01*
Y471550D01*
X117049D01*
Y474411D01*
X117672Y474828D01*
X118645Y476283D01*
X118986Y478000D01*
X118645Y479717D01*
X117672Y481172D01*
X116217Y482145D01*
X114500Y482486D01*
D02*
G37*
G36*
X185900Y500466D02*
X183903Y500203D01*
X182042Y499432D01*
X180444Y498206D01*
X179218Y496608D01*
X178447Y494747D01*
X178184Y492750D01*
Y486250D01*
X178447Y484253D01*
X179218Y482392D01*
X180444Y480794D01*
X182042Y479568D01*
X182638Y479321D01*
X180805Y478096D01*
X179534Y476194D01*
X179087Y473950D01*
Y465450D01*
X179534Y463206D01*
X180805Y461305D01*
X182706Y460034D01*
X184950Y459587D01*
X187194Y460034D01*
X189095Y461305D01*
X190366Y463206D01*
X190813Y465450D01*
Y473950D01*
X190366Y476194D01*
X189095Y478096D01*
X187989Y478835D01*
X189758Y479568D01*
X191356Y480794D01*
X192582Y482392D01*
X193353Y484253D01*
X193616Y486250D01*
Y492750D01*
X193353Y494747D01*
X192582Y496608D01*
X191356Y498206D01*
X189758Y499432D01*
X187897Y500203D01*
X185900Y500466D01*
D02*
G37*
G36*
X98100D02*
X96103Y500203D01*
X94242Y499432D01*
X92644Y498206D01*
X91418Y496608D01*
X90647Y494747D01*
X90384Y492750D01*
Y486250D01*
X90647Y484253D01*
X91418Y482392D01*
X92644Y480794D01*
X94242Y479568D01*
X96011Y478835D01*
X94904Y478096D01*
X93634Y476194D01*
X93187Y473950D01*
Y465450D01*
X93634Y463206D01*
X94904Y461305D01*
X96806Y460034D01*
X99050Y459587D01*
X101293Y460034D01*
X103195Y461305D01*
X104466Y463206D01*
X104913Y465450D01*
Y473950D01*
X104466Y476194D01*
X103195Y478096D01*
X101362Y479321D01*
X101958Y479568D01*
X103556Y480794D01*
X104782Y482392D01*
X105553Y484253D01*
X105816Y486250D01*
Y492750D01*
X105553Y494747D01*
X104782Y496608D01*
X103556Y498206D01*
X101958Y499432D01*
X100097Y500203D01*
X98100Y500466D01*
D02*
G37*
G36*
X111500Y426819D02*
X76250D01*
X74884Y426547D01*
X73727Y425773D01*
X40477Y392523D01*
X39703Y391366D01*
X39431Y390000D01*
Y369378D01*
X27046Y356993D01*
X18750D01*
X16897Y356624D01*
X15325Y355574D01*
X14276Y354003D01*
X13907Y352150D01*
Y344650D01*
X14276Y342797D01*
X15325Y341226D01*
X16897Y340176D01*
X18750Y339807D01*
X27250D01*
X29103Y340176D01*
X30675Y341226D01*
X31724Y342797D01*
X32093Y344650D01*
Y351946D01*
X45523Y365377D01*
X46297Y366534D01*
X46431Y367211D01*
Y350978D01*
X27046Y331593D01*
X18750D01*
X16897Y331224D01*
X15325Y330174D01*
X14276Y328603D01*
X13907Y326750D01*
Y319250D01*
X14276Y317397D01*
X15325Y315826D01*
X16897Y314776D01*
X18750Y314407D01*
X27250D01*
X29103Y314776D01*
X30675Y315826D01*
X31724Y317397D01*
X32093Y319250D01*
Y326546D01*
X52523Y346977D01*
X53297Y348134D01*
X53569Y349500D01*
Y385522D01*
X75478Y407431D01*
X83522D01*
X87056Y403897D01*
Y400625D01*
X87328Y399259D01*
X88102Y398102D01*
X91477Y394727D01*
X92634Y393953D01*
X94000Y393681D01*
X99087D01*
X98477Y393273D01*
X97703Y392116D01*
X97431Y390750D01*
X97703Y389384D01*
X98477Y388227D01*
X99087Y387819D01*
X95521D01*
X94155Y387547D01*
X92997Y386773D01*
X87129Y380905D01*
X86439Y380768D01*
X85116Y379884D01*
X84232Y378561D01*
X83922Y377000D01*
X84232Y375439D01*
X85116Y374116D01*
X86439Y373232D01*
X88000Y372922D01*
X89561Y373232D01*
X90884Y374116D01*
X91768Y375439D01*
X91771Y375453D01*
X96999Y380681D01*
X99087D01*
X98477Y380273D01*
X97703Y379116D01*
X97431Y377750D01*
X97703Y376384D01*
X98477Y375227D01*
X99564Y374500D01*
X98477Y373773D01*
X97703Y372616D01*
X97431Y371250D01*
X97703Y369884D01*
X98477Y368727D01*
X99564Y368000D01*
X98477Y367273D01*
X97703Y366116D01*
X97431Y364750D01*
X97703Y363384D01*
X98477Y362227D01*
X99564Y361500D01*
X98477Y360773D01*
X97703Y359616D01*
X97431Y358250D01*
X97703Y356884D01*
X98477Y355727D01*
X99087Y355319D01*
X93750D01*
X92384Y355047D01*
X91227Y354273D01*
X80477Y343523D01*
X79703Y342366D01*
X79431Y341000D01*
Y322478D01*
X70522Y313569D01*
X62000D01*
X60634Y313297D01*
X59477Y312523D01*
X48122Y301169D01*
X32093D01*
Y301350D01*
X31724Y303203D01*
X30675Y304774D01*
X29103Y305824D01*
X27250Y306193D01*
X18750D01*
X16897Y305824D01*
X15325Y304774D01*
X14276Y303203D01*
X13907Y301350D01*
Y293850D01*
X14276Y291997D01*
X15325Y290425D01*
X16897Y289376D01*
X18750Y289007D01*
X27250D01*
X29103Y289376D01*
X30675Y290425D01*
X31724Y291997D01*
X32093Y293850D01*
Y294031D01*
X49600D01*
X50966Y294303D01*
X51842Y294888D01*
X34077Y277124D01*
X31860D01*
X31724Y277803D01*
X30675Y279375D01*
X29103Y280424D01*
X27250Y280793D01*
X18750D01*
X16897Y280424D01*
X15325Y279375D01*
X14276Y277803D01*
X13907Y275950D01*
Y268450D01*
X14276Y266597D01*
X15325Y265026D01*
X16897Y263976D01*
X18750Y263607D01*
X27250D01*
X29103Y263976D01*
X30675Y265026D01*
X31724Y266597D01*
X32093Y268450D01*
Y269986D01*
X35555D01*
X36921Y270258D01*
X38078Y271032D01*
X65478Y298431D01*
X74000D01*
X75366Y298703D01*
X76523Y299477D01*
X92523Y315477D01*
X93297Y316634D01*
X93569Y318000D01*
Y332522D01*
X96228Y335181D01*
X111500D01*
X112292Y335339D01*
X93477Y316523D01*
X92703Y315366D01*
X92431Y314000D01*
Y285000D01*
X92703Y283634D01*
X93477Y282477D01*
X105264Y270689D01*
Y270448D01*
X101189Y274523D01*
X100031Y275297D01*
X98666Y275569D01*
X90000D01*
Y278000D01*
X78000D01*
Y275569D01*
X67000D01*
X65634Y275297D01*
X64477Y274523D01*
X40322Y250369D01*
X32093D01*
Y250550D01*
X31724Y252403D01*
X30675Y253974D01*
X29103Y255024D01*
X27250Y255393D01*
X18750D01*
X16897Y255024D01*
X15325Y253974D01*
X14276Y252403D01*
X13907Y250550D01*
Y243050D01*
X14276Y241197D01*
X15325Y239625D01*
X16897Y238576D01*
X18750Y238207D01*
X27250D01*
X29103Y238576D01*
X30675Y239625D01*
X31724Y241197D01*
X32093Y243050D01*
Y243231D01*
X41800D01*
X43166Y243503D01*
X44323Y244277D01*
X68478Y268431D01*
X78000D01*
Y266000D01*
X90000D01*
Y268431D01*
X97187D01*
X101477Y264142D01*
X101257Y263610D01*
X100914Y261000D01*
X101257Y258389D01*
X102265Y255957D01*
X103868Y253868D01*
X105957Y252265D01*
X108390Y251257D01*
X111000Y250914D01*
X113610Y251257D01*
X116043Y252265D01*
X118132Y253868D01*
X119693Y255902D01*
X167307D01*
X168868Y253868D01*
X170957Y252265D01*
X173389Y251257D01*
X176000Y250914D01*
X178610Y251257D01*
X181043Y252265D01*
X183132Y253868D01*
X184735Y255957D01*
X185743Y258389D01*
X186086Y261000D01*
X185743Y263610D01*
X184735Y266043D01*
X183132Y268132D01*
X181043Y269735D01*
X178610Y270743D01*
X176000Y271086D01*
X173389Y270743D01*
X170957Y269735D01*
X168868Y268132D01*
X167307Y266098D01*
X119693D01*
X118132Y268132D01*
X116043Y269735D01*
X113610Y270743D01*
X112401Y270902D01*
Y272167D01*
X112130Y273533D01*
X111356Y274691D01*
X99569Y286478D01*
Y312522D01*
X123184Y336138D01*
X123958Y337295D01*
X124230Y338661D01*
Y370977D01*
X131523Y378271D01*
X132297Y379428D01*
X132569Y380794D01*
Y381641D01*
X132768Y381939D01*
X133078Y383500D01*
X132768Y385061D01*
X131884Y386384D01*
X130561Y387268D01*
X129000Y387578D01*
X127439Y387268D01*
X126116Y386384D01*
X125232Y385061D01*
X124922Y383500D01*
X125210Y382051D01*
X118138Y374978D01*
X117364Y373821D01*
X117093Y372455D01*
Y340139D01*
X114911Y337958D01*
X115069Y338750D01*
X114797Y340116D01*
X114023Y341273D01*
X112936Y342000D01*
X114023Y342727D01*
X114797Y343884D01*
X115069Y345250D01*
X114797Y346616D01*
X114023Y347773D01*
X112936Y348500D01*
X114023Y349227D01*
X114797Y350384D01*
X115069Y351750D01*
X114797Y353116D01*
X114023Y354273D01*
X112936Y355000D01*
X114023Y355727D01*
X114797Y356884D01*
X115069Y358250D01*
X114797Y359616D01*
X114023Y360773D01*
X112936Y361500D01*
X114023Y362227D01*
X114797Y363384D01*
X115069Y364750D01*
X114797Y366116D01*
X114023Y367273D01*
X112936Y368000D01*
X114023Y368727D01*
X114797Y369884D01*
X115069Y371250D01*
X114797Y372616D01*
X114023Y373773D01*
X112936Y374500D01*
X114023Y375227D01*
X114797Y376384D01*
X115069Y377750D01*
X114797Y379116D01*
X114023Y380273D01*
X112936Y381000D01*
X114023Y381727D01*
X114797Y382884D01*
X115069Y384250D01*
X114797Y385616D01*
X114023Y386773D01*
X112936Y387500D01*
X114023Y388227D01*
X114797Y389384D01*
X115069Y390750D01*
X114797Y392116D01*
X114023Y393273D01*
X112936Y394000D01*
X114023Y394727D01*
X114797Y395884D01*
X115069Y397250D01*
X114797Y398616D01*
X114023Y399773D01*
X112866Y400547D01*
X111500Y400819D01*
X95478D01*
X94194Y402103D01*
Y405375D01*
X93922Y406741D01*
X93148Y407898D01*
X87523Y413523D01*
X86366Y414297D01*
X85000Y414569D01*
X74000D01*
X72634Y414297D01*
X71758Y413712D01*
X77728Y419681D01*
X99087D01*
X98477Y419273D01*
X97703Y418116D01*
X97431Y416750D01*
X97703Y415384D01*
X98477Y414227D01*
X99564Y413500D01*
X98477Y412773D01*
X97703Y411616D01*
X97431Y410250D01*
X97703Y408884D01*
X98477Y407727D01*
X99634Y406953D01*
X101000Y406681D01*
X111500D01*
X112866Y406953D01*
X114023Y407727D01*
X114797Y408884D01*
X115069Y410250D01*
X114797Y411616D01*
X114023Y412773D01*
X113413Y413181D01*
X119694D01*
X121000Y412922D01*
X122561Y413232D01*
X123884Y414116D01*
X124768Y415439D01*
X125078Y417000D01*
X124768Y418561D01*
X123884Y419884D01*
X122561Y420768D01*
X121000Y421078D01*
X119439Y420768D01*
X118767Y420319D01*
X113413D01*
X114023Y420727D01*
X114797Y421884D01*
X115069Y423250D01*
X114797Y424616D01*
X114023Y425773D01*
X112866Y426547D01*
X111500Y426819D01*
D02*
G37*
G36*
X183000D02*
X172500D01*
X171134Y426547D01*
X169977Y425773D01*
X169203Y424616D01*
X168931Y423250D01*
X169203Y421884D01*
X169977Y420727D01*
X171064Y420000D01*
X169977Y419273D01*
X169203Y418116D01*
X168931Y416750D01*
X169203Y415384D01*
X169977Y414227D01*
X171064Y413500D01*
X169977Y412773D01*
X169203Y411616D01*
X168931Y410250D01*
X169203Y408884D01*
X169977Y407727D01*
X171064Y407000D01*
X169977Y406273D01*
X169203Y405116D01*
X168931Y403750D01*
X169203Y402384D01*
X169977Y401227D01*
X171064Y400500D01*
X169977Y399773D01*
X169203Y398616D01*
X168931Y397250D01*
X169203Y395884D01*
X169977Y394727D01*
X171064Y394000D01*
X169977Y393273D01*
X169203Y392116D01*
X168931Y390750D01*
X169203Y389384D01*
X169977Y388227D01*
X171064Y387500D01*
X169977Y386773D01*
X169203Y385616D01*
X168931Y384250D01*
X169203Y382884D01*
X169977Y381727D01*
X171064Y381000D01*
X169977Y380273D01*
X169203Y379116D01*
X168931Y377750D01*
X169203Y376384D01*
X169977Y375227D01*
X171134Y374453D01*
X172500Y374181D01*
X195404D01*
X196116Y373116D01*
X197439Y372232D01*
X199000Y371922D01*
X200561Y372232D01*
X201884Y373116D01*
X202768Y374439D01*
X203078Y376000D01*
X202768Y377561D01*
X201884Y378884D01*
X200561Y379768D01*
X199871Y379905D01*
X199503Y380273D01*
X198345Y381047D01*
X196979Y381319D01*
X192163D01*
X192773Y381727D01*
X199478Y388431D01*
X215000D01*
Y381750D01*
X227000D01*
Y392750D01*
X221834D01*
X221797Y392937D01*
X221023Y394094D01*
X220594Y394523D01*
X219437Y395297D01*
X218071Y395569D01*
X206064D01*
X206884Y396116D01*
X207768Y397439D01*
X208078Y399000D01*
X207768Y400561D01*
X206884Y401884D01*
X205561Y402768D01*
X204000Y403078D01*
X202439Y402768D01*
X201855Y402377D01*
X194939D01*
X195603Y403042D01*
X196561Y403232D01*
X197884Y404116D01*
X198768Y405439D01*
X199078Y407000D01*
X198768Y408561D01*
X197884Y409884D01*
X196561Y410768D01*
X195125Y411053D01*
X193405Y412773D01*
X192248Y413547D01*
X190882Y413819D01*
X184913D01*
X185523Y414227D01*
X186297Y415384D01*
X186569Y416750D01*
X186297Y418116D01*
X185523Y419273D01*
X184436Y420000D01*
X185523Y420727D01*
X186297Y421884D01*
X186569Y423250D01*
X186297Y424616D01*
X185523Y425773D01*
X184366Y426547D01*
X183000Y426819D01*
D02*
G37*
G36*
X79000Y403078D02*
X77439Y402768D01*
X76116Y401884D01*
X75232Y400561D01*
X75162Y400209D01*
X74563Y399610D01*
X73790Y398452D01*
X73518Y397087D01*
Y391315D01*
X70953Y388750D01*
X64000D01*
Y377750D01*
X76000D01*
Y383703D01*
X79610Y387313D01*
X80384Y388471D01*
X80655Y389837D01*
Y395295D01*
X81884Y396116D01*
X82768Y397439D01*
X83078Y399000D01*
X82768Y400561D01*
X81884Y401884D01*
X80561Y402768D01*
X79000Y403078D01*
D02*
G37*
G36*
X269500Y387500D02*
X252500D01*
Y370500D01*
X269500D01*
Y387500D01*
D02*
G37*
G36*
X27250Y382393D02*
X18750D01*
X16897Y382024D01*
X15325Y380975D01*
X14276Y379403D01*
X13907Y377550D01*
Y370050D01*
X14276Y368197D01*
X15325Y366626D01*
X16897Y365576D01*
X18750Y365207D01*
X27250D01*
X29103Y365576D01*
X30675Y366626D01*
X31724Y368197D01*
X32093Y370050D01*
Y377550D01*
X31724Y379403D01*
X30675Y380975D01*
X29103Y382024D01*
X27250Y382393D01*
D02*
G37*
G36*
X227000Y376250D02*
X215000D01*
Y365250D01*
X215902D01*
Y361000D01*
X215000D01*
Y349000D01*
X227000D01*
Y361000D01*
X226098D01*
Y365250D01*
X227000D01*
Y376250D01*
D02*
G37*
G36*
X76000Y372250D02*
X64000D01*
Y361250D01*
X64902D01*
Y359000D01*
X64000D01*
Y347000D01*
X76000D01*
Y359000D01*
X75098D01*
Y361250D01*
X76000D01*
Y372250D01*
D02*
G37*
G36*
X176000Y316086D02*
X173389Y315743D01*
X170957Y314735D01*
X168868Y313132D01*
X167307Y311098D01*
X119693D01*
X118132Y313132D01*
X116043Y314735D01*
X113610Y315743D01*
X111000Y316086D01*
X108390Y315743D01*
X105957Y314735D01*
X103868Y313132D01*
X102265Y311043D01*
X101257Y308610D01*
X100914Y306000D01*
X101257Y303389D01*
X102265Y300957D01*
X103868Y298868D01*
X105957Y297265D01*
X108390Y296257D01*
X111000Y295914D01*
X113610Y296257D01*
X116043Y297265D01*
X118132Y298868D01*
X119693Y300902D01*
X167307D01*
X168868Y298868D01*
X170957Y297265D01*
X173389Y296257D01*
X176000Y295914D01*
X178610Y296257D01*
X181043Y297265D01*
X183132Y298868D01*
X183542Y299402D01*
X197500D01*
Y297500D01*
X212500D01*
Y309500D01*
X204492D01*
X204000Y309598D01*
X185334D01*
X184735Y311043D01*
X183132Y313132D01*
X181043Y314735D01*
X178610Y315743D01*
X176000Y316086D01*
D02*
G37*
G36*
X65000Y246078D02*
X63439Y245768D01*
X62116Y244884D01*
X61232Y243561D01*
X60922Y242000D01*
X61232Y240439D01*
X62116Y239116D01*
X63439Y238232D01*
X64415Y238038D01*
X69327Y233126D01*
X67858Y231657D01*
X76343Y223172D01*
X84828Y231657D01*
X76343Y240142D01*
X74374Y238173D01*
X68329Y244218D01*
X67884Y244884D01*
X66561Y245768D01*
X65000Y246078D01*
D02*
G37*
G36*
X265250Y362193D02*
X256750D01*
X254897Y361824D01*
X253326Y360774D01*
X252276Y359203D01*
X251907Y357350D01*
Y350054D01*
X232719Y330866D01*
X231946Y329708D01*
X231674Y328343D01*
Y298721D01*
X222477Y289523D01*
X221703Y288366D01*
X221431Y287000D01*
Y255478D01*
X215522Y249569D01*
X172515D01*
X171149Y249297D01*
X169991Y248523D01*
X155037Y233569D01*
X125000D01*
X123634Y233297D01*
X122477Y232523D01*
X110477Y220523D01*
X110367Y220359D01*
Y223202D01*
X110095Y224568D01*
X109321Y225725D01*
X79523Y255523D01*
X78366Y256297D01*
X77000Y256569D01*
X64000D01*
X62634Y256297D01*
X61477Y255523D01*
X35150Y229197D01*
X29743D01*
X29103Y229624D01*
X27250Y229993D01*
X18750D01*
X16897Y229624D01*
X15325Y228575D01*
X14276Y227003D01*
X13907Y225150D01*
Y217650D01*
X14276Y215797D01*
X15325Y214226D01*
X16897Y213176D01*
X18750Y212807D01*
X27250D01*
X29103Y213176D01*
X30675Y214226D01*
X31724Y215797D01*
X32093Y217650D01*
Y222060D01*
X36628D01*
X37994Y222331D01*
X39152Y223105D01*
X65478Y249431D01*
X75522D01*
X103230Y221724D01*
Y208798D01*
X103501Y207432D01*
X104275Y206275D01*
X113047Y197503D01*
X112645Y197583D01*
X111181Y197292D01*
X109941Y196463D01*
X109112Y195222D01*
X108821Y193759D01*
X108901Y193357D01*
X99569Y202690D01*
Y212000D01*
X99297Y213366D01*
X98523Y214523D01*
X94423Y218624D01*
X96142Y220343D01*
X87657Y228829D01*
X79172Y220343D01*
X87657Y211858D01*
X89376Y213577D01*
X92431Y210522D01*
Y201211D01*
X92648Y200121D01*
X92385Y200297D01*
X91019Y200569D01*
X85478D01*
X80423Y205624D01*
X82142Y207343D01*
X73657Y215828D01*
X65171Y207343D01*
X73657Y198858D01*
X75376Y200577D01*
X81477Y194477D01*
X82634Y193703D01*
X84000Y193431D01*
X89541D01*
X99258Y183714D01*
X98856Y183794D01*
X97575Y183539D01*
X41007D01*
X32093Y192454D01*
Y199750D01*
X31724Y201603D01*
X30675Y203174D01*
X29103Y204224D01*
X27250Y204593D01*
X18750D01*
X16897Y204224D01*
X15325Y203174D01*
X14276Y201603D01*
X13907Y199750D01*
Y192250D01*
X14276Y190397D01*
X15325Y188825D01*
X16897Y187776D01*
X18750Y187407D01*
X27046D01*
X37006Y177447D01*
X38164Y176674D01*
X39529Y176402D01*
X97017D01*
X102516Y170903D01*
X103757Y170074D01*
X105220Y169783D01*
X106683Y170074D01*
X107924Y170903D01*
X108752Y172143D01*
X109044Y173607D01*
X108852Y174571D01*
X109816Y174379D01*
X111279Y174670D01*
X112520Y175499D01*
X113349Y176740D01*
X113640Y178203D01*
X113448Y179167D01*
X114412Y178976D01*
X115876Y179267D01*
X117116Y180095D01*
X117945Y181336D01*
X118236Y182799D01*
X118122Y183370D01*
X129593Y171900D01*
X130116Y171116D01*
X131439Y170232D01*
X133000Y169922D01*
X134561Y170232D01*
X135884Y171116D01*
X136768Y172439D01*
X137078Y174000D01*
X136768Y175561D01*
X135884Y176884D01*
X134561Y177768D01*
X133633Y177952D01*
X123371Y188214D01*
X123605Y188168D01*
X125068Y188459D01*
X126308Y189288D01*
X127137Y190528D01*
X127428Y191991D01*
X127236Y192956D01*
X128201Y192764D01*
X129664Y193055D01*
X130905Y193884D01*
X131733Y195124D01*
X132024Y196588D01*
X131833Y197552D01*
X132797Y197360D01*
X134260Y197651D01*
X135501Y198480D01*
X136330Y199721D01*
X136621Y201184D01*
X136429Y202148D01*
X137393Y201957D01*
X138856Y202248D01*
X140097Y203076D01*
X140926Y204317D01*
X141217Y205780D01*
X140926Y207243D01*
X140097Y208484D01*
X139438Y209142D01*
X144728Y214431D01*
X161851D01*
X155903Y208484D01*
X155074Y207243D01*
X154783Y205780D01*
X155074Y204317D01*
X155903Y203076D01*
X157143Y202248D01*
X158607Y201957D01*
X159571Y202148D01*
X159379Y201184D01*
X159670Y199721D01*
X160499Y198480D01*
X161740Y197651D01*
X163203Y197360D01*
X164167Y197552D01*
X163976Y196588D01*
X164267Y195124D01*
X165095Y193884D01*
X166336Y193055D01*
X167799Y192764D01*
X168764Y192956D01*
X168572Y191991D01*
X168863Y190528D01*
X169692Y189288D01*
X170932Y188459D01*
X172395Y188168D01*
X173858Y188459D01*
X175099Y189288D01*
X181463Y195652D01*
X181916Y196330D01*
X185633Y200048D01*
X186561Y200232D01*
X187884Y201116D01*
X188768Y202439D01*
X189078Y204000D01*
X188768Y205561D01*
X187884Y206884D01*
X187064Y207431D01*
X244900D01*
X246266Y207703D01*
X247423Y208477D01*
X256954Y218007D01*
X265250D01*
X267103Y218376D01*
X268675Y219426D01*
X269724Y220997D01*
X270093Y222850D01*
Y230350D01*
X269724Y232203D01*
X268675Y233775D01*
X267103Y234824D01*
X265250Y235193D01*
X256750D01*
X254897Y234824D01*
X253326Y233775D01*
X252276Y232203D01*
X251907Y230350D01*
Y223054D01*
X243422Y214569D01*
X230690D01*
X231366Y214703D01*
X232523Y215477D01*
X258795Y241748D01*
X259569Y242906D01*
X259668Y243407D01*
X265250D01*
X267103Y243776D01*
X268675Y244825D01*
X269724Y246397D01*
X270093Y248250D01*
Y255750D01*
X269724Y257603D01*
X268675Y259174D01*
X267103Y260224D01*
X265250Y260593D01*
X256750D01*
X254897Y260224D01*
X253326Y259174D01*
X252276Y257603D01*
X251907Y255750D01*
Y248250D01*
X252276Y246397D01*
X252703Y245757D01*
Y245750D01*
X228522Y221569D01*
X226689D01*
X227366Y221703D01*
X228523Y222477D01*
X248523Y242477D01*
X249297Y243634D01*
X249569Y245000D01*
Y261422D01*
X256954Y268807D01*
X265250D01*
X267103Y269176D01*
X268675Y270226D01*
X269724Y271797D01*
X270093Y273650D01*
Y281150D01*
X269724Y283003D01*
X268675Y284575D01*
X267103Y285624D01*
X265250Y285993D01*
X256750D01*
X254897Y285624D01*
X253326Y284575D01*
X252276Y283003D01*
X251907Y281150D01*
Y273854D01*
X243477Y265423D01*
X242703Y264266D01*
X242569Y263589D01*
Y279822D01*
X256954Y294207D01*
X265250D01*
X267103Y294576D01*
X268675Y295625D01*
X269724Y297197D01*
X270093Y299050D01*
Y306550D01*
X269724Y308403D01*
X268675Y309974D01*
X267103Y311024D01*
X265250Y311393D01*
X256750D01*
X254897Y311024D01*
X253326Y309974D01*
X252276Y308403D01*
X251907Y306550D01*
Y299254D01*
X236477Y283823D01*
X235703Y282666D01*
X235431Y281300D01*
Y249478D01*
X234212Y248258D01*
X234797Y249134D01*
X235069Y250500D01*
Y283022D01*
X244523Y292477D01*
X245297Y293634D01*
X245569Y295000D01*
Y308222D01*
X256954Y319607D01*
X265250D01*
X267103Y319976D01*
X268675Y321026D01*
X269724Y322597D01*
X270093Y324450D01*
Y331950D01*
X269724Y333803D01*
X268675Y335374D01*
X267103Y336424D01*
X265250Y336793D01*
X256750D01*
X254897Y336424D01*
X253326Y335374D01*
X252276Y333803D01*
X251907Y331950D01*
Y324654D01*
X239477Y312223D01*
X238811Y311227D01*
Y326865D01*
X256954Y345007D01*
X265250D01*
X267103Y345376D01*
X268675Y346426D01*
X269724Y347997D01*
X270093Y349850D01*
Y357350D01*
X269724Y359203D01*
X268675Y360774D01*
X267103Y361824D01*
X265250Y362193D01*
D02*
G37*
G36*
X50000Y232078D02*
X48439Y231768D01*
X47116Y230884D01*
X46232Y229561D01*
X45922Y228000D01*
X46232Y226439D01*
X47116Y225116D01*
X48439Y224232D01*
X50000Y223922D01*
X50443Y224010D01*
X54827Y219626D01*
X53858Y218657D01*
X62343Y210172D01*
X70828Y218657D01*
X62343Y227142D01*
X59874Y224673D01*
X54023Y230523D01*
X52866Y231297D01*
X52011Y231467D01*
X51561Y231768D01*
X50000Y232078D01*
D02*
G37*
G36*
X265250Y209793D02*
X256750D01*
X254897Y209424D01*
X253326Y208375D01*
X252276Y206803D01*
X251907Y204950D01*
Y204769D01*
X199989D01*
X198623Y204497D01*
X197465Y203723D01*
X186334Y192592D01*
X185248Y191866D01*
X178884Y185503D01*
X178055Y184262D01*
X177764Y182799D01*
X178055Y181336D01*
X178884Y180095D01*
X180124Y179267D01*
X181588Y178976D01*
X183051Y179267D01*
X184291Y180095D01*
X190655Y186459D01*
X191381Y187546D01*
X201467Y197631D01*
X251907D01*
Y197450D01*
X252276Y195597D01*
X253326Y194025D01*
X254897Y192976D01*
X256750Y192607D01*
X265250D01*
X267103Y192976D01*
X268675Y194025D01*
X269724Y195597D01*
X270093Y197450D01*
Y204950D01*
X269724Y206803D01*
X268675Y208375D01*
X267103Y209424D01*
X265250Y209793D01*
D02*
G37*
G36*
X237000Y190000D02*
X225000D01*
Y187569D01*
X214904D01*
X213539Y187297D01*
X212381Y186523D01*
X209397Y183539D01*
X198425D01*
X197144Y183794D01*
X195681Y183503D01*
X194440Y182674D01*
X188076Y176310D01*
X187248Y175070D01*
X186957Y173607D01*
X187248Y172143D01*
X188076Y170903D01*
X189317Y170074D01*
X190780Y169783D01*
X192243Y170074D01*
X193484Y170903D01*
X198983Y176402D01*
X210875D01*
X212241Y176674D01*
X213398Y177447D01*
X216382Y180431D01*
X225000D01*
Y178000D01*
X237000D01*
Y180431D01*
X250145D01*
X251907Y178670D01*
Y172050D01*
X252276Y170197D01*
X253326Y168626D01*
X254897Y167576D01*
X256750Y167207D01*
X265250D01*
X267103Y167576D01*
X268675Y168626D01*
X269724Y170197D01*
X270093Y172050D01*
Y179550D01*
X269724Y181403D01*
X268675Y182974D01*
X267103Y184024D01*
X265250Y184393D01*
X256750D01*
X256356Y184315D01*
X254147Y186523D01*
X252989Y187297D01*
X251623Y187569D01*
X237000D01*
Y190000D01*
D02*
G37*
G36*
Y174000D02*
X225000D01*
Y162000D01*
X225902D01*
Y158750D01*
X225000D01*
Y147750D01*
X237000D01*
Y158750D01*
X236098D01*
Y162000D01*
X237000D01*
Y174000D01*
D02*
G37*
G36*
X27250Y179193D02*
X18750D01*
X16897Y178824D01*
X15325Y177775D01*
X14276Y176203D01*
X13907Y174350D01*
Y166850D01*
X14276Y164997D01*
X15325Y163426D01*
X16897Y162376D01*
X18750Y162007D01*
X25032D01*
X25205Y161748D01*
X52477Y134477D01*
X53634Y133703D01*
X55000Y133431D01*
X89827D01*
X90547Y133575D01*
X88541Y131569D01*
X42178D01*
X32093Y141654D01*
Y148950D01*
X31724Y150803D01*
X30675Y152374D01*
X29103Y153424D01*
X27250Y153793D01*
X18750D01*
X16897Y153424D01*
X15325Y152374D01*
X14276Y150803D01*
X13907Y148950D01*
Y141450D01*
X14276Y139597D01*
X15325Y138026D01*
X16897Y136976D01*
X18750Y136607D01*
X27046D01*
X38177Y125477D01*
X39334Y124703D01*
X40700Y124431D01*
X90019D01*
X91385Y124703D01*
X92542Y125477D01*
X104305Y137239D01*
X104225Y136837D01*
X104516Y135374D01*
X105345Y134134D01*
X106585Y133305D01*
X108048Y133014D01*
X109512Y133305D01*
X110752Y134134D01*
X117116Y140497D01*
X117945Y141738D01*
X117958Y141806D01*
X123341Y147188D01*
X123561Y147232D01*
X124884Y148116D01*
X125768Y149439D01*
X126078Y151000D01*
X125768Y152561D01*
X124884Y153884D01*
X123561Y154768D01*
X122000Y155078D01*
X120439Y154768D01*
X119116Y153884D01*
X118232Y152561D01*
X118136Y152077D01*
X113586Y147527D01*
X113640Y147797D01*
X113349Y149260D01*
X112520Y150501D01*
X111279Y151330D01*
X109816Y151621D01*
X108852Y151429D01*
X109044Y152393D01*
X108752Y153857D01*
X107924Y155097D01*
X106683Y155926D01*
X105220Y156217D01*
X103757Y155926D01*
X102516Y155097D01*
X96152Y148733D01*
X95427Y147647D01*
X88349Y140569D01*
X56478D01*
X31778Y165268D01*
X32093Y166850D01*
Y174350D01*
X31724Y176203D01*
X30675Y177775D01*
X29103Y178824D01*
X27250Y179193D01*
D02*
G37*
G36*
X237000Y142250D02*
X225000D01*
Y131250D01*
X237000D01*
Y142250D01*
D02*
G37*
G36*
X131000Y145078D02*
X129439Y144768D01*
X128116Y143884D01*
X127232Y142561D01*
X127229Y142544D01*
X122247Y137562D01*
X122142Y137541D01*
X120901Y136712D01*
X114537Y130348D01*
X113708Y129108D01*
X113417Y127645D01*
X113708Y126181D01*
X114537Y124941D01*
X115778Y124112D01*
X117241Y123821D01*
X118704Y124112D01*
X119944Y124941D01*
X126308Y131305D01*
X126762Y131984D01*
X131874Y137095D01*
X132561Y137232D01*
X133884Y138116D01*
X134768Y139439D01*
X135078Y141000D01*
X134768Y142561D01*
X133884Y143884D01*
X132561Y144768D01*
X131000Y145078D01*
D02*
G37*
G36*
X265250Y158993D02*
X256750D01*
X254897Y158624D01*
X253326Y157575D01*
X252276Y156003D01*
X251907Y154150D01*
Y146854D01*
X243612Y138559D01*
X242839Y137402D01*
X242567Y136036D01*
Y129614D01*
X234522Y121569D01*
X226651D01*
X200573Y147647D01*
X199848Y148733D01*
X193484Y155097D01*
X192243Y155926D01*
X190780Y156217D01*
X189317Y155926D01*
X188076Y155097D01*
X187248Y153857D01*
X186957Y152393D01*
X187148Y151429D01*
X186184Y151621D01*
X184721Y151330D01*
X183480Y150501D01*
X182651Y149260D01*
X182360Y147797D01*
X182552Y146833D01*
X181588Y147024D01*
X180124Y146733D01*
X178884Y145905D01*
X178055Y144664D01*
X177764Y143201D01*
X177956Y142236D01*
X176991Y142428D01*
X175528Y142137D01*
X174288Y141308D01*
X173459Y140068D01*
X173168Y138605D01*
X173360Y137640D01*
X172395Y137832D01*
X170932Y137541D01*
X169692Y136712D01*
X168863Y135472D01*
X168572Y134009D01*
X168764Y133044D01*
X167799Y133236D01*
X166336Y132945D01*
X165095Y132116D01*
X164267Y130876D01*
X163976Y129412D01*
X164167Y128448D01*
X163203Y128640D01*
X161740Y128349D01*
X160499Y127520D01*
X159670Y126279D01*
X159379Y124816D01*
X159571Y123852D01*
X158607Y124044D01*
X157143Y123752D01*
X155903Y122924D01*
X155074Y121683D01*
X154783Y120220D01*
X155074Y118757D01*
X155903Y117516D01*
X162267Y111152D01*
X163353Y110427D01*
X165360Y108420D01*
Y101407D01*
X153791Y89838D01*
X153439Y89768D01*
X152116Y88884D01*
X151232Y87561D01*
X150922Y86000D01*
X151232Y84439D01*
X152116Y83116D01*
X153439Y82232D01*
X155000Y81922D01*
X156561Y82232D01*
X157884Y83116D01*
X158768Y84439D01*
X158838Y84791D01*
X171452Y97406D01*
X172226Y98563D01*
X172498Y99929D01*
Y109898D01*
X172388Y110449D01*
X176431Y106406D01*
Y95478D01*
X170791Y89838D01*
X170439Y89768D01*
X169116Y88884D01*
X168232Y87561D01*
X167922Y86000D01*
X168232Y84439D01*
X169116Y83116D01*
X170439Y82232D01*
X172000Y81922D01*
X173561Y82232D01*
X174884Y83116D01*
X175768Y84439D01*
X175838Y84791D01*
X182523Y91477D01*
X183297Y92634D01*
X183569Y94000D01*
Y107884D01*
X183392Y108773D01*
X185431Y106733D01*
Y87859D01*
X185232Y87561D01*
X184922Y86000D01*
X185232Y84439D01*
X186116Y83116D01*
X187439Y82232D01*
X189000Y81922D01*
X190561Y82232D01*
X191884Y83116D01*
X192768Y84439D01*
X193078Y86000D01*
X192768Y87561D01*
X192569Y87859D01*
Y108211D01*
X192425Y108932D01*
X218431Y82926D01*
Y62000D01*
X218703Y60634D01*
X219477Y59477D01*
X232677Y46277D01*
X233834Y45503D01*
X235200Y45231D01*
X251907D01*
Y45050D01*
X252276Y43197D01*
X253326Y41625D01*
X254897Y40576D01*
X256750Y40207D01*
X265250D01*
X267103Y40576D01*
X268675Y41625D01*
X269724Y43197D01*
X270093Y45050D01*
Y52550D01*
X269724Y54403D01*
X268675Y55974D01*
X267103Y57024D01*
X265250Y57393D01*
X256750D01*
X254897Y57024D01*
X253326Y55974D01*
X252276Y54403D01*
X251907Y52550D01*
Y52369D01*
X236678D01*
X225569Y63478D01*
Y84404D01*
X225425Y85124D01*
X238073Y72477D01*
X239231Y71703D01*
X240596Y71431D01*
X251907D01*
Y70450D01*
X252276Y68597D01*
X253326Y67025D01*
X254897Y65976D01*
X256750Y65607D01*
X265250D01*
X267103Y65976D01*
X268675Y67025D01*
X269724Y68597D01*
X270093Y70450D01*
Y77950D01*
X269724Y79803D01*
X268675Y81375D01*
X267103Y82424D01*
X265250Y82793D01*
X256750D01*
X254897Y82424D01*
X253326Y81375D01*
X252276Y79803D01*
X252030Y78569D01*
X242074D01*
X224468Y96175D01*
X225189Y96031D01*
X251907D01*
Y95850D01*
X252276Y93997D01*
X253326Y92425D01*
X254897Y91376D01*
X256750Y91007D01*
X265250D01*
X267103Y91376D01*
X268675Y92425D01*
X269724Y93997D01*
X270093Y95850D01*
Y103350D01*
X269724Y105203D01*
X268675Y106775D01*
X267103Y107824D01*
X265250Y108193D01*
X256750D01*
X254897Y107824D01*
X253326Y106775D01*
X252276Y105203D01*
X251907Y103350D01*
Y103169D01*
X226667D01*
X226261Y103575D01*
X226981Y103431D01*
X242500D01*
X243866Y103703D01*
X245023Y104477D01*
X256954Y116407D01*
X265250D01*
X267103Y116776D01*
X268675Y117825D01*
X269724Y119397D01*
X270093Y121250D01*
Y128750D01*
X269724Y130603D01*
X268675Y132175D01*
X267103Y133224D01*
X265250Y133593D01*
X256750D01*
X254897Y133224D01*
X253326Y132175D01*
X252276Y130603D01*
X251907Y128750D01*
Y121454D01*
X241022Y110569D01*
X228459D01*
X224453Y114575D01*
X225173Y114431D01*
X236000D01*
X237366Y114703D01*
X238523Y115477D01*
X248659Y125612D01*
X249433Y126770D01*
X249704Y128136D01*
Y134558D01*
X256954Y141807D01*
X265250D01*
X267103Y142176D01*
X268675Y143225D01*
X269724Y144797D01*
X270093Y146650D01*
Y154150D01*
X269724Y156003D01*
X268675Y157575D01*
X267103Y158624D01*
X265250Y158993D01*
D02*
G37*
G36*
X27250Y128393D02*
X18750D01*
X16897Y128024D01*
X15325Y126974D01*
X14276Y125403D01*
X13907Y123550D01*
Y116050D01*
X14276Y114197D01*
X15325Y112626D01*
X16897Y111576D01*
X18750Y111207D01*
X27250D01*
X29103Y111576D01*
X30675Y112626D01*
X31724Y114197D01*
X32093Y116050D01*
Y123550D01*
X31724Y125403D01*
X30675Y126974D01*
X29103Y128024D01*
X27250Y128393D01*
D02*
G37*
G36*
Y102993D02*
X18750D01*
X16897Y102624D01*
X15325Y101574D01*
X14276Y100003D01*
X13907Y98150D01*
Y90650D01*
X14276Y88797D01*
X15325Y87226D01*
X16897Y86176D01*
X18750Y85807D01*
X27250D01*
X29103Y86176D01*
X30675Y87226D01*
X31724Y88797D01*
X32093Y90650D01*
Y98150D01*
X31724Y100003D01*
X30675Y101574D01*
X29103Y102624D01*
X27250Y102993D01*
D02*
G37*
G36*
Y77593D02*
X18750D01*
X16897Y77224D01*
X15325Y76175D01*
X14276Y74603D01*
X13907Y72750D01*
Y65250D01*
X14276Y63397D01*
X15325Y61825D01*
X16897Y60776D01*
X18750Y60407D01*
X27250D01*
X29103Y60776D01*
X30675Y61825D01*
X31724Y63397D01*
X32093Y65250D01*
Y72750D01*
X31724Y74603D01*
X30675Y76175D01*
X29103Y77224D01*
X27250Y77593D01*
D02*
G37*
G36*
X132797Y128640D02*
X131334Y128349D01*
X130094Y127520D01*
X123730Y121156D01*
X123004Y120070D01*
X107977Y105042D01*
X107203Y103885D01*
X106931Y102519D01*
Y69000D01*
X85000D01*
Y47000D01*
X99402D01*
Y26500D01*
X98500D01*
Y11500D01*
X110500D01*
Y26500D01*
X109598D01*
Y47000D01*
X142000D01*
Y69000D01*
X114069D01*
Y101041D01*
X119575Y106547D01*
X119431Y105827D01*
Y80000D01*
X119703Y78634D01*
X120477Y77477D01*
X125977Y71977D01*
X127134Y71203D01*
X128500Y70931D01*
X144022D01*
X154477Y60477D01*
X155634Y59703D01*
X157000Y59431D01*
X160000D01*
Y47000D01*
X194378D01*
Y26500D01*
X193500D01*
Y11500D01*
X205500D01*
Y26500D01*
X204574D01*
Y47000D01*
X217000D01*
Y69000D01*
X160000D01*
Y66569D01*
X158478D01*
X148023Y77023D01*
X146866Y77797D01*
X145500Y78069D01*
X129978D01*
X126569Y81478D01*
Y104348D01*
X132647Y110427D01*
X133733Y111152D01*
X140097Y117516D01*
X140926Y118757D01*
X141217Y120220D01*
X140926Y121683D01*
X140097Y122924D01*
X138856Y123752D01*
X137393Y124044D01*
X136429Y123852D01*
X136621Y124816D01*
X136330Y126279D01*
X135501Y127520D01*
X134260Y128349D01*
X132797Y128640D01*
D02*
G37*
G36*
X190500Y26500D02*
X178500D01*
Y24098D01*
X167000D01*
X165049Y23710D01*
X163395Y22605D01*
X162290Y20951D01*
X161902Y19000D01*
X162290Y17049D01*
X163395Y15395D01*
X165049Y14290D01*
X167000Y13902D01*
X178500D01*
Y11500D01*
X190500D01*
Y26500D01*
D02*
G37*
G36*
X125500D02*
X113500D01*
Y11500D01*
X125500D01*
Y13902D01*
X137000D01*
X138951Y14290D01*
X140605Y15395D01*
X141710Y17049D01*
X142098Y19000D01*
X141710Y20951D01*
X140605Y22605D01*
X138951Y23710D01*
X137000Y24098D01*
X125500D01*
Y26500D01*
D02*
G37*
%LPD*%
D10*
X83000Y289000D02*
X84000Y288000D01*
D14*
X205000Y318500D02*
D03*
Y303500D02*
D03*
D15*
X221000Y339000D02*
D03*
Y355000D02*
D03*
X70000Y337000D02*
D03*
Y353000D02*
D03*
X84000Y272000D02*
D03*
Y288000D02*
D03*
X231000Y168000D02*
D03*
Y184000D02*
D03*
D16*
X106250Y423250D02*
D03*
Y416750D02*
D03*
Y410250D02*
D03*
Y403750D02*
D03*
Y397250D02*
D03*
Y390750D02*
D03*
Y384250D02*
D03*
Y377750D02*
D03*
Y371250D02*
D03*
Y364750D02*
D03*
Y358250D02*
D03*
Y351750D02*
D03*
Y345250D02*
D03*
Y338750D02*
D03*
X177750Y423250D02*
D03*
Y416750D02*
D03*
Y410250D02*
D03*
Y403750D02*
D03*
Y397250D02*
D03*
Y390750D02*
D03*
Y384250D02*
D03*
Y377750D02*
D03*
Y371250D02*
D03*
Y364750D02*
D03*
Y358250D02*
D03*
Y351750D02*
D03*
Y345250D02*
D03*
Y338750D02*
D03*
D17*
X188500Y58000D02*
D03*
X113500D02*
D03*
D18*
X102038Y176789D02*
D03*
X106634Y181385D02*
D03*
X111230Y185981D02*
D03*
X115827Y190577D02*
D03*
X120423Y195173D02*
D03*
X125019Y199770D02*
D03*
X129615Y204366D02*
D03*
X134211Y208962D02*
D03*
X193962Y149211D02*
D03*
X189366Y144615D02*
D03*
X184769Y140019D02*
D03*
X180173Y135423D02*
D03*
X175577Y130827D02*
D03*
X170981Y126230D02*
D03*
X166385Y121634D02*
D03*
X161789Y117038D02*
D03*
D19*
Y208962D02*
D03*
X166385Y204366D02*
D03*
X170981Y199770D02*
D03*
X175577Y195173D02*
D03*
X180173Y190577D02*
D03*
X184769Y185981D02*
D03*
X189366Y181385D02*
D03*
X193962Y176789D02*
D03*
X134211Y117038D02*
D03*
X129615Y121634D02*
D03*
X125019Y126230D02*
D03*
X120423Y130827D02*
D03*
X115827Y135423D02*
D03*
X111230Y140019D02*
D03*
X106634Y144615D02*
D03*
X102038Y149211D02*
D03*
D20*
X62343Y218657D02*
D03*
X73657Y207343D02*
D03*
X76343Y231657D02*
D03*
X87657Y220343D02*
D03*
D21*
X149500Y466900D02*
D03*
X154500D02*
D03*
X159500D02*
D03*
X164500D02*
D03*
X169500D02*
D03*
X144500D02*
D03*
X139500D02*
D03*
X134500D02*
D03*
X129500D02*
D03*
X124500D02*
D03*
X119500D02*
D03*
X114500D02*
D03*
D22*
X231000Y136750D02*
D03*
Y153250D02*
D03*
X70000Y383250D02*
D03*
Y366750D02*
D03*
X221000Y387250D02*
D03*
Y370750D02*
D03*
D23*
X184500Y19000D02*
D03*
X199500D02*
D03*
X119500D02*
D03*
X104500D02*
D03*
D40*
X95521Y384250D02*
X106250D01*
X88271Y377000D02*
X95521Y384250D01*
X88000Y377000D02*
X88271D01*
X120729Y417000D02*
X121000D01*
X106250Y416750D02*
X120479D01*
X120729Y417000D01*
X190882Y410250D02*
X194323Y406809D01*
X177750Y410250D02*
X190882D01*
X177750Y403750D02*
X191265D01*
X194323Y406809D01*
X198729Y376000D02*
X199000D01*
X177750Y377750D02*
X196979D01*
X198729Y376000D01*
X220500Y387250D02*
X221000D01*
X198000Y392000D02*
X218071D01*
X218500Y389250D02*
X220500Y387250D01*
X218500Y389250D02*
Y391571D01*
X218071Y392000D02*
X218500Y391571D01*
X190250Y384250D02*
X198000Y392000D01*
X177750Y384250D02*
X190250D01*
X166750Y371250D02*
X177750D01*
X154000Y384000D02*
X166750Y371250D01*
X203729Y358000D02*
X204000D01*
X177750Y358250D02*
X203479D01*
X203729Y358000D01*
X177750Y364750D02*
X199750D01*
X201000Y366000D01*
X115788Y117000D02*
X125019Y126230D01*
X115565Y117000D02*
X115788D01*
X110500Y102519D02*
X129615Y121634D01*
X110500Y58000D02*
Y102519D01*
X123000Y105827D02*
X134211Y117038D01*
X123000Y80000D02*
Y105827D01*
Y80000D02*
X128500Y74500D01*
X145500D01*
X157000Y63000D01*
X175577Y195173D02*
X175713D01*
X184348Y203809D01*
X184809D01*
X189366Y181375D02*
Y181385D01*
X180000Y172010D02*
X189366Y181375D01*
X180000Y172000D02*
Y172010D01*
X180173Y190442D02*
Y190577D01*
X170000Y180268D02*
X180173Y190442D01*
X170000Y180000D02*
Y180268D01*
X130731Y141000D02*
X131000D01*
X120423Y130827D02*
X120558D01*
X130731Y141000D01*
X111230Y140019D02*
Y140125D01*
X122000Y150894D01*
X115691Y135423D02*
X115827D01*
X106269Y126000D02*
X115691Y135423D01*
X106000Y126000D02*
X106269D01*
X109666Y261000D02*
X111000D01*
X84000Y272000D02*
X98666D01*
X109666Y261000D01*
X67000Y272000D02*
X84000D01*
X41800Y246800D02*
X67000Y272000D01*
X23000Y246800D02*
X41800D01*
X64000Y253000D02*
X77000D01*
X106798Y208798D02*
Y223202D01*
X77000Y253000D02*
X106798Y223202D01*
X27228Y225628D02*
X36628D01*
X64000Y253000D01*
X23000Y221400D02*
X27228Y225628D01*
X203809Y398809D02*
X204000Y399000D01*
X194809Y398809D02*
X203809D01*
X186750Y390750D02*
X194809Y398809D01*
X177750Y390750D02*
X186750D01*
X259823Y175800D02*
X261000D01*
X231000Y184000D02*
X251623D01*
X259823Y175800D01*
X35555Y273555D02*
X64000Y302000D01*
X23000Y272200D02*
X24355Y273555D01*
X35555D01*
X93750Y351750D02*
X106250D01*
X83000Y321000D02*
Y341000D01*
X93750Y351750D01*
X72000Y310000D02*
X83000Y321000D01*
X90000Y318000D02*
Y334000D01*
X64000Y302000D02*
X74000D01*
X90000Y318000D01*
X23000Y297600D02*
X49600D01*
X62000Y310000D02*
X72000D01*
X49600Y297600D02*
X62000Y310000D01*
X96000Y285000D02*
Y314000D01*
X108833Y263167D02*
X111000Y261000D01*
X108833Y263167D02*
Y272167D01*
X96000Y285000D02*
X108833Y272167D01*
X96000Y314000D02*
X120661Y338661D01*
Y372455D01*
X129000Y380794D02*
Y383500D01*
X120661Y372455D02*
X129000Y380794D01*
X189366Y181385D02*
X189366D01*
X199989Y201200D02*
X261000D01*
X184769Y185981D02*
X199989Y201200D01*
X205000Y318500D02*
Y345000D01*
X198250Y351750D02*
X205000Y345000D01*
X177750Y351750D02*
X198250D01*
X77087Y397087D02*
X79000Y399000D01*
X70000Y383250D02*
X70500D01*
X77087Y389837D01*
Y397087D01*
X90625Y400625D02*
X94000Y397250D01*
X50000Y387000D02*
X74000Y411000D01*
X90625Y400625D02*
Y405375D01*
X85000Y411000D02*
X90625Y405375D01*
X74000Y411000D02*
X85000D01*
X94750Y338750D02*
X106250D01*
X90000Y334000D02*
X94750Y338750D01*
X94000Y397250D02*
X106250D01*
X50000Y349500D02*
Y387000D01*
X23000Y323000D02*
X23500D01*
X50000Y349500D01*
X43000Y367900D02*
Y390000D01*
X76250Y423250D02*
X106250D01*
X43000Y390000D02*
X76250Y423250D01*
X23000Y348400D02*
X23500D01*
X43000Y367900D01*
X75843Y231657D02*
X76343D01*
X65500Y242000D02*
X75843Y231657D01*
X65000Y242000D02*
X65500D01*
X61000Y218500D02*
X62343D01*
X51500Y228000D02*
X61000Y218500D01*
X50000Y228000D02*
X51500D01*
X62343Y218500D02*
Y218657D01*
X106798Y208798D02*
X120423Y195173D01*
X73657Y207343D02*
X84000Y197000D01*
X91019D02*
X106634Y181385D01*
X84000Y197000D02*
X91019D01*
X111019Y185981D02*
Y186192D01*
X87657Y220343D02*
Y220343D01*
Y220343D02*
X96000Y212000D01*
Y201211D02*
Y212000D01*
Y201211D02*
X111019Y186192D01*
X260500Y353600D02*
X261000D01*
X235243Y328343D02*
X260500Y353600D01*
X235243Y297243D02*
Y328343D01*
X225000Y287000D02*
X235243Y297243D01*
X225000Y254000D02*
Y287000D01*
X217000Y246000D02*
X225000Y254000D01*
X172515Y246000D02*
X217000D01*
X156515Y230000D02*
X172515Y246000D01*
X159000Y224000D02*
X174000Y239000D01*
X260500Y328200D02*
X261000D01*
X242000Y309700D02*
X260500Y328200D01*
X242000Y295000D02*
Y309700D01*
X231500Y284500D02*
X242000Y295000D01*
X220000Y239000D02*
X231500Y250500D01*
Y284500D01*
X174000Y239000D02*
X220000D01*
X260500Y302800D02*
X261000D01*
X239000Y281300D02*
X260500Y302800D01*
X239000Y248000D02*
Y281300D01*
X223000Y232000D02*
X239000Y248000D01*
X176000Y232000D02*
X223000D01*
X162000Y218000D02*
X176000Y232000D01*
X260406Y277306D02*
Y277994D01*
X246000Y262900D02*
X260406Y277306D01*
X246000Y245000D02*
Y262900D01*
X226000Y225000D02*
X246000Y245000D01*
X177827Y225000D02*
X226000D01*
X161789Y208962D02*
X177827Y225000D01*
X256272Y247772D02*
X260500Y252000D01*
X256272Y244272D02*
Y247772D01*
X230000Y218000D02*
X256272Y244272D01*
X180019Y218000D02*
X230000D01*
X166385Y204366D02*
X180019Y218000D01*
X244900Y211000D02*
X260500Y226600D01*
X182211Y211000D02*
X244900D01*
X170981Y199770D02*
X182211Y211000D01*
X214904Y184000D02*
X231000D01*
X193962Y176789D02*
X197144Y179971D01*
X210875D01*
X214904Y184000D01*
X193962Y149211D02*
X225173Y118000D01*
X259158Y149058D02*
X260500D01*
X246136Y136036D02*
X259158Y149058D01*
X246136Y128136D02*
Y136036D01*
X236000Y118000D02*
X246136Y128136D01*
X225173Y118000D02*
X236000D01*
X260500Y125000D02*
X261000D01*
X242500Y107000D02*
X260500Y125000D01*
X226981Y107000D02*
X242500D01*
X189366Y144615D02*
X226981Y107000D01*
X225189Y99600D02*
X260500D01*
X184769Y140019D02*
X225189Y99600D01*
X180173Y135423D02*
X240596Y75000D01*
X175577Y130827D02*
X222000Y84404D01*
Y62000D02*
Y84404D01*
Y62000D02*
X235200Y48800D01*
X259177D01*
X113000Y218000D02*
X125000Y230000D01*
X156515D01*
X113000Y211789D02*
Y218000D01*
X130000Y224000D02*
X159000D01*
X122129Y211987D02*
X129615Y204501D01*
X122129Y211987D02*
Y216129D01*
X130000Y224000D01*
X113000Y211789D02*
X125019Y199770D01*
X129615Y204366D02*
Y204501D01*
X143249Y218000D02*
X162000D01*
X134211Y208962D02*
X143249Y218000D01*
X131125Y212048D02*
X134211Y208962D01*
X132539Y174000D02*
X133000D01*
X115827Y190577D02*
X115962D01*
X132539Y174000D01*
X23000Y196000D02*
X23500D01*
X98856Y179971D02*
X102038Y176789D01*
X39529Y179971D02*
X98856D01*
X23500Y196000D02*
X39529Y179971D01*
X23000Y170600D02*
X27728Y165872D01*
X55000Y137000D02*
X89827D01*
X27728Y164272D02*
Y165872D01*
Y164272D02*
X55000Y137000D01*
X89827D02*
X102038Y149211D01*
X23000Y145200D02*
X23500D01*
X40700Y128000D01*
X90019D01*
X106634Y144615D01*
X183500Y63000D02*
X188500Y58000D01*
X157000Y63000D02*
X183500D01*
X155000Y86000D02*
X168929Y99929D01*
X161789Y117038D02*
X168929Y109898D01*
Y99929D02*
Y109898D01*
X161789Y117038D02*
Y117038D01*
X172000Y86000D02*
X180000Y94000D01*
X166385Y121499D02*
X180000Y107884D01*
Y94000D02*
Y107884D01*
X166385Y121499D02*
Y121634D01*
X189000Y86000D02*
Y108211D01*
X170981Y126230D02*
X189000Y108211D01*
X240596Y75000D02*
X260200D01*
X180173Y135423D02*
X180173D01*
D41*
X114500Y466900D02*
Y478000D01*
X169500Y466900D02*
Y478000D01*
D42*
X231000Y153250D02*
Y168000D01*
X119500Y19000D02*
X137000D01*
X167000D02*
X184500D01*
X222000Y320000D02*
X223000Y319000D01*
X221000Y339000D02*
X222000Y338000D01*
Y320000D02*
Y338000D01*
X68000Y289000D02*
X83000D01*
X204000Y304500D02*
X205000Y303500D01*
X176000Y306000D02*
X177500Y304500D01*
X204000D01*
X70000Y353000D02*
Y366750D01*
X111000Y306000D02*
X176000D01*
X111000Y261000D02*
X176000D01*
X199476Y17103D02*
Y50103D01*
X221000Y355000D02*
Y370750D01*
X104500Y19000D02*
Y52000D01*
X110500Y58000D01*
D43*
X140230Y330764D02*
Y454205D01*
X136000Y458435D02*
X140230Y454205D01*
X136000Y458435D02*
Y458936D01*
X139120Y466520D02*
X139500Y466900D01*
X139120Y462056D02*
Y466520D01*
X136000Y458936D02*
X139120Y462056D01*
X260500Y149058D02*
Y150400D01*
X261000D01*
X161789Y117038D02*
X164971Y113856D01*
X260200Y75000D02*
X261000Y74200D01*
X258108Y122108D02*
X261000Y125000D01*
X189000Y86000D02*
X190000Y87000D01*
X257200Y205000D02*
X261000Y201200D01*
X260500Y226600D02*
X261000D01*
X260406Y277994D02*
X261000Y277400D01*
X125867Y208114D02*
X129615Y204366D01*
X123886Y208114D02*
X125867D01*
X218000Y384250D02*
X221000Y387250D01*
X111019Y185981D02*
X111230D01*
X199500Y19000D02*
X202000Y21500D01*
X188500Y58000D02*
X193270D01*
X202000Y49270D01*
X144120Y466520D02*
X144500Y466900D01*
X138000Y477981D02*
Y478000D01*
Y477981D02*
X144120Y471861D01*
Y467280D02*
Y471861D01*
X129500Y466900D02*
X129750Y467150D01*
Y477750D02*
X130000Y478000D01*
X129750Y467150D02*
Y477750D01*
X144120Y463760D02*
Y466520D01*
X143770Y463410D02*
X144120Y463760D01*
X143770Y332230D02*
Y463410D01*
X180920Y324000D02*
X189310Y332390D01*
Y338742D01*
X187822Y340230D02*
X189310Y338742D01*
X185146Y340230D02*
X187822D01*
X192850Y330924D02*
Y340208D01*
X183666Y338750D02*
X185146Y340230D01*
X152000Y324000D02*
X180920D01*
X182386Y320460D02*
X192850Y330924D01*
X189288Y343770D02*
X192850Y340208D01*
X183666Y345250D02*
X185146Y343770D01*
X150534Y320460D02*
X182386D01*
X177750Y338750D02*
X183666D01*
X185146Y343770D02*
X189288D01*
X177750Y345250D02*
X183666D01*
X143770Y332230D02*
X152000Y324000D01*
X140230Y330764D02*
X150534Y320460D01*
D44*
X111000Y261000D02*
D03*
X176000D02*
D03*
Y306000D02*
D03*
X111000D02*
D03*
D45*
X261000Y379000D02*
D03*
X23000Y43600D02*
D03*
D46*
X261000Y353600D02*
D03*
Y328200D02*
D03*
Y302800D02*
D03*
Y277400D02*
D03*
Y252000D02*
D03*
Y226600D02*
D03*
Y201200D02*
D03*
Y175800D02*
D03*
Y150400D02*
D03*
Y125000D02*
D03*
Y99600D02*
D03*
Y74200D02*
D03*
Y48800D02*
D03*
X23000Y69000D02*
D03*
Y94400D02*
D03*
Y119800D02*
D03*
Y145200D02*
D03*
Y170600D02*
D03*
Y196000D02*
D03*
Y221400D02*
D03*
Y246800D02*
D03*
Y272200D02*
D03*
Y297600D02*
D03*
Y323000D02*
D03*
Y348400D02*
D03*
Y373800D02*
D03*
D47*
X98100Y489500D02*
D03*
X185900D02*
D03*
D48*
X158000Y487000D02*
D03*
X150000D02*
D03*
X169500Y478000D02*
D03*
X166000Y487000D02*
D03*
X154000Y478000D02*
D03*
X146000D02*
D03*
X138000D02*
D03*
X130000D02*
D03*
X134000Y487000D02*
D03*
X126000D02*
D03*
X118000D02*
D03*
X114500Y478000D02*
D03*
D49*
X184950Y469700D02*
D03*
X99050D02*
D03*
X187750Y520000D02*
D03*
X96250D02*
D03*
D50*
X88000Y377000D02*
D03*
X121000Y417000D02*
D03*
X195000Y407000D02*
D03*
X199000Y376000D02*
D03*
X201000Y366000D02*
D03*
X204000Y358000D02*
D03*
X115565Y117000D02*
D03*
X185000Y204000D02*
D03*
X170000Y180000D02*
D03*
X180000Y172000D02*
D03*
X131000Y141000D02*
D03*
X122000Y151000D02*
D03*
X106000Y126000D02*
D03*
X136000Y458435D02*
D03*
X167000Y19000D02*
D03*
X137000D02*
D03*
X154000Y384000D02*
D03*
X129000Y383500D02*
D03*
X223000Y319000D02*
D03*
X68000Y289000D02*
D03*
X79000Y399000D02*
D03*
X204000D02*
D03*
X65000Y242000D02*
D03*
X50000Y228000D02*
D03*
X133000Y174000D02*
D03*
X189000Y86000D02*
D03*
X172000D02*
D03*
X155000D02*
D03*
M02*
