G04*
G04 #@! TF.GenerationSoftware,Altium Limited,Altium Designer,20.0.13 (296)*
G04*
G04 Layer_Color=16711935*
%FSLAX44Y44*%
%MOMM*%
G71*
G01*
G75*
%ADD13C,0.1000*%
D13*
X128000Y424500D02*
G03*
X128000Y424500I-5000J0D01*
G01*
X116230Y163000D02*
G03*
X116230Y163000I-5000J0D01*
G01*
X210500Y301500D02*
Y320500D01*
X199500Y301500D02*
Y320500D01*
X210500D01*
X199500Y301500D02*
X210500D01*
X226172Y211607D02*
X239607Y198172D01*
X218393Y203828D02*
X231828Y190393D01*
X239607Y198172D01*
X218393Y203828D02*
X226172Y211607D01*
X213172Y198607D02*
X226607Y185172D01*
X205393Y190828D02*
X218828Y177393D01*
X226607Y185172D01*
X205393Y190828D02*
X213172Y198607D01*
X216500Y338000D02*
X225500D01*
X216500Y356000D02*
X225500D01*
X216500Y338000D02*
Y356000D01*
X225500Y338000D02*
Y356000D01*
X65500Y336000D02*
X74500D01*
X65500Y354000D02*
X74500D01*
X65500Y336000D02*
Y354000D01*
X74500Y336000D02*
Y354000D01*
X134500Y432500D02*
Y443500D01*
X115500Y432500D02*
Y443500D01*
X134500D01*
X115500Y432500D02*
X134500D01*
X147500Y418500D02*
X158500D01*
X147500Y399500D02*
X158500D01*
X147500D02*
Y418500D01*
X158500Y399500D02*
Y418500D01*
X149500Y432500D02*
Y443500D01*
X168500Y432500D02*
Y443500D01*
X149500Y432500D02*
X168500D01*
X149500Y443500D02*
X168500D01*
X114000Y328500D02*
Y433500D01*
X170000Y328500D02*
Y433500D01*
X114000D02*
X170000D01*
X114000Y328500D02*
X170000D01*
X148000Y113503D02*
X197498Y163000D01*
X98503D02*
X148000Y212498D01*
X197498Y163000D01*
X98503D02*
X148000Y113503D01*
X79500Y271000D02*
X88500D01*
X79500Y289000D02*
X88500D01*
X79500Y271000D02*
Y289000D01*
X88500Y271000D02*
Y289000D01*
X226500Y167000D02*
X235500D01*
X226500Y185000D02*
X235500D01*
X226500Y167000D02*
Y185000D01*
X235500Y167000D02*
Y185000D01*
X58454Y216182D02*
X64818Y222546D01*
X71182Y203454D02*
X77546Y209818D01*
X64818Y222546D02*
X77546Y209818D01*
X58454Y216182D02*
X71182Y203454D01*
X72454Y229182D02*
X78818Y235546D01*
X85182Y216454D02*
X91546Y222818D01*
X78818Y235546D02*
X91546Y222818D01*
X72454Y229182D02*
X85182Y216454D01*
X227000Y136000D02*
Y154000D01*
X235000Y136000D02*
Y154000D01*
X227000Y136000D02*
X235000D01*
X227000Y154000D02*
X235000D01*
X74000Y366000D02*
Y384000D01*
X66000Y366000D02*
Y384000D01*
X74000D01*
X66000Y366000D02*
X74000D01*
X225000Y370000D02*
Y388000D01*
X217000Y370000D02*
Y388000D01*
X225000D01*
X217000Y370000D02*
X225000D01*
X182500Y13500D02*
Y24500D01*
X201500Y13500D02*
Y24500D01*
X182500D02*
X201500D01*
X182500Y13500D02*
X201500D01*
X121500Y13500D02*
Y24500D01*
X102500Y13500D02*
Y24500D01*
Y13500D02*
X121500D01*
X102500Y24500D02*
X121500D01*
X129500Y333000D02*
X138500D01*
X129500Y351000D02*
X138500D01*
Y333000D02*
Y351000D01*
X129500Y333000D02*
Y351000D01*
X127500Y418500D02*
X138500D01*
X127500Y399500D02*
X138500D01*
X127500D02*
Y418500D01*
X138500Y399500D02*
Y418500D01*
M02*
