G04*
G04 #@! TF.GenerationSoftware,Altium Limited,Altium Designer,20.0.13 (296)*
G04*
G04 Layer_Color=16711935*
%FSLAX44Y44*%
%MOMM*%
G71*
G01*
G75*
%ADD24R,1.5032X1.2032*%
%ADD25R,1.2032X1.2032*%
%ADD33R,1.2032X1.5032*%
%ADD34C,2.0032*%
%ADD35R,1.7032X1.7032*%
G04:AMPARAMS|DCode=36|XSize=1.8032mm|YSize=1.7032mm|CornerRadius=0.4766mm|HoleSize=0mm|Usage=FLASHONLY|Rotation=180.000|XOffset=0mm|YOffset=0mm|HoleType=Round|Shape=RoundedRectangle|*
%AMROUNDEDRECTD36*
21,1,1.8032,0.7500,0,0,180.0*
21,1,0.8500,1.7032,0,0,180.0*
1,1,0.9532,-0.4250,0.3750*
1,1,0.9532,0.4250,0.3750*
1,1,0.9532,0.4250,-0.3750*
1,1,0.9532,-0.4250,-0.3750*
%
%ADD36ROUNDEDRECTD36*%
%ADD37O,1.5332X2.1832*%
%ADD38C,0.8832*%
%ADD39O,1.1532X2.0032*%
G04:AMPARAMS|DCode=52|XSize=1.5032mm|YSize=1.2032mm|CornerRadius=0mm|HoleSize=0mm|Usage=FLASHONLY|Rotation=225.000|XOffset=0mm|YOffset=0mm|HoleType=Round|Shape=Rectangle|*
%AMROTATEDRECTD52*
4,1,4,0.1061,0.9569,0.9569,0.1061,-0.1061,-0.9569,-0.9569,-0.1061,0.1061,0.9569,0.0*
%
%ADD52ROTATEDRECTD52*%

D24*
X153000Y416500D02*
D03*
Y401500D02*
D03*
X133000Y416500D02*
D03*
Y401500D02*
D03*
D25*
X134000Y334000D02*
D03*
Y350000D02*
D03*
D33*
X132500Y438000D02*
D03*
X117500D02*
D03*
X151500D02*
D03*
X166500D02*
D03*
D34*
X111000Y261000D02*
D03*
X176000D02*
D03*
Y306000D02*
D03*
X111000D02*
D03*
D35*
X261000Y379000D02*
D03*
X23000Y43600D02*
D03*
D36*
X261000Y353600D02*
D03*
Y328200D02*
D03*
Y302800D02*
D03*
Y277400D02*
D03*
Y252000D02*
D03*
Y226600D02*
D03*
Y201200D02*
D03*
Y175800D02*
D03*
Y150400D02*
D03*
Y125000D02*
D03*
Y99600D02*
D03*
Y74200D02*
D03*
Y48800D02*
D03*
X23000Y69000D02*
D03*
Y94400D02*
D03*
Y119800D02*
D03*
Y145200D02*
D03*
Y170600D02*
D03*
Y196000D02*
D03*
Y221400D02*
D03*
Y246800D02*
D03*
Y272200D02*
D03*
Y297600D02*
D03*
Y323000D02*
D03*
Y348400D02*
D03*
Y373800D02*
D03*
D37*
X98100Y489500D02*
D03*
X185900D02*
D03*
D38*
X158000Y487000D02*
D03*
X150000D02*
D03*
X169500Y478000D02*
D03*
X166000Y487000D02*
D03*
X154000Y478000D02*
D03*
X146000D02*
D03*
X138000D02*
D03*
X130000D02*
D03*
X134000Y487000D02*
D03*
X126000D02*
D03*
X118000D02*
D03*
X114500Y478000D02*
D03*
D39*
X184950Y469700D02*
D03*
X99050D02*
D03*
X187750Y520000D02*
D03*
X96250D02*
D03*
D52*
X234303Y195697D02*
D03*
X223697Y206303D02*
D03*
X221303Y182697D02*
D03*
X210697Y193303D02*
D03*
M02*
