G04*
G04 #@! TF.GenerationSoftware,Altium Limited,Altium Designer,20.0.13 (296)*
G04*
G04 Layer_Color=8388736*
%FSLAX44Y44*%
%MOMM*%
G71*
G01*
G75*
%ADD24R,1.5032X1.2032*%
%ADD25R,1.2032X1.2032*%
%ADD26O,1.7532X0.7032*%
%ADD27R,5.7032X2.2032*%
G04:AMPARAMS|DCode=28|XSize=0.7532mm|YSize=1.6532mm|CornerRadius=0mm|HoleSize=0mm|Usage=FLASHONLY|Rotation=45.000|XOffset=0mm|YOffset=0mm|HoleType=Round|Shape=Round|*
%AMOVALD28*
21,1,0.9000,0.7532,0.0000,0.0000,135.0*
1,1,0.7532,0.3182,-0.3182*
1,1,0.7532,-0.3182,0.3182*
%
%ADD28OVALD28*%

G04:AMPARAMS|DCode=29|XSize=0.7532mm|YSize=1.6532mm|CornerRadius=0mm|HoleSize=0mm|Usage=FLASHONLY|Rotation=135.000|XOffset=0mm|YOffset=0mm|HoleType=Round|Shape=Round|*
%AMOVALD29*
21,1,0.9000,0.7532,0.0000,0.0000,225.0*
1,1,0.7532,0.3182,0.3182*
1,1,0.7532,-0.3182,-0.3182*
%
%ADD29OVALD29*%

%ADD30P,1.7016X4X90.0*%
%ADD31R,0.5332X0.9332*%
%ADD32R,1.2032X1.1032*%
%ADD33R,1.2032X1.5032*%
%ADD34C,2.0032*%
%ADD35R,1.7032X1.7032*%
G04:AMPARAMS|DCode=36|XSize=1.8032mm|YSize=1.7032mm|CornerRadius=0.4766mm|HoleSize=0mm|Usage=FLASHONLY|Rotation=180.000|XOffset=0mm|YOffset=0mm|HoleType=Round|Shape=RoundedRectangle|*
%AMROUNDEDRECTD36*
21,1,1.8032,0.7500,0,0,180.0*
21,1,0.8500,1.7032,0,0,180.0*
1,1,0.9532,-0.4250,0.3750*
1,1,0.9532,0.4250,0.3750*
1,1,0.9532,0.4250,-0.3750*
1,1,0.9532,-0.4250,-0.3750*
%
%ADD36ROUNDEDRECTD36*%
%ADD37O,1.5332X2.1832*%
%ADD38C,0.8832*%
%ADD39O,1.1532X2.0032*%
D24*
X205000Y318500D02*
D03*
Y303500D02*
D03*
D25*
X221000Y339000D02*
D03*
Y355000D02*
D03*
X70000Y337000D02*
D03*
Y353000D02*
D03*
X84000Y272000D02*
D03*
Y288000D02*
D03*
X231000Y168000D02*
D03*
Y184000D02*
D03*
D26*
X106250Y423250D02*
D03*
Y416750D02*
D03*
Y410250D02*
D03*
Y403750D02*
D03*
Y397250D02*
D03*
Y390750D02*
D03*
Y384250D02*
D03*
Y377750D02*
D03*
Y371250D02*
D03*
Y364750D02*
D03*
Y358250D02*
D03*
Y351750D02*
D03*
Y345250D02*
D03*
Y338750D02*
D03*
X177750Y423250D02*
D03*
Y416750D02*
D03*
Y410250D02*
D03*
Y403750D02*
D03*
Y397250D02*
D03*
Y390750D02*
D03*
Y384250D02*
D03*
Y377750D02*
D03*
Y371250D02*
D03*
Y364750D02*
D03*
Y358250D02*
D03*
Y351750D02*
D03*
Y345250D02*
D03*
Y338750D02*
D03*
D27*
X188500Y58000D02*
D03*
X113500D02*
D03*
D28*
X102038Y176789D02*
D03*
X106634Y181385D02*
D03*
X111230Y185981D02*
D03*
X115827Y190577D02*
D03*
X120423Y195173D02*
D03*
X125019Y199770D02*
D03*
X129615Y204366D02*
D03*
X134211Y208962D02*
D03*
X193962Y149211D02*
D03*
X189366Y144615D02*
D03*
X184769Y140019D02*
D03*
X180173Y135423D02*
D03*
X175577Y130827D02*
D03*
X170981Y126230D02*
D03*
X166385Y121634D02*
D03*
X161789Y117038D02*
D03*
D29*
Y208962D02*
D03*
X166385Y204366D02*
D03*
X170981Y199770D02*
D03*
X175577Y195173D02*
D03*
X180173Y190577D02*
D03*
X184769Y185981D02*
D03*
X189366Y181385D02*
D03*
X193962Y176789D02*
D03*
X134211Y117038D02*
D03*
X129615Y121634D02*
D03*
X125019Y126230D02*
D03*
X120423Y130827D02*
D03*
X115827Y135423D02*
D03*
X111230Y140019D02*
D03*
X106634Y144615D02*
D03*
X102038Y149211D02*
D03*
D30*
X62343Y218657D02*
D03*
X73657Y207343D02*
D03*
X76343Y231657D02*
D03*
X87657Y220343D02*
D03*
D31*
X149500Y466900D02*
D03*
X154500D02*
D03*
X159500D02*
D03*
X164500D02*
D03*
X169500D02*
D03*
X144500D02*
D03*
X139500D02*
D03*
X134500D02*
D03*
X129500D02*
D03*
X124500D02*
D03*
X119500D02*
D03*
X114500D02*
D03*
D32*
X231000Y136750D02*
D03*
Y153250D02*
D03*
X70000Y383250D02*
D03*
Y366750D02*
D03*
X221000Y387250D02*
D03*
Y370750D02*
D03*
D33*
X184500Y19000D02*
D03*
X199500D02*
D03*
X119500D02*
D03*
X104500D02*
D03*
D34*
X111000Y261000D02*
D03*
X176000D02*
D03*
Y306000D02*
D03*
X111000D02*
D03*
D35*
X261000Y379000D02*
D03*
X23000Y43600D02*
D03*
D36*
X261000Y353600D02*
D03*
Y328200D02*
D03*
Y302800D02*
D03*
Y277400D02*
D03*
Y252000D02*
D03*
Y226600D02*
D03*
Y201200D02*
D03*
Y175800D02*
D03*
Y150400D02*
D03*
Y125000D02*
D03*
Y99600D02*
D03*
Y74200D02*
D03*
Y48800D02*
D03*
X23000Y69000D02*
D03*
Y94400D02*
D03*
Y119800D02*
D03*
Y145200D02*
D03*
Y170600D02*
D03*
Y196000D02*
D03*
Y221400D02*
D03*
Y246800D02*
D03*
Y272200D02*
D03*
Y297600D02*
D03*
Y323000D02*
D03*
Y348400D02*
D03*
Y373800D02*
D03*
D37*
X98100Y489500D02*
D03*
X185900D02*
D03*
D38*
X158000Y487000D02*
D03*
X150000D02*
D03*
X169500Y478000D02*
D03*
X166000Y487000D02*
D03*
X154000Y478000D02*
D03*
X146000D02*
D03*
X138000D02*
D03*
X130000D02*
D03*
X134000Y487000D02*
D03*
X126000D02*
D03*
X118000D02*
D03*
X114500Y478000D02*
D03*
D39*
X184950Y469700D02*
D03*
X99050D02*
D03*
X187750Y520000D02*
D03*
X96250D02*
D03*
M02*
