G04*
G04 #@! TF.GenerationSoftware,Altium Limited,Altium Designer,20.0.13 (296)*
G04*
G04 Layer_Color=4011020*
%FSLAX44Y44*%
%MOMM*%
G71*
G01*
G75*
%ADD12C,0.2000*%
G36*
X208893Y306271D02*
X208883D01*
X208844D01*
X208785D01*
X208717Y306281D01*
X208639Y306291D01*
X208551Y306301D01*
X208454Y306330D01*
X208356Y306359D01*
X208347D01*
X208337Y306369D01*
X208278Y306389D01*
X208200Y306428D01*
X208083Y306486D01*
X207956Y306554D01*
X207810Y306652D01*
X207664Y306749D01*
X207508Y306876D01*
X207498D01*
X207488Y306896D01*
X207430Y306945D01*
X207342Y307023D01*
X207225Y307140D01*
X207088Y307286D01*
X206922Y307461D01*
X206737Y307676D01*
X206532Y307910D01*
X206523Y307920D01*
X206493Y307959D01*
X206454Y308008D01*
X206386Y308076D01*
X206318Y308164D01*
X206230Y308261D01*
X206045Y308476D01*
X205820Y308710D01*
X205596Y308944D01*
X205489Y309061D01*
X205381Y309159D01*
X205274Y309246D01*
X205177Y309324D01*
X205167D01*
X205157Y309344D01*
X205128Y309363D01*
X205089Y309383D01*
X204991Y309442D01*
X204865Y309510D01*
X204718Y309578D01*
X204562Y309636D01*
X204387Y309676D01*
X204221Y309695D01*
X204211D01*
X204201D01*
X204143Y309685D01*
X204055Y309676D01*
X203948Y309656D01*
X203821Y309607D01*
X203694Y309549D01*
X203557Y309471D01*
X203431Y309354D01*
X203421Y309334D01*
X203382Y309295D01*
X203333Y309217D01*
X203265Y309120D01*
X203206Y308993D01*
X203158Y308846D01*
X203119Y308671D01*
X203109Y308476D01*
Y308417D01*
X203119Y308378D01*
X203128Y308281D01*
X203148Y308154D01*
X203197Y308008D01*
X203255Y307852D01*
X203343Y307705D01*
X203460Y307569D01*
X203479Y307559D01*
X203519Y307520D01*
X203596Y307461D01*
X203704Y307403D01*
X203840Y307335D01*
X203996Y307286D01*
X204182Y307247D01*
X204396Y307227D01*
X204308Y306418D01*
X204299D01*
X204270D01*
X204221Y306428D01*
X204162Y306437D01*
X204084Y306457D01*
X203996Y306467D01*
X203801Y306525D01*
X203577Y306603D01*
X203353Y306710D01*
X203128Y306857D01*
X203031Y306935D01*
X202933Y307032D01*
X202924Y307042D01*
X202914Y307062D01*
X202885Y307091D01*
X202855Y307130D01*
X202826Y307188D01*
X202777Y307257D01*
X202738Y307335D01*
X202689Y307423D01*
X202650Y307520D01*
X202602Y307627D01*
X202563Y307754D01*
X202533Y307881D01*
X202475Y308174D01*
X202465Y308330D01*
X202455Y308495D01*
Y308583D01*
X202465Y308651D01*
X202475Y308729D01*
X202485Y308817D01*
X202494Y308915D01*
X202524Y309022D01*
X202582Y309256D01*
X202670Y309500D01*
X202728Y309627D01*
X202797Y309744D01*
X202885Y309851D01*
X202972Y309958D01*
X202982Y309968D01*
X202992Y309978D01*
X203021Y310007D01*
X203060Y310046D01*
X203119Y310085D01*
X203177Y310134D01*
X203323Y310231D01*
X203509Y310329D01*
X203723Y310417D01*
X203967Y310485D01*
X204104Y310495D01*
X204240Y310505D01*
X204260D01*
X204308D01*
X204387Y310495D01*
X204484Y310485D01*
X204601Y310466D01*
X204728Y310436D01*
X204865Y310397D01*
X205001Y310339D01*
X205021Y310329D01*
X205069Y310310D01*
X205138Y310271D01*
X205235Y310212D01*
X205352Y310144D01*
X205489Y310056D01*
X205625Y309939D01*
X205781Y309812D01*
X205801Y309793D01*
X205859Y309744D01*
X205947Y309656D01*
X206006Y309597D01*
X206074Y309529D01*
X206152Y309451D01*
X206240Y309354D01*
X206327Y309256D01*
X206435Y309149D01*
X206542Y309032D01*
X206659Y308895D01*
X206776Y308759D01*
X206913Y308603D01*
X206922Y308593D01*
X206942Y308573D01*
X206971Y308534D01*
X207010Y308486D01*
X207108Y308369D01*
X207235Y308222D01*
X207371Y308076D01*
X207508Y307920D01*
X207625Y307793D01*
X207673Y307744D01*
X207722Y307696D01*
X207732Y307686D01*
X207761Y307666D01*
X207800Y307627D01*
X207859Y307579D01*
X207986Y307471D01*
X208142Y307364D01*
Y310514D01*
X208893D01*
Y306271D01*
D02*
G37*
G36*
X206913Y305647D02*
X206961Y305628D01*
X207040Y305608D01*
X207118Y305569D01*
X207225Y305530D01*
X207332Y305491D01*
X207449Y305433D01*
X207712Y305306D01*
X207976Y305130D01*
X208230Y304935D01*
X208347Y304818D01*
X208454Y304692D01*
X208463Y304682D01*
X208473Y304662D01*
X208503Y304623D01*
X208542Y304565D01*
X208581Y304496D01*
X208629Y304418D01*
X208678Y304331D01*
X208727Y304223D01*
X208776Y304106D01*
X208824Y303979D01*
X208873Y303833D01*
X208912Y303687D01*
X208981Y303365D01*
X208990Y303189D01*
X209000Y303004D01*
Y302907D01*
X208990Y302829D01*
Y302741D01*
X208981Y302643D01*
X208961Y302526D01*
X208951Y302409D01*
X208893Y302136D01*
X208824Y301853D01*
X208717Y301580D01*
X208659Y301444D01*
X208581Y301317D01*
X208571Y301307D01*
X208561Y301287D01*
X208532Y301258D01*
X208503Y301209D01*
X208405Y301092D01*
X208269Y300956D01*
X208103Y300790D01*
X207888Y300634D01*
X207644Y300468D01*
X207361Y300332D01*
X207352D01*
X207322Y300322D01*
X207283Y300302D01*
X207225Y300283D01*
X207147Y300254D01*
X207059Y300224D01*
X206961Y300195D01*
X206844Y300166D01*
X206727Y300137D01*
X206591Y300107D01*
X206298Y300049D01*
X205986Y300010D01*
X205645Y300000D01*
X205635D01*
X205596D01*
X205547D01*
X205479Y300010D01*
X205391D01*
X205284Y300019D01*
X205177Y300029D01*
X205050Y300049D01*
X204777Y300098D01*
X204484Y300156D01*
X204182Y300254D01*
X203899Y300380D01*
X203889D01*
X203870Y300400D01*
X203831Y300419D01*
X203772Y300449D01*
X203713Y300488D01*
X203645Y300536D01*
X203479Y300663D01*
X203294Y300809D01*
X203109Y300995D01*
X202924Y301219D01*
X202767Y301463D01*
Y301473D01*
X202748Y301492D01*
X202728Y301531D01*
X202709Y301590D01*
X202680Y301648D01*
X202641Y301726D01*
X202611Y301824D01*
X202572Y301921D01*
X202533Y302029D01*
X202504Y302146D01*
X202436Y302409D01*
X202397Y302702D01*
X202377Y303014D01*
Y303111D01*
X202387Y303180D01*
X202397Y303258D01*
X202407Y303355D01*
X202416Y303463D01*
X202436Y303580D01*
X202494Y303833D01*
X202582Y304106D01*
X202641Y304243D01*
X202709Y304379D01*
X202787Y304506D01*
X202875Y304633D01*
X202885Y304643D01*
X202894Y304662D01*
X202924Y304692D01*
X202962Y304740D01*
X203011Y304789D01*
X203080Y304857D01*
X203148Y304926D01*
X203226Y304994D01*
X203323Y305072D01*
X203421Y305140D01*
X203538Y305218D01*
X203665Y305296D01*
X203792Y305364D01*
X203938Y305433D01*
X204250Y305550D01*
X204445Y304711D01*
X204435D01*
X204416Y304701D01*
X204377Y304692D01*
X204328Y304672D01*
X204270Y304643D01*
X204201Y304613D01*
X204055Y304545D01*
X203889Y304457D01*
X203713Y304340D01*
X203557Y304214D01*
X203421Y304058D01*
X203411Y304038D01*
X203372Y303979D01*
X203323Y303892D01*
X203255Y303765D01*
X203197Y303619D01*
X203148Y303433D01*
X203109Y303228D01*
X203099Y302994D01*
Y302926D01*
X203109Y302877D01*
Y302809D01*
X203119Y302741D01*
X203148Y302565D01*
X203187Y302370D01*
X203255Y302165D01*
X203343Y301961D01*
X203460Y301765D01*
Y301756D01*
X203479Y301746D01*
X203528Y301687D01*
X203606Y301600D01*
X203713Y301492D01*
X203850Y301385D01*
X204006Y301268D01*
X204201Y301161D01*
X204416Y301073D01*
X204426D01*
X204445Y301063D01*
X204474Y301053D01*
X204523Y301044D01*
X204572Y301024D01*
X204640Y301014D01*
X204796Y300975D01*
X204981Y300936D01*
X205186Y300907D01*
X205411Y300888D01*
X205645Y300878D01*
X205655D01*
X205684D01*
X205723D01*
X205781D01*
X205850Y300888D01*
X205937D01*
X206025Y300897D01*
X206123Y300907D01*
X206347Y300936D01*
X206591Y300975D01*
X206835Y301034D01*
X207069Y301112D01*
X207078D01*
X207098Y301122D01*
X207127Y301141D01*
X207166Y301161D01*
X207283Y301209D01*
X207410Y301287D01*
X207566Y301395D01*
X207712Y301521D01*
X207859Y301668D01*
X207986Y301843D01*
Y301853D01*
X207995Y301863D01*
X208015Y301892D01*
X208034Y301931D01*
X208073Y302038D01*
X208132Y302175D01*
X208181Y302331D01*
X208230Y302516D01*
X208269Y302721D01*
X208278Y302936D01*
Y303004D01*
X208269Y303053D01*
Y303111D01*
X208259Y303189D01*
X208230Y303355D01*
X208181Y303540D01*
X208103Y303745D01*
X208005Y303940D01*
X207869Y304135D01*
X207859Y304145D01*
X207849Y304155D01*
X207791Y304214D01*
X207693Y304301D01*
X207566Y304409D01*
X207391Y304516D01*
X207186Y304633D01*
X206932Y304730D01*
X206649Y304809D01*
X206864Y305657D01*
X206874D01*
X206913Y305647D01*
D02*
G37*
G36*
X224554Y210400D02*
X224609Y210386D01*
X224650D01*
X224671Y210379D01*
X224685D01*
X224830Y210345D01*
X224967Y210289D01*
X225236Y210172D01*
X225485Y210020D01*
X225719Y209869D01*
X225809Y209793D01*
X225905Y209724D01*
X225981Y209662D01*
X226043Y209600D01*
X226105Y209551D01*
X226174Y209482D01*
X226299Y209344D01*
X226416Y209213D01*
X226595Y208937D01*
X226671Y208806D01*
X226740Y208668D01*
X226795Y208544D01*
X226843Y208427D01*
X226885Y208317D01*
X226912Y208220D01*
X226933Y208131D01*
X226954Y208055D01*
X226968Y207986D01*
X226975Y207938D01*
X226981Y207917D01*
Y207903D01*
X226995Y207738D01*
Y207572D01*
X226954Y207255D01*
X226892Y206944D01*
X226795Y206668D01*
X226754Y206544D01*
X226705Y206441D01*
X226657Y206337D01*
X226630Y206255D01*
X226588Y206186D01*
X226567Y206137D01*
X226547Y206103D01*
X226540Y206096D01*
X225788Y206544D01*
X225933Y206800D01*
X226043Y207048D01*
X226105Y207275D01*
X226154Y207475D01*
X226168Y207641D01*
X226174Y207772D01*
Y207855D01*
Y207868D01*
Y207882D01*
X226133Y208117D01*
X226064Y208324D01*
X225974Y208524D01*
X225878Y208689D01*
X225781Y208827D01*
X225733Y208889D01*
X225692Y208931D01*
X225664Y208972D01*
X225616Y209020D01*
X225457Y209165D01*
X225285Y209282D01*
X225119Y209379D01*
X224974Y209455D01*
X224836Y209510D01*
X224733Y209558D01*
X224692Y209572D01*
X224657Y209579D01*
X224643D01*
X224636Y209586D01*
X224423Y209620D01*
X224216D01*
X224023Y209606D01*
X223836Y209572D01*
X223692Y209538D01*
X223574Y209489D01*
X223533Y209475D01*
X223498Y209469D01*
X223478Y209462D01*
X223471Y209455D01*
X223250Y209344D01*
X223036Y209213D01*
X222836Y209069D01*
X222657Y208931D01*
X222581Y208869D01*
X222512Y208813D01*
X222450Y208751D01*
X222395Y208710D01*
X222354Y208668D01*
X222326Y208641D01*
X222305Y208620D01*
X222298Y208613D01*
X222140Y208441D01*
X221995Y208269D01*
X221871Y208103D01*
X221767Y207944D01*
X221685Y207806D01*
X221643Y207751D01*
X221623Y207703D01*
X221595Y207662D01*
X221581Y207634D01*
X221574Y207613D01*
X221567Y207606D01*
X221478Y207393D01*
X221416Y207179D01*
X221388Y206986D01*
X221367Y206813D01*
Y206662D01*
X221374Y206544D01*
X221381Y206469D01*
X221374Y206448D01*
X221381Y206441D01*
X221436Y206220D01*
X221519Y206013D01*
X221616Y205820D01*
X221726Y205655D01*
X221829Y205510D01*
X221871Y205455D01*
X221919Y205406D01*
X221947Y205365D01*
X221995Y205317D01*
X222167Y205158D01*
X222340Y205041D01*
X222505Y204944D01*
X222650Y204882D01*
X222788Y204841D01*
X222885Y204813D01*
X222954Y204799D01*
X222974Y204792D01*
X223181Y204779D01*
X223381Y204799D01*
X223588Y204841D01*
X223767Y204896D01*
X223919Y204951D01*
X223988Y204979D01*
X224050Y204999D01*
X224098Y205020D01*
X224133Y205041D01*
X224154Y205048D01*
X224160Y205055D01*
X224616Y204324D01*
X224312Y204186D01*
X224160Y204130D01*
X224023Y204089D01*
X223878Y204055D01*
X223740Y204027D01*
X223623Y204006D01*
X223498Y203993D01*
X223395Y203986D01*
X223133D01*
X223071Y203993D01*
X223029D01*
X223009Y203999D01*
X222995D01*
X222843Y204027D01*
X222698Y204062D01*
X222554Y204110D01*
X222416Y204165D01*
X222160Y204296D01*
X221940Y204434D01*
X221843Y204503D01*
X221760Y204572D01*
X221685Y204634D01*
X221623Y204682D01*
X221567Y204724D01*
X221498Y204792D01*
X221292Y205027D01*
X221112Y205261D01*
X220974Y205496D01*
X220912Y205599D01*
X220864Y205703D01*
X220823Y205800D01*
X220774Y205889D01*
X220747Y205972D01*
X220726Y206034D01*
X220698Y206089D01*
X220685Y206131D01*
Y206158D01*
X220678Y206165D01*
X220616Y206448D01*
X220588Y206737D01*
Y206999D01*
X220616Y207234D01*
X220643Y207441D01*
X220657Y207524D01*
X220671Y207593D01*
X220691Y207655D01*
X220705Y207696D01*
Y207724D01*
X220712Y207731D01*
X220823Y208020D01*
X220967Y208303D01*
X221133Y208551D01*
X221292Y208779D01*
X221367Y208882D01*
X221436Y208965D01*
X221505Y209048D01*
X221567Y209110D01*
X221609Y209165D01*
X221643Y209200D01*
X221671Y209227D01*
X221678Y209234D01*
X221926Y209469D01*
X222174Y209662D01*
X222423Y209827D01*
X222540Y209903D01*
X222643Y209965D01*
X222747Y210027D01*
X222836Y210075D01*
X222919Y210117D01*
X222995Y210151D01*
X223050Y210179D01*
X223092Y210193D01*
X223119Y210207D01*
X223126Y210213D01*
X223423Y210317D01*
X223712Y210372D01*
X223974Y210413D01*
X224402D01*
X224554Y210400D01*
D02*
G37*
G36*
X228988Y206282D02*
X229195Y206213D01*
X229395Y206124D01*
X229568Y206020D01*
X229713Y205917D01*
X229775Y205868D01*
X229816Y205827D01*
X229864Y205793D01*
X229912Y205744D01*
X230078Y205551D01*
X230223Y205351D01*
X230326Y205165D01*
X230409Y204986D01*
X230464Y204834D01*
X230485Y204772D01*
X230499Y204717D01*
X230513Y204662D01*
X230526Y204634D01*
X230519Y204613D01*
X230526Y204606D01*
X230547Y204365D01*
X230533Y204130D01*
X230499Y203903D01*
X230450Y203689D01*
X230402Y203517D01*
X230375Y203448D01*
X230347Y203379D01*
X230326Y203330D01*
X230312Y203289D01*
X230306Y203268D01*
X230299Y203261D01*
X230230Y203123D01*
X230154Y202992D01*
X229975Y202717D01*
X229775Y202448D01*
X229582Y202199D01*
X229485Y202089D01*
X229402Y201992D01*
X229312Y201903D01*
X229250Y201827D01*
X229188Y201765D01*
X229147Y201723D01*
X229112Y201689D01*
X229106Y201682D01*
X228954Y201530D01*
X228802Y201392D01*
X228657Y201275D01*
X228526Y201158D01*
X228402Y201061D01*
X228278Y200979D01*
X228168Y200896D01*
X228064Y200834D01*
X227968Y200779D01*
X227885Y200723D01*
X227816Y200682D01*
X227754Y200661D01*
X227712Y200634D01*
X227671Y200620D01*
X227650Y200613D01*
X227643Y200606D01*
X227409Y200523D01*
X227181Y200475D01*
X226975Y200461D01*
X226781Y200448D01*
X226623Y200454D01*
X226506Y200461D01*
X226464Y200475D01*
X226430Y200482D01*
X226409Y200475D01*
X226402Y200482D01*
X226181Y200537D01*
X225981Y200627D01*
X225809Y200716D01*
X225650Y200806D01*
X225526Y200903D01*
X225471Y200944D01*
X225436Y200979D01*
X225395Y201006D01*
X225354Y201048D01*
X225250Y201165D01*
X225154Y201289D01*
X225071Y201413D01*
X224995Y201530D01*
X224892Y201772D01*
X224857Y201889D01*
X224823Y201992D01*
X224795Y202103D01*
X224781Y202199D01*
X224767Y202282D01*
X224761Y202344D01*
X224754Y202406D01*
Y202448D01*
Y202475D01*
Y202489D01*
X224767Y202641D01*
X224788Y202785D01*
X224823Y202930D01*
X224878Y203068D01*
X224926Y203199D01*
X224988Y203330D01*
X225112Y203551D01*
X225181Y203648D01*
X225243Y203737D01*
X225305Y203813D01*
X225354Y203875D01*
X225395Y203930D01*
X225436Y203972D01*
X225457Y203993D01*
X225464Y203999D01*
X225595Y204117D01*
X225719Y204227D01*
X225843Y204310D01*
X225974Y204386D01*
X226099Y204455D01*
X226223Y204510D01*
X226340Y204558D01*
X226443Y204592D01*
X226547Y204627D01*
X226637Y204648D01*
X226719Y204662D01*
X226788Y204675D01*
X226850Y204682D01*
X226892D01*
X226912Y204689D01*
X226926D01*
X227071Y204682D01*
X227209Y204668D01*
X227347Y204641D01*
X227471Y204613D01*
X227595Y204572D01*
X227705Y204531D01*
X227906Y204427D01*
X228064Y204324D01*
X228126Y204275D01*
X228181Y204234D01*
X228230Y204199D01*
X228285Y204144D01*
X228402Y204013D01*
X228499Y203875D01*
X228581Y203751D01*
X228637Y203627D01*
X228685Y203524D01*
X228726Y203441D01*
X228740Y203386D01*
X228747Y203365D01*
X228781Y203193D01*
X228802Y203034D01*
X228809Y202875D01*
X228802Y202744D01*
Y202634D01*
X228781Y202544D01*
Y202489D01*
X228775Y202468D01*
X228823Y202517D01*
X228857Y202551D01*
X228878Y202572D01*
X228885Y202579D01*
X229016Y202710D01*
X229126Y202848D01*
X229223Y202972D01*
X229312Y203089D01*
X229388Y203193D01*
X229443Y203275D01*
X229457Y203303D01*
X229478Y203323D01*
Y203337D01*
X229485Y203344D01*
X229568Y203496D01*
X229637Y203634D01*
X229692Y203758D01*
X229740Y203862D01*
X229768Y203958D01*
X229795Y204027D01*
X229809Y204068D01*
Y204082D01*
X229830Y204199D01*
X229837Y204317D01*
X229844Y204420D01*
X229830Y204517D01*
X229823Y204592D01*
X229816Y204655D01*
X229802Y204696D01*
Y204710D01*
X229768Y204827D01*
X229719Y204930D01*
X229664Y205027D01*
X229609Y205110D01*
X229554Y205179D01*
X229513Y205234D01*
X229471Y205275D01*
X229354Y205379D01*
X229237Y205455D01*
X229126Y205510D01*
X229030Y205551D01*
X228940Y205586D01*
X228871Y205599D01*
X228823Y205606D01*
X228671D01*
X228526Y205572D01*
X228395Y205524D01*
X228271Y205468D01*
X228168Y205420D01*
X228085Y205365D01*
X228050Y205344D01*
X228023Y205331D01*
X228016Y205324D01*
X228009Y205317D01*
X227519Y205889D01*
X227747Y206048D01*
X227968Y206158D01*
X228174Y206241D01*
X228361Y206289D01*
X228519Y206310D01*
X228643Y206324D01*
X228754D01*
X228988Y206282D01*
D02*
G37*
G36*
X211554Y197400D02*
X211609Y197386D01*
X211650D01*
X211671Y197379D01*
X211685D01*
X211830Y197344D01*
X211968Y197289D01*
X212236Y197172D01*
X212485Y197020D01*
X212719Y196869D01*
X212809Y196793D01*
X212906Y196724D01*
X212981Y196662D01*
X213043Y196600D01*
X213106Y196551D01*
X213174Y196482D01*
X213299Y196344D01*
X213416Y196213D01*
X213595Y195938D01*
X213671Y195807D01*
X213740Y195669D01*
X213795Y195544D01*
X213843Y195427D01*
X213885Y195317D01*
X213912Y195220D01*
X213933Y195131D01*
X213954Y195055D01*
X213968Y194986D01*
X213974Y194937D01*
X213981Y194917D01*
Y194903D01*
X213995Y194737D01*
Y194572D01*
X213954Y194255D01*
X213892Y193944D01*
X213795Y193668D01*
X213754Y193544D01*
X213706Y193441D01*
X213657Y193337D01*
X213630Y193255D01*
X213588Y193186D01*
X213568Y193137D01*
X213547Y193103D01*
X213540Y193096D01*
X212788Y193544D01*
X212933Y193799D01*
X213043Y194048D01*
X213106Y194275D01*
X213154Y194475D01*
X213167Y194641D01*
X213174Y194772D01*
Y194855D01*
Y194869D01*
Y194882D01*
X213133Y195117D01*
X213064Y195324D01*
X212974Y195524D01*
X212878Y195689D01*
X212781Y195827D01*
X212733Y195889D01*
X212692Y195931D01*
X212664Y195972D01*
X212616Y196020D01*
X212457Y196165D01*
X212285Y196282D01*
X212119Y196379D01*
X211974Y196455D01*
X211836Y196510D01*
X211733Y196558D01*
X211692Y196572D01*
X211657Y196579D01*
X211643D01*
X211637Y196586D01*
X211423Y196620D01*
X211216D01*
X211023Y196607D01*
X210836Y196572D01*
X210692Y196537D01*
X210574Y196489D01*
X210533Y196476D01*
X210499Y196469D01*
X210478Y196462D01*
X210471Y196455D01*
X210250Y196344D01*
X210036Y196213D01*
X209836Y196068D01*
X209657Y195931D01*
X209581Y195868D01*
X209512Y195813D01*
X209450Y195751D01*
X209395Y195710D01*
X209354Y195669D01*
X209326Y195641D01*
X209305Y195620D01*
X209298Y195613D01*
X209140Y195441D01*
X208995Y195268D01*
X208871Y195103D01*
X208767Y194944D01*
X208685Y194806D01*
X208643Y194751D01*
X208622Y194703D01*
X208595Y194662D01*
X208581Y194634D01*
X208574Y194613D01*
X208567Y194606D01*
X208478Y194393D01*
X208416Y194179D01*
X208388Y193986D01*
X208367Y193813D01*
Y193662D01*
X208374Y193544D01*
X208381Y193468D01*
X208374Y193448D01*
X208381Y193441D01*
X208436Y193220D01*
X208519Y193013D01*
X208616Y192820D01*
X208726Y192655D01*
X208829Y192510D01*
X208871Y192455D01*
X208919Y192406D01*
X208947Y192365D01*
X208995Y192317D01*
X209167Y192158D01*
X209340Y192041D01*
X209505Y191944D01*
X209650Y191882D01*
X209788Y191841D01*
X209885Y191813D01*
X209954Y191799D01*
X209974Y191793D01*
X210181Y191779D01*
X210381Y191799D01*
X210588Y191841D01*
X210767Y191896D01*
X210919Y191951D01*
X210988Y191979D01*
X211050Y191999D01*
X211098Y192020D01*
X211133Y192041D01*
X211154Y192048D01*
X211161Y192055D01*
X211616Y191324D01*
X211312Y191186D01*
X211161Y191130D01*
X211023Y191089D01*
X210878Y191055D01*
X210740Y191027D01*
X210623Y191006D01*
X210499Y190993D01*
X210395Y190986D01*
X210133D01*
X210071Y190993D01*
X210030D01*
X210009Y190999D01*
X209995D01*
X209843Y191027D01*
X209698Y191061D01*
X209554Y191110D01*
X209416Y191165D01*
X209160Y191296D01*
X208940Y191434D01*
X208843Y191503D01*
X208761Y191572D01*
X208685Y191634D01*
X208622Y191682D01*
X208567Y191723D01*
X208498Y191793D01*
X208291Y192027D01*
X208112Y192262D01*
X207974Y192496D01*
X207912Y192599D01*
X207864Y192703D01*
X207822Y192799D01*
X207774Y192889D01*
X207747Y192972D01*
X207726Y193034D01*
X207698Y193089D01*
X207685Y193130D01*
Y193158D01*
X207678Y193165D01*
X207616Y193448D01*
X207588Y193737D01*
Y194000D01*
X207616Y194234D01*
X207643Y194441D01*
X207657Y194524D01*
X207671Y194593D01*
X207691Y194655D01*
X207705Y194696D01*
Y194724D01*
X207712Y194731D01*
X207822Y195020D01*
X207967Y195303D01*
X208133Y195551D01*
X208291Y195779D01*
X208367Y195882D01*
X208436Y195965D01*
X208505Y196048D01*
X208567Y196110D01*
X208609Y196165D01*
X208643Y196200D01*
X208671Y196227D01*
X208678Y196234D01*
X208926Y196469D01*
X209174Y196662D01*
X209423Y196827D01*
X209540Y196903D01*
X209643Y196965D01*
X209747Y197027D01*
X209836Y197076D01*
X209919Y197117D01*
X209995Y197151D01*
X210050Y197179D01*
X210092Y197193D01*
X210119Y197206D01*
X210126Y197213D01*
X210423Y197317D01*
X210712Y197372D01*
X210974Y197413D01*
X211402D01*
X211554Y197400D01*
D02*
G37*
G36*
X215719Y193289D02*
X215864Y193268D01*
X216002Y193227D01*
X216140Y193186D01*
X216264Y193130D01*
X216388Y193075D01*
X216609Y192951D01*
X216706Y192882D01*
X216788Y192827D01*
X216864Y192765D01*
X216926Y192717D01*
X216982Y192675D01*
X217044Y192613D01*
X217161Y192482D01*
X217271Y192358D01*
X217361Y192227D01*
X217430Y192103D01*
X217499Y191979D01*
X217554Y191855D01*
X217602Y191737D01*
X217637Y191620D01*
X217671Y191517D01*
X217692Y191427D01*
X217706Y191344D01*
X217719Y191275D01*
X217726Y191213D01*
Y191172D01*
X217733Y191151D01*
Y191137D01*
Y190986D01*
X217719Y190848D01*
X217692Y190710D01*
X217657Y190579D01*
X217616Y190455D01*
X217561Y190344D01*
X217464Y190137D01*
X217354Y189972D01*
X217299Y189903D01*
X217257Y189848D01*
X217223Y189799D01*
X217195Y189772D01*
X217175Y189751D01*
X217168Y189744D01*
X217009Y189599D01*
X216844Y189489D01*
X216685Y189399D01*
X216540Y189337D01*
X216409Y189289D01*
X216313Y189261D01*
X216243Y189248D01*
X216223Y189241D01*
X216030Y189227D01*
X215830Y189234D01*
X215650Y189261D01*
X215485Y189303D01*
X215354Y189351D01*
X215243Y189392D01*
X215202Y189406D01*
X215175Y189420D01*
X215154Y189427D01*
X215147Y189434D01*
X215216Y189268D01*
X215257Y189103D01*
X215292Y188958D01*
X215306Y188834D01*
Y188723D01*
Y188641D01*
X215299Y188592D01*
Y188579D01*
X215264Y188434D01*
X215209Y188296D01*
X215147Y188179D01*
X215078Y188068D01*
X215016Y187979D01*
X214968Y187917D01*
X214926Y187875D01*
X214912Y187861D01*
X214816Y187778D01*
X214719Y187696D01*
X214519Y187579D01*
X214312Y187496D01*
X214126Y187434D01*
X213961Y187406D01*
X213885Y187399D01*
X213823Y187392D01*
X213775Y187385D01*
X213706D01*
X213575Y187392D01*
X213443Y187413D01*
X213326Y187447D01*
X213202Y187489D01*
X212981Y187585D01*
X212788Y187696D01*
X212630Y187813D01*
X212561Y187854D01*
X212505Y187910D01*
X212457Y187944D01*
X212402Y187999D01*
X212299Y188116D01*
X212209Y188220D01*
X212064Y188448D01*
X211947Y188661D01*
X211878Y188855D01*
X211850Y188951D01*
X211830Y189027D01*
X211823Y189103D01*
X211802Y189165D01*
X211795Y189213D01*
Y189254D01*
Y189268D01*
Y189282D01*
Y189406D01*
X211809Y189530D01*
X211830Y189648D01*
X211871Y189758D01*
X211940Y189965D01*
X212030Y190137D01*
X212126Y190275D01*
X212167Y190330D01*
X212202Y190379D01*
X212230Y190420D01*
X212257Y190448D01*
X212271Y190461D01*
X212278Y190468D01*
X212402Y190579D01*
X212526Y190661D01*
X212650Y190730D01*
X212761Y190786D01*
X212857Y190827D01*
X212933Y190848D01*
X212981Y190854D01*
X213002Y190861D01*
X213154Y190875D01*
X213305Y190861D01*
X213450Y190841D01*
X213595Y190806D01*
X213706Y190765D01*
X213802Y190737D01*
X213857Y190710D01*
X213871D01*
X213878Y190703D01*
X213781Y190896D01*
X213712Y191089D01*
X213671Y191268D01*
X213650Y191427D01*
X213643Y191558D01*
Y191668D01*
X213650Y191730D01*
X213643Y191751D01*
X213650Y191758D01*
X213692Y191951D01*
X213768Y192124D01*
X213850Y192289D01*
X213940Y192434D01*
X214023Y192544D01*
X214064Y192599D01*
X214099Y192634D01*
X214126Y192675D01*
X214147Y192696D01*
X214161Y192710D01*
X214168Y192717D01*
X214285Y192820D01*
X214402Y192910D01*
X214512Y192993D01*
X214637Y193062D01*
X214871Y193158D01*
X214981Y193200D01*
X215092Y193227D01*
X215188Y193255D01*
X215278Y193275D01*
X215361Y193289D01*
X215437Y193296D01*
X215492D01*
X215526Y193303D01*
X215568D01*
X215719Y193289D01*
D02*
G37*
%LPC*%
G36*
X227043Y203896D02*
X227016D01*
X226823Y203868D01*
X226650Y203820D01*
X226485Y203751D01*
X226340Y203661D01*
X226223Y203586D01*
X226133Y203510D01*
X226099Y203489D01*
X226078Y203468D01*
X226064Y203455D01*
X226057Y203448D01*
X225899Y203261D01*
X225774Y203082D01*
X225678Y202903D01*
X225623Y202737D01*
X225581Y202599D01*
X225554Y202489D01*
X225540Y202420D01*
Y202392D01*
Y202282D01*
X225547Y202179D01*
X225588Y201999D01*
X225637Y201841D01*
X225699Y201696D01*
X225767Y201586D01*
X225830Y201510D01*
X225850Y201475D01*
X225885Y201441D01*
X226030Y201323D01*
X226174Y201234D01*
X226326Y201179D01*
X226464Y201137D01*
X226595Y201117D01*
X226692D01*
X226754Y201110D01*
X226781D01*
X226981Y201144D01*
X227168Y201206D01*
X227340Y201282D01*
X227492Y201379D01*
X227623Y201468D01*
X227671Y201503D01*
X227712Y201544D01*
X227754Y201572D01*
X227781Y201599D01*
X227795Y201613D01*
X227802Y201620D01*
X227954Y201799D01*
X228078Y201979D01*
X228161Y202144D01*
X228230Y202296D01*
X228264Y202427D01*
X228285Y202530D01*
X228292Y202592D01*
Y202620D01*
X228285Y202806D01*
X228250Y202979D01*
X228181Y203130D01*
X228119Y203261D01*
X228050Y203372D01*
X227988Y203448D01*
X227968Y203482D01*
X227933Y203517D01*
X227781Y203641D01*
X227630Y203737D01*
X227478Y203806D01*
X227326Y203848D01*
X227202Y203875D01*
X227106Y203889D01*
X227043Y203896D01*
D02*
G37*
G36*
X215747Y192558D02*
X215630Y192551D01*
X215526Y192544D01*
X215443Y192530D01*
X215375Y192517D01*
X215333Y192503D01*
X215319D01*
X215202Y192455D01*
X215092Y192399D01*
X214988Y192337D01*
X214906Y192282D01*
X214837Y192227D01*
X214788Y192192D01*
X214754Y192158D01*
X214747Y192151D01*
X214623Y191999D01*
X214519Y191841D01*
X214450Y191689D01*
X214402Y191544D01*
X214368Y191427D01*
X214354Y191330D01*
X214347Y191268D01*
Y191241D01*
X214361Y191048D01*
X214402Y190882D01*
X214464Y190723D01*
X214540Y190592D01*
X214609Y190482D01*
X214678Y190399D01*
X214699Y190365D01*
X214733Y190330D01*
X214892Y190199D01*
X215050Y190096D01*
X215209Y190020D01*
X215354Y189972D01*
X215485Y189951D01*
X215581Y189937D01*
X215644Y189930D01*
X215671D01*
X215864Y189944D01*
X216043Y189986D01*
X216202Y190048D01*
X216333Y190124D01*
X216450Y190199D01*
X216526Y190261D01*
X216561Y190282D01*
X216581Y190303D01*
X216595Y190317D01*
X216602Y190324D01*
X216733Y190482D01*
X216830Y190634D01*
X216906Y190793D01*
X216947Y190930D01*
X216975Y191055D01*
X216988Y191151D01*
X216995Y191213D01*
Y191241D01*
X216975Y191427D01*
X216933Y191593D01*
X216871Y191751D01*
X216795Y191882D01*
X216719Y191999D01*
X216657Y192075D01*
X216637Y192110D01*
X216595Y192151D01*
X216492Y192241D01*
X216388Y192317D01*
X216299Y192379D01*
X216195Y192427D01*
X216112Y192468D01*
X216057Y192496D01*
X216016Y192510D01*
X215995Y192517D01*
X215871Y192544D01*
X215747Y192558D01*
D02*
G37*
G36*
X213568Y190199D02*
X213554D01*
X213402Y190186D01*
X213264Y190144D01*
X213147Y190096D01*
X213043Y190034D01*
X212954Y189972D01*
X212885Y189930D01*
X212843Y189889D01*
X212830Y189875D01*
X212733Y189765D01*
X212671Y189648D01*
X212616Y189523D01*
X212581Y189420D01*
X212568Y189323D01*
X212547Y189248D01*
Y189192D01*
Y189179D01*
X212561Y189027D01*
X212602Y188889D01*
X212650Y188758D01*
X212712Y188654D01*
X212774Y188565D01*
X212816Y188496D01*
X212871Y188441D01*
X212995Y188330D01*
X213119Y188261D01*
X213243Y188206D01*
X213354Y188165D01*
X213457Y188144D01*
X213540Y188130D01*
X213609D01*
X213761Y188144D01*
X213899Y188172D01*
X214023Y188227D01*
X214126Y188275D01*
X214209Y188330D01*
X214285Y188379D01*
X214319Y188413D01*
X214326Y188420D01*
X214333Y188427D01*
X214430Y188537D01*
X214499Y188661D01*
X214561Y188779D01*
X214588Y188889D01*
X214616Y188986D01*
X214623Y189061D01*
Y189116D01*
Y189130D01*
X214609Y189282D01*
X214568Y189420D01*
X214512Y189544D01*
X214450Y189648D01*
X214388Y189737D01*
X214347Y189806D01*
X214292Y189861D01*
X214168Y189972D01*
X214037Y190048D01*
X213912Y190117D01*
X213795Y190151D01*
X213699Y190179D01*
X213616Y190192D01*
X213568Y190199D01*
D02*
G37*
%LPD*%
D12*
X196000Y296000D02*
Y326000D01*
X214000D01*
Y296000D02*
Y326000D01*
X196000Y296000D02*
X214000D01*
X212029Y205243D02*
X233243Y184030D01*
X245971Y196757D01*
X224757Y217971D02*
X245971Y196757D01*
X212029Y205243D02*
X224757Y217971D01*
X199029Y192243D02*
X220243Y171029D01*
X232971Y183757D01*
X211757Y204971D02*
X232971Y183757D01*
X199029Y192243D02*
X211757Y204971D01*
M02*
