G04*
G04 #@! TF.GenerationSoftware,Altium Limited,Altium Designer,20.0.13 (296)*
G04*
G04 Layer_Color=8421504*
%FSLAX44Y44*%
%MOMM*%
G71*
G01*
G75*
%ADD14R,1.3000X1.0000*%
%ADD15R,1.0000X1.0000*%
%ADD16O,1.5500X0.5000*%
%ADD17R,5.5000X2.0000*%
G04:AMPARAMS|DCode=18|XSize=0.55mm|YSize=1.45mm|CornerRadius=0mm|HoleSize=0mm|Usage=FLASHONLY|Rotation=45.000|XOffset=0mm|YOffset=0mm|HoleType=Round|Shape=Round|*
%AMOVALD18*
21,1,0.9000,0.5500,0.0000,0.0000,135.0*
1,1,0.5500,0.3182,-0.3182*
1,1,0.5500,-0.3182,0.3182*
%
%ADD18OVALD18*%

G04:AMPARAMS|DCode=19|XSize=0.55mm|YSize=1.45mm|CornerRadius=0mm|HoleSize=0mm|Usage=FLASHONLY|Rotation=135.000|XOffset=0mm|YOffset=0mm|HoleType=Round|Shape=Round|*
%AMOVALD19*
21,1,0.9000,0.5500,0.0000,0.0000,225.0*
1,1,0.5500,0.3182,0.3182*
1,1,0.5500,-0.3182,-0.3182*
%
%ADD19OVALD19*%

%ADD20P,1.4142X4X90.0*%
%ADD21R,0.3300X0.7300*%
%ADD22R,1.0000X0.9000*%
%ADD23R,1.0000X1.3000*%
D14*
X205000Y318500D02*
D03*
Y303500D02*
D03*
D15*
X221000Y339000D02*
D03*
Y355000D02*
D03*
X70000Y337000D02*
D03*
Y353000D02*
D03*
X84000Y272000D02*
D03*
Y288000D02*
D03*
X231000Y168000D02*
D03*
Y184000D02*
D03*
D16*
X106250Y423250D02*
D03*
Y416750D02*
D03*
Y410250D02*
D03*
Y403750D02*
D03*
Y397250D02*
D03*
Y390750D02*
D03*
Y384250D02*
D03*
Y377750D02*
D03*
Y371250D02*
D03*
Y364750D02*
D03*
Y358250D02*
D03*
Y351750D02*
D03*
Y345250D02*
D03*
Y338750D02*
D03*
X177750Y423250D02*
D03*
Y416750D02*
D03*
Y410250D02*
D03*
Y403750D02*
D03*
Y397250D02*
D03*
Y390750D02*
D03*
Y384250D02*
D03*
Y377750D02*
D03*
Y371250D02*
D03*
Y364750D02*
D03*
Y358250D02*
D03*
Y351750D02*
D03*
Y345250D02*
D03*
Y338750D02*
D03*
D17*
X188500Y58000D02*
D03*
X113500D02*
D03*
D18*
X102038Y176789D02*
D03*
X106634Y181385D02*
D03*
X111230Y185981D02*
D03*
X115827Y190577D02*
D03*
X120423Y195173D02*
D03*
X125019Y199770D02*
D03*
X129615Y204366D02*
D03*
X134211Y208962D02*
D03*
X193962Y149211D02*
D03*
X189366Y144615D02*
D03*
X184769Y140019D02*
D03*
X180173Y135423D02*
D03*
X175577Y130827D02*
D03*
X170981Y126230D02*
D03*
X166385Y121634D02*
D03*
X161789Y117038D02*
D03*
D19*
Y208962D02*
D03*
X166385Y204366D02*
D03*
X170981Y199770D02*
D03*
X175577Y195173D02*
D03*
X180173Y190577D02*
D03*
X184769Y185981D02*
D03*
X189366Y181385D02*
D03*
X193962Y176789D02*
D03*
X134211Y117038D02*
D03*
X129615Y121634D02*
D03*
X125019Y126230D02*
D03*
X120423Y130827D02*
D03*
X115827Y135423D02*
D03*
X111230Y140019D02*
D03*
X106634Y144615D02*
D03*
X102038Y149211D02*
D03*
D20*
X62343Y218657D02*
D03*
X73657Y207343D02*
D03*
X76343Y231657D02*
D03*
X87657Y220343D02*
D03*
D21*
X149500Y466900D02*
D03*
X154500D02*
D03*
X159500D02*
D03*
X164500D02*
D03*
X169500D02*
D03*
X144500D02*
D03*
X139500D02*
D03*
X134500D02*
D03*
X129500D02*
D03*
X124500D02*
D03*
X119500D02*
D03*
X114500D02*
D03*
D22*
X231000Y136750D02*
D03*
Y153250D02*
D03*
X70000Y383250D02*
D03*
Y366750D02*
D03*
X221000Y387250D02*
D03*
Y370750D02*
D03*
D23*
X184500Y19000D02*
D03*
X199500D02*
D03*
X119500D02*
D03*
X104500D02*
D03*
M02*
