G04*
G04 #@! TF.GenerationSoftware,Altium Limited,Altium Designer,20.0.13 (296)*
G04*
G04 Layer_Color=16711935*
%FSLAX44Y44*%
%MOMM*%
G71*
G01*
G75*
%ADD12C,0.2000*%
%ADD13C,0.1000*%
%ADD43C,0.2540*%
G36*
X127885Y440525D02*
X128129Y440476D01*
X128353Y440408D01*
X128539Y440330D01*
X128685Y440242D01*
X128743Y440203D01*
X128792Y440174D01*
X128841Y440145D01*
X128870Y440125D01*
X128880Y440116D01*
X128890Y440106D01*
X129065Y439930D01*
X129202Y439735D01*
X129319Y439530D01*
X129397Y439335D01*
X129465Y439160D01*
X129485Y439082D01*
X129504Y439013D01*
X129514Y438965D01*
X129524Y438926D01*
X129533Y438896D01*
Y438886D01*
X128743Y438750D01*
X128704Y438955D01*
X128646Y439130D01*
X128587Y439277D01*
X128519Y439394D01*
X128460Y439491D01*
X128412Y439560D01*
X128373Y439599D01*
X128363Y439608D01*
X128236Y439706D01*
X128109Y439774D01*
X127983Y439833D01*
X127856Y439862D01*
X127758Y439881D01*
X127670Y439901D01*
X127592D01*
X127427Y439891D01*
X127280Y439852D01*
X127154Y439813D01*
X127046Y439755D01*
X126958Y439706D01*
X126890Y439657D01*
X126851Y439618D01*
X126841Y439608D01*
X126744Y439501D01*
X126676Y439374D01*
X126617Y439257D01*
X126588Y439150D01*
X126568Y439043D01*
X126549Y438965D01*
Y438916D01*
Y438906D01*
Y438896D01*
X126568Y438701D01*
X126617Y438535D01*
X126676Y438399D01*
X126754Y438292D01*
X126832Y438204D01*
X126890Y438135D01*
X126939Y438097D01*
X126958Y438087D01*
X127114Y437999D01*
X127270Y437940D01*
X127417Y437892D01*
X127553Y437862D01*
X127680Y437843D01*
X127768Y437833D01*
X127895D01*
X127934Y437843D01*
X127983D01*
X128070Y437150D01*
X127953Y437180D01*
X127846Y437199D01*
X127748Y437209D01*
X127670Y437219D01*
X127602Y437228D01*
X127514D01*
X127319Y437209D01*
X127154Y437170D01*
X126997Y437121D01*
X126871Y437053D01*
X126763Y436985D01*
X126685Y436936D01*
X126646Y436897D01*
X126627Y436877D01*
X126510Y436741D01*
X126422Y436595D01*
X126354Y436438D01*
X126315Y436302D01*
X126285Y436175D01*
X126276Y436077D01*
X126266Y436039D01*
Y436009D01*
Y435999D01*
Y435990D01*
X126285Y435785D01*
X126324Y435600D01*
X126383Y435434D01*
X126451Y435297D01*
X126529Y435180D01*
X126588Y435102D01*
X126627Y435053D01*
X126646Y435034D01*
X126793Y434907D01*
X126949Y434809D01*
X127105Y434751D01*
X127261Y434702D01*
X127388Y434673D01*
X127485Y434663D01*
X127524Y434654D01*
X127583D01*
X127748Y434663D01*
X127905Y434702D01*
X128041Y434751D01*
X128148Y434800D01*
X128246Y434858D01*
X128314Y434897D01*
X128353Y434936D01*
X128373Y434946D01*
X128480Y435073D01*
X128577Y435219D01*
X128656Y435385D01*
X128714Y435541D01*
X128763Y435687D01*
X128792Y435804D01*
X128812Y435843D01*
Y435882D01*
X128821Y435902D01*
Y435912D01*
X129611Y435804D01*
X129592Y435658D01*
X129563Y435522D01*
X129475Y435268D01*
X129377Y435044D01*
X129260Y434849D01*
X129212Y434771D01*
X129153Y434702D01*
X129104Y434644D01*
X129065Y434585D01*
X129026Y434546D01*
X128997Y434517D01*
X128987Y434507D01*
X128977Y434497D01*
X128870Y434410D01*
X128753Y434332D01*
X128646Y434263D01*
X128529Y434215D01*
X128295Y434117D01*
X128070Y434058D01*
X127973Y434039D01*
X127875Y434029D01*
X127797Y434020D01*
X127719Y434010D01*
X127661Y434000D01*
X127583D01*
X127417Y434010D01*
X127251Y434029D01*
X127095Y434049D01*
X126949Y434088D01*
X126812Y434137D01*
X126685Y434185D01*
X126568Y434234D01*
X126461Y434293D01*
X126373Y434341D01*
X126285Y434390D01*
X126207Y434439D01*
X126149Y434488D01*
X126100Y434527D01*
X126071Y434546D01*
X126051Y434566D01*
X126042Y434576D01*
X125934Y434692D01*
X125837Y434809D01*
X125759Y434927D01*
X125690Y435044D01*
X125622Y435161D01*
X125573Y435288D01*
X125505Y435512D01*
X125476Y435609D01*
X125456Y435707D01*
X125447Y435785D01*
X125437Y435863D01*
X125427Y435922D01*
Y435961D01*
Y435990D01*
Y435999D01*
X125437Y436224D01*
X125476Y436429D01*
X125525Y436604D01*
X125583Y436750D01*
X125651Y436868D01*
X125700Y436955D01*
X125739Y437014D01*
X125749Y437033D01*
X125876Y437180D01*
X126022Y437297D01*
X126168Y437394D01*
X126305Y437463D01*
X126432Y437521D01*
X126529Y437550D01*
X126568Y437570D01*
X126597D01*
X126617Y437580D01*
X126627D01*
X126471Y437658D01*
X126334Y437755D01*
X126227Y437843D01*
X126129Y437931D01*
X126061Y438009D01*
X126003Y438067D01*
X125973Y438106D01*
X125963Y438126D01*
X125885Y438253D01*
X125837Y438389D01*
X125798Y438516D01*
X125768Y438633D01*
X125749Y438731D01*
X125739Y438809D01*
Y438857D01*
Y438877D01*
X125749Y439043D01*
X125778Y439189D01*
X125817Y439325D01*
X125856Y439452D01*
X125895Y439550D01*
X125934Y439628D01*
X125963Y439677D01*
X125973Y439696D01*
X126071Y439833D01*
X126178Y439959D01*
X126295Y440067D01*
X126402Y440154D01*
X126500Y440223D01*
X126578Y440272D01*
X126636Y440301D01*
X126646Y440311D01*
X126656D01*
X126822Y440389D01*
X126988Y440447D01*
X127154Y440486D01*
X127300Y440515D01*
X127427Y440535D01*
X127524Y440545D01*
X127748D01*
X127885Y440525D01*
D02*
G37*
G36*
X133298Y440603D02*
X133591Y440564D01*
X133854Y440496D01*
X133971Y440467D01*
X134079Y440428D01*
X134176Y440389D01*
X134274Y440359D01*
X134352Y440320D01*
X134410Y440291D01*
X134469Y440272D01*
X134508Y440252D01*
X134527Y440233D01*
X134537D01*
X134781Y440076D01*
X135005Y439891D01*
X135190Y439706D01*
X135337Y439520D01*
X135463Y439355D01*
X135512Y439286D01*
X135551Y439228D01*
X135581Y439169D01*
X135600Y439130D01*
X135620Y439111D01*
Y439101D01*
X135746Y438818D01*
X135844Y438516D01*
X135902Y438223D01*
X135951Y437950D01*
X135971Y437823D01*
X135981Y437716D01*
X135990Y437609D01*
Y437521D01*
X136000Y437453D01*
Y437404D01*
Y437365D01*
Y437355D01*
X135990Y437014D01*
X135951Y436702D01*
X135893Y436409D01*
X135863Y436273D01*
X135834Y436156D01*
X135805Y436039D01*
X135776Y435941D01*
X135746Y435853D01*
X135717Y435775D01*
X135698Y435717D01*
X135678Y435678D01*
X135668Y435648D01*
Y435639D01*
X135532Y435356D01*
X135366Y435112D01*
X135210Y434897D01*
X135044Y434731D01*
X134908Y434595D01*
X134790Y434497D01*
X134742Y434468D01*
X134712Y434439D01*
X134693Y434429D01*
X134683Y434419D01*
X134556Y434341D01*
X134420Y434283D01*
X134147Y434176D01*
X133864Y434107D01*
X133591Y434049D01*
X133474Y434039D01*
X133357Y434020D01*
X133259Y434010D01*
X133171D01*
X133093Y434000D01*
X132996D01*
X132811Y434010D01*
X132635Y434020D01*
X132313Y434088D01*
X132167Y434127D01*
X132021Y434176D01*
X131894Y434224D01*
X131777Y434273D01*
X131669Y434322D01*
X131582Y434371D01*
X131504Y434419D01*
X131435Y434458D01*
X131377Y434497D01*
X131338Y434527D01*
X131318Y434536D01*
X131308Y434546D01*
X131182Y434654D01*
X131065Y434771D01*
X130870Y435024D01*
X130694Y435288D01*
X130567Y435551D01*
X130509Y435668D01*
X130470Y435775D01*
X130431Y435882D01*
X130392Y435961D01*
X130372Y436039D01*
X130353Y436087D01*
X130343Y436126D01*
Y436136D01*
X131192Y436351D01*
X131270Y436068D01*
X131367Y435814D01*
X131484Y435609D01*
X131591Y435434D01*
X131699Y435307D01*
X131786Y435209D01*
X131845Y435151D01*
X131855Y435141D01*
X131865Y435131D01*
X132059Y434995D01*
X132255Y434897D01*
X132459Y434819D01*
X132645Y434771D01*
X132811Y434741D01*
X132889Y434731D01*
X132947D01*
X132996Y434722D01*
X133064D01*
X133279Y434731D01*
X133484Y434771D01*
X133669Y434819D01*
X133825Y434868D01*
X133961Y434927D01*
X134069Y434966D01*
X134108Y434985D01*
X134137Y435005D01*
X134147Y435014D01*
X134157D01*
X134332Y435141D01*
X134478Y435288D01*
X134605Y435434D01*
X134712Y435590D01*
X134790Y435717D01*
X134839Y435834D01*
X134859Y435873D01*
X134878Y435902D01*
X134888Y435922D01*
Y435931D01*
X134966Y436165D01*
X135025Y436409D01*
X135064Y436653D01*
X135093Y436877D01*
X135103Y436975D01*
X135112Y437063D01*
Y437150D01*
X135122Y437219D01*
Y437277D01*
Y437316D01*
Y437346D01*
Y437355D01*
X135112Y437589D01*
X135093Y437814D01*
X135064Y438018D01*
X135025Y438204D01*
X134986Y438360D01*
X134976Y438428D01*
X134956Y438477D01*
X134947Y438526D01*
X134937Y438555D01*
X134927Y438574D01*
Y438584D01*
X134839Y438799D01*
X134732Y438994D01*
X134615Y439150D01*
X134508Y439286D01*
X134400Y439394D01*
X134313Y439472D01*
X134254Y439520D01*
X134244Y439540D01*
X134235D01*
X134039Y439657D01*
X133835Y439745D01*
X133630Y439813D01*
X133435Y439852D01*
X133259Y439881D01*
X133191Y439891D01*
X133123D01*
X133074Y439901D01*
X133006D01*
X132772Y439891D01*
X132567Y439852D01*
X132381Y439803D01*
X132235Y439745D01*
X132108Y439677D01*
X132021Y439628D01*
X131962Y439589D01*
X131943Y439579D01*
X131786Y439442D01*
X131660Y439286D01*
X131543Y439111D01*
X131455Y438945D01*
X131386Y438799D01*
X131357Y438731D01*
X131328Y438672D01*
X131308Y438623D01*
X131299Y438584D01*
X131289Y438565D01*
Y438555D01*
X130450Y438750D01*
X130567Y439062D01*
X130635Y439208D01*
X130704Y439335D01*
X130782Y439462D01*
X130860Y439579D01*
X130928Y439677D01*
X131006Y439774D01*
X131074Y439852D01*
X131143Y439920D01*
X131211Y439989D01*
X131260Y440037D01*
X131308Y440076D01*
X131338Y440106D01*
X131357Y440116D01*
X131367Y440125D01*
X131494Y440213D01*
X131621Y440291D01*
X131757Y440359D01*
X131894Y440418D01*
X132167Y440506D01*
X132420Y440564D01*
X132537Y440584D01*
X132645Y440593D01*
X132742Y440603D01*
X132820Y440613D01*
X132889Y440623D01*
X132986D01*
X133298Y440603D01*
D02*
G37*
G36*
X153986Y419990D02*
X154298Y419951D01*
X154591Y419893D01*
X154727Y419863D01*
X154844Y419834D01*
X154962Y419805D01*
X155059Y419776D01*
X155147Y419746D01*
X155225Y419717D01*
X155283Y419698D01*
X155322Y419678D01*
X155352Y419668D01*
X155361D01*
X155644Y419532D01*
X155888Y419366D01*
X156103Y419210D01*
X156269Y419044D01*
X156405Y418908D01*
X156503Y418791D01*
X156532Y418742D01*
X156561Y418713D01*
X156571Y418693D01*
X156581Y418683D01*
X156659Y418557D01*
X156717Y418420D01*
X156824Y418147D01*
X156893Y417864D01*
X156951Y417591D01*
X156961Y417474D01*
X156980Y417357D01*
X156990Y417259D01*
Y417172D01*
X157000Y417093D01*
Y416996D01*
X156990Y416811D01*
X156980Y416635D01*
X156912Y416313D01*
X156873Y416167D01*
X156824Y416021D01*
X156776Y415894D01*
X156727Y415777D01*
X156678Y415669D01*
X156629Y415582D01*
X156581Y415504D01*
X156542Y415435D01*
X156503Y415377D01*
X156473Y415338D01*
X156463Y415318D01*
X156454Y415308D01*
X156347Y415182D01*
X156229Y415065D01*
X155976Y414870D01*
X155712Y414694D01*
X155449Y414567D01*
X155332Y414509D01*
X155225Y414470D01*
X155118Y414431D01*
X155040Y414392D01*
X154962Y414372D01*
X154913Y414353D01*
X154874Y414343D01*
X154864D01*
X154649Y415191D01*
X154932Y415270D01*
X155186Y415367D01*
X155391Y415484D01*
X155566Y415591D01*
X155693Y415699D01*
X155791Y415786D01*
X155849Y415845D01*
X155859Y415855D01*
X155869Y415864D01*
X156005Y416059D01*
X156103Y416255D01*
X156181Y416459D01*
X156229Y416645D01*
X156259Y416811D01*
X156269Y416889D01*
Y416947D01*
X156278Y416996D01*
Y417064D01*
X156269Y417279D01*
X156229Y417484D01*
X156181Y417669D01*
X156132Y417825D01*
X156073Y417962D01*
X156034Y418069D01*
X156015Y418108D01*
X155995Y418137D01*
X155986Y418147D01*
Y418157D01*
X155859Y418332D01*
X155712Y418478D01*
X155566Y418605D01*
X155410Y418713D01*
X155283Y418791D01*
X155166Y418839D01*
X155127Y418859D01*
X155098Y418878D01*
X155078Y418888D01*
X155069D01*
X154835Y418966D01*
X154591Y419025D01*
X154347Y419064D01*
X154123Y419093D01*
X154025Y419103D01*
X153937Y419112D01*
X153850D01*
X153781Y419122D01*
X153723D01*
X153684D01*
X153654D01*
X153645D01*
X153411Y419112D01*
X153186Y419093D01*
X152982Y419064D01*
X152796Y419025D01*
X152640Y418986D01*
X152572Y418976D01*
X152523Y418956D01*
X152474Y418947D01*
X152445Y418937D01*
X152426Y418927D01*
X152416D01*
X152201Y418839D01*
X152006Y418732D01*
X151850Y418615D01*
X151713Y418508D01*
X151606Y418400D01*
X151528Y418313D01*
X151480Y418254D01*
X151460Y418244D01*
Y418235D01*
X151343Y418040D01*
X151255Y417835D01*
X151187Y417630D01*
X151148Y417435D01*
X151119Y417259D01*
X151109Y417191D01*
Y417123D01*
X151099Y417074D01*
Y417006D01*
X151109Y416772D01*
X151148Y416567D01*
X151197Y416381D01*
X151255Y416235D01*
X151323Y416108D01*
X151372Y416021D01*
X151411Y415962D01*
X151421Y415942D01*
X151558Y415786D01*
X151713Y415660D01*
X151889Y415543D01*
X152055Y415455D01*
X152201Y415387D01*
X152269Y415357D01*
X152328Y415328D01*
X152377Y415308D01*
X152416Y415299D01*
X152435Y415289D01*
X152445D01*
X152250Y414450D01*
X151938Y414567D01*
X151792Y414636D01*
X151665Y414704D01*
X151538Y414782D01*
X151421Y414860D01*
X151323Y414928D01*
X151226Y415006D01*
X151148Y415074D01*
X151080Y415143D01*
X151011Y415211D01*
X150962Y415260D01*
X150924Y415308D01*
X150894Y415338D01*
X150885Y415357D01*
X150875Y415367D01*
X150787Y415494D01*
X150709Y415621D01*
X150641Y415757D01*
X150582Y415894D01*
X150494Y416167D01*
X150436Y416420D01*
X150416Y416538D01*
X150407Y416645D01*
X150397Y416742D01*
X150387Y416820D01*
X150377Y416889D01*
Y416986D01*
X150397Y417298D01*
X150436Y417591D01*
X150504Y417854D01*
X150533Y417971D01*
X150572Y418078D01*
X150611Y418176D01*
X150641Y418274D01*
X150680Y418352D01*
X150709Y418410D01*
X150728Y418469D01*
X150748Y418508D01*
X150767Y418527D01*
Y418537D01*
X150924Y418781D01*
X151109Y419005D01*
X151294Y419190D01*
X151480Y419337D01*
X151645Y419464D01*
X151713Y419512D01*
X151772Y419551D01*
X151831Y419581D01*
X151870Y419600D01*
X151889Y419620D01*
X151899D01*
X152182Y419746D01*
X152484Y419844D01*
X152777Y419902D01*
X153050Y419951D01*
X153177Y419971D01*
X153284Y419981D01*
X153391Y419990D01*
X153479D01*
X153547Y420000D01*
X153596D01*
X153635D01*
X153645D01*
X153986Y419990D01*
D02*
G37*
G36*
X155361Y413602D02*
X155508Y413572D01*
X155761Y413494D01*
X155986Y413387D01*
X156171Y413280D01*
X156249Y413221D01*
X156317Y413172D01*
X156376Y413124D01*
X156425Y413085D01*
X156463Y413046D01*
X156493Y413016D01*
X156503Y413007D01*
X156512Y412997D01*
X156600Y412890D01*
X156668Y412773D01*
X156737Y412655D01*
X156795Y412538D01*
X156883Y412304D01*
X156941Y412080D01*
X156961Y411973D01*
X156971Y411875D01*
X156980Y411787D01*
X156990Y411719D01*
X157000Y411661D01*
Y411573D01*
X156990Y411378D01*
X156971Y411193D01*
X156932Y411027D01*
X156883Y410861D01*
X156824Y410715D01*
X156756Y410568D01*
X156688Y410442D01*
X156610Y410334D01*
X156542Y410227D01*
X156473Y410139D01*
X156405Y410061D01*
X156347Y410003D01*
X156298Y409954D01*
X156259Y409915D01*
X156239Y409895D01*
X156229Y409885D01*
X156112Y409798D01*
X155986Y409720D01*
X155859Y409651D01*
X155722Y409593D01*
X155478Y409505D01*
X155244Y409437D01*
X155137Y409417D01*
X155040Y409408D01*
X154952Y409398D01*
X154874Y409388D01*
X154815Y409378D01*
X154766D01*
X154737D01*
X154727D01*
X154562Y409388D01*
X154396Y409408D01*
X154249Y409437D01*
X154103Y409466D01*
X153976Y409515D01*
X153850Y409564D01*
X153742Y409612D01*
X153635Y409671D01*
X153547Y409729D01*
X153469Y409778D01*
X153401Y409827D01*
X153342Y409876D01*
X153294Y409905D01*
X153264Y409934D01*
X153245Y409954D01*
X153235Y409963D01*
X153128Y410071D01*
X153040Y410188D01*
X152962Y410305D01*
X152894Y410432D01*
X152835Y410549D01*
X152796Y410666D01*
X152718Y410890D01*
X152699Y410988D01*
X152679Y411085D01*
X152669Y411163D01*
X152660Y411241D01*
X152650Y411300D01*
Y411378D01*
X152669Y411612D01*
X152718Y411836D01*
X152777Y412041D01*
X152855Y412217D01*
X152933Y412373D01*
X152962Y412431D01*
X152991Y412490D01*
X153020Y412529D01*
X153040Y412558D01*
X153050Y412578D01*
X153060Y412587D01*
X151333Y412236D01*
Y409681D01*
X150582D01*
Y412860D01*
X153869Y413485D01*
X153976Y412743D01*
X153879Y412675D01*
X153791Y412597D01*
X153713Y412519D01*
X153645Y412451D01*
X153596Y412382D01*
X153557Y412324D01*
X153538Y412285D01*
X153528Y412275D01*
X153469Y412158D01*
X153420Y412041D01*
X153391Y411924D01*
X153362Y411817D01*
X153352Y411719D01*
X153342Y411651D01*
Y411583D01*
X153362Y411368D01*
X153401Y411173D01*
X153469Y410997D01*
X153538Y410861D01*
X153606Y410744D01*
X153674Y410666D01*
X153713Y410617D01*
X153733Y410597D01*
X153889Y410471D01*
X154064Y410373D01*
X154240Y410305D01*
X154405Y410266D01*
X154562Y410237D01*
X154630Y410227D01*
X154688D01*
X154727Y410217D01*
X154766D01*
X154786D01*
X154796D01*
X155049Y410237D01*
X155274Y410276D01*
X155469Y410344D01*
X155634Y410412D01*
X155761Y410480D01*
X155859Y410549D01*
X155917Y410588D01*
X155927Y410607D01*
X155937D01*
X156015Y410685D01*
X156073Y410763D01*
X156181Y410919D01*
X156249Y411085D01*
X156307Y411231D01*
X156337Y411368D01*
X156347Y411475D01*
X156356Y411514D01*
Y411573D01*
X156347Y411739D01*
X156307Y411895D01*
X156259Y412031D01*
X156210Y412148D01*
X156151Y412246D01*
X156112Y412314D01*
X156073Y412353D01*
X156064Y412373D01*
X155937Y412490D01*
X155791Y412578D01*
X155644Y412655D01*
X155498Y412704D01*
X155361Y412743D01*
X155254Y412773D01*
X155215Y412782D01*
X155186Y412792D01*
X155166D01*
X155157D01*
X155215Y413621D01*
X155361Y413602D01*
D02*
G37*
G36*
X151189Y441990D02*
X151365Y441980D01*
X151687Y441912D01*
X151833Y441873D01*
X151980Y441824D01*
X152106Y441776D01*
X152223Y441727D01*
X152331Y441678D01*
X152418Y441629D01*
X152496Y441581D01*
X152565Y441541D01*
X152623Y441502D01*
X152662Y441473D01*
X152682Y441464D01*
X152691Y441454D01*
X152818Y441346D01*
X152935Y441229D01*
X153130Y440976D01*
X153306Y440713D01*
X153433Y440449D01*
X153491Y440332D01*
X153530Y440225D01*
X153569Y440117D01*
X153608Y440039D01*
X153628Y439961D01*
X153647Y439913D01*
X153657Y439874D01*
Y439864D01*
X152809Y439649D01*
X152731Y439932D01*
X152633Y440186D01*
X152516Y440391D01*
X152409Y440566D01*
X152301Y440693D01*
X152214Y440790D01*
X152155Y440849D01*
X152145Y440859D01*
X152135Y440868D01*
X151940Y441005D01*
X151745Y441103D01*
X151541Y441181D01*
X151355Y441229D01*
X151189Y441259D01*
X151111Y441268D01*
X151053D01*
X151004Y441278D01*
X150936D01*
X150721Y441268D01*
X150516Y441229D01*
X150331Y441181D01*
X150175Y441132D01*
X150038Y441073D01*
X149931Y441034D01*
X149892Y441015D01*
X149863Y440995D01*
X149853Y440986D01*
X149843D01*
X149668Y440859D01*
X149522Y440713D01*
X149395Y440566D01*
X149288Y440410D01*
X149209Y440283D01*
X149161Y440166D01*
X149141Y440127D01*
X149122Y440098D01*
X149112Y440079D01*
Y440069D01*
X149034Y439835D01*
X148975Y439591D01*
X148936Y439347D01*
X148907Y439123D01*
X148897Y439025D01*
X148888Y438937D01*
Y438849D01*
X148878Y438781D01*
Y438723D01*
Y438684D01*
Y438654D01*
Y438645D01*
X148888Y438411D01*
X148907Y438186D01*
X148936Y437981D01*
X148975Y437796D01*
X149014Y437640D01*
X149024Y437572D01*
X149044Y437523D01*
X149053Y437474D01*
X149063Y437445D01*
X149073Y437425D01*
Y437416D01*
X149161Y437201D01*
X149268Y437006D01*
X149385Y436850D01*
X149492Y436713D01*
X149600Y436606D01*
X149687Y436528D01*
X149746Y436479D01*
X149756Y436460D01*
X149765D01*
X149960Y436343D01*
X150165Y436255D01*
X150370Y436187D01*
X150565Y436148D01*
X150741Y436119D01*
X150809Y436109D01*
X150877D01*
X150926Y436099D01*
X150994D01*
X151229Y436109D01*
X151433Y436148D01*
X151619Y436197D01*
X151765Y436255D01*
X151892Y436323D01*
X151980Y436372D01*
X152038Y436411D01*
X152058Y436421D01*
X152214Y436557D01*
X152340Y436713D01*
X152457Y436889D01*
X152545Y437055D01*
X152613Y437201D01*
X152643Y437269D01*
X152672Y437328D01*
X152691Y437377D01*
X152701Y437416D01*
X152711Y437435D01*
Y437445D01*
X153550Y437250D01*
X153433Y436938D01*
X153364Y436791D01*
X153296Y436665D01*
X153218Y436538D01*
X153140Y436421D01*
X153072Y436323D01*
X152994Y436226D01*
X152926Y436148D01*
X152857Y436079D01*
X152789Y436011D01*
X152740Y435962D01*
X152691Y435923D01*
X152662Y435894D01*
X152643Y435884D01*
X152633Y435875D01*
X152506Y435787D01*
X152379Y435709D01*
X152243Y435641D01*
X152106Y435582D01*
X151833Y435494D01*
X151580Y435436D01*
X151462Y435416D01*
X151355Y435406D01*
X151258Y435397D01*
X151180Y435387D01*
X151111Y435377D01*
X151014D01*
X150702Y435397D01*
X150409Y435436D01*
X150146Y435504D01*
X150029Y435533D01*
X149922Y435572D01*
X149824Y435611D01*
X149726Y435641D01*
X149648Y435680D01*
X149590Y435709D01*
X149531Y435728D01*
X149492Y435748D01*
X149473Y435767D01*
X149463D01*
X149219Y435923D01*
X148995Y436109D01*
X148810Y436294D01*
X148663Y436479D01*
X148537Y436645D01*
X148488Y436713D01*
X148449Y436772D01*
X148419Y436830D01*
X148400Y436870D01*
X148380Y436889D01*
Y436899D01*
X148254Y437182D01*
X148156Y437484D01*
X148097Y437777D01*
X148049Y438050D01*
X148029Y438176D01*
X148020Y438284D01*
X148010Y438391D01*
Y438479D01*
X148000Y438547D01*
Y438596D01*
Y438635D01*
Y438645D01*
X148010Y438986D01*
X148049Y439298D01*
X148107Y439591D01*
X148137Y439727D01*
X148166Y439844D01*
X148195Y439961D01*
X148224Y440059D01*
X148254Y440147D01*
X148283Y440225D01*
X148302Y440283D01*
X148322Y440322D01*
X148332Y440352D01*
Y440361D01*
X148468Y440644D01*
X148634Y440888D01*
X148790Y441103D01*
X148956Y441268D01*
X149092Y441405D01*
X149209Y441502D01*
X149258Y441532D01*
X149288Y441561D01*
X149307Y441571D01*
X149317Y441581D01*
X149444Y441659D01*
X149580Y441717D01*
X149853Y441824D01*
X150136Y441893D01*
X150409Y441951D01*
X150526Y441961D01*
X150643Y441980D01*
X150741Y441990D01*
X150829D01*
X150907Y442000D01*
X151004D01*
X151189Y441990D01*
D02*
G37*
G36*
X157685Y440361D02*
X158553D01*
Y439640D01*
X157685D01*
Y435494D01*
X157042D01*
X154115Y439640D01*
Y440361D01*
X156895D01*
Y441893D01*
X157685D01*
Y440361D01*
D02*
G37*
G36*
X179046Y527876D02*
X179216Y527851D01*
X179436Y527827D01*
X179900Y527754D01*
X180413Y527607D01*
X180950Y527387D01*
X181218Y527265D01*
X181462Y527094D01*
X181706Y526924D01*
X181926Y526704D01*
Y526679D01*
X181975Y526655D01*
X182024Y526582D01*
X182097Y526484D01*
X182194Y526338D01*
X182268Y526191D01*
X182390Y525996D01*
X182487Y525801D01*
X182585Y525557D01*
X182683Y525288D01*
X182780Y524995D01*
X182854Y524654D01*
X182927Y524312D01*
X182976Y523921D01*
X183000Y523531D01*
Y523091D01*
X181096Y522823D01*
Y522847D01*
Y522896D01*
Y522994D01*
X181072Y523116D01*
Y523262D01*
X181047Y523433D01*
X180974Y523824D01*
X180901Y524263D01*
X180779Y524678D01*
X180608Y525044D01*
X180510Y525215D01*
X180413Y525361D01*
X180388Y525386D01*
X180291Y525459D01*
X180168Y525581D01*
X179973Y525679D01*
X179729Y525801D01*
X179436Y525923D01*
X179095Y525996D01*
X178704Y526021D01*
X178557D01*
X178411Y525996D01*
X178240Y525972D01*
X178020Y525923D01*
X177776Y525874D01*
X177557Y525776D01*
X177337Y525654D01*
X177313Y525630D01*
X177239Y525581D01*
X177142Y525508D01*
X177020Y525386D01*
X176873Y525264D01*
X176751Y525093D01*
X176629Y524898D01*
X176532Y524678D01*
Y524654D01*
X176483Y524556D01*
X176458Y524409D01*
X176409Y524190D01*
X176361Y523897D01*
X176336Y523555D01*
X176287Y523140D01*
Y522652D01*
Y511595D01*
X174164D01*
Y522530D01*
Y522554D01*
Y522628D01*
Y522725D01*
Y522872D01*
X174188Y523042D01*
Y523238D01*
X174213Y523677D01*
X174286Y524190D01*
X174359Y524702D01*
X174481Y525215D01*
X174652Y525654D01*
X174676Y525703D01*
X174750Y525825D01*
X174872Y526021D01*
X175018Y526265D01*
X175238Y526558D01*
X175506Y526826D01*
X175848Y527094D01*
X176214Y527339D01*
X176263Y527363D01*
X176409Y527436D01*
X176629Y527509D01*
X176922Y527607D01*
X177288Y527729D01*
X177703Y527802D01*
X178191Y527876D01*
X178704Y527900D01*
X178899D01*
X179046Y527876D01*
D02*
G37*
G36*
X166060Y515085D02*
X166084Y515109D01*
X166182Y515207D01*
X166353Y515329D01*
X166572Y515500D01*
X166841Y515720D01*
X167158Y515939D01*
X167524Y516208D01*
X167939Y516452D01*
X167964D01*
X167988Y516476D01*
X168135Y516574D01*
X168354Y516696D01*
X168623Y516843D01*
X168940Y517013D01*
X169282Y517160D01*
X169648Y517331D01*
X169990Y517477D01*
Y515549D01*
X169965D01*
X169916Y515524D01*
X169819Y515476D01*
X169721Y515402D01*
X169575Y515329D01*
X169404Y515256D01*
X169013Y515036D01*
X168574Y514768D01*
X168086Y514450D01*
X167598Y514084D01*
X167134Y513694D01*
X167109Y513669D01*
X167085Y513645D01*
X166939Y513498D01*
X166719Y513279D01*
X166450Y513010D01*
X166157Y512668D01*
X165865Y512302D01*
X165596Y511912D01*
X165376Y511521D01*
X164083D01*
Y527631D01*
X166060D01*
Y515085D01*
D02*
G37*
G36*
X184180Y21613D02*
X184258Y21603D01*
X184355Y21593D01*
X184463Y21584D01*
X184580Y21564D01*
X184833Y21506D01*
X185106Y21418D01*
X185243Y21359D01*
X185379Y21291D01*
X185506Y21213D01*
X185633Y21125D01*
X185643Y21116D01*
X185662Y21106D01*
X185692Y21077D01*
X185740Y21037D01*
X185789Y20989D01*
X185857Y20920D01*
X185926Y20852D01*
X185994Y20774D01*
X186072Y20677D01*
X186140Y20579D01*
X186218Y20462D01*
X186296Y20335D01*
X186364Y20208D01*
X186433Y20062D01*
X186550Y19750D01*
X185711Y19555D01*
Y19565D01*
X185701Y19584D01*
X185692Y19623D01*
X185672Y19672D01*
X185643Y19730D01*
X185613Y19799D01*
X185545Y19945D01*
X185457Y20111D01*
X185340Y20286D01*
X185214Y20443D01*
X185058Y20579D01*
X185038Y20589D01*
X184979Y20628D01*
X184892Y20677D01*
X184765Y20745D01*
X184619Y20803D01*
X184433Y20852D01*
X184228Y20891D01*
X183994Y20901D01*
X183926D01*
X183877Y20891D01*
X183809D01*
X183741Y20881D01*
X183565Y20852D01*
X183370Y20813D01*
X183165Y20745D01*
X182960Y20657D01*
X182765Y20540D01*
X182756D01*
X182746Y20521D01*
X182687Y20472D01*
X182600Y20394D01*
X182492Y20286D01*
X182385Y20150D01*
X182268Y19994D01*
X182161Y19799D01*
X182073Y19584D01*
Y19574D01*
X182063Y19555D01*
X182053Y19526D01*
X182044Y19477D01*
X182024Y19428D01*
X182014Y19360D01*
X181975Y19204D01*
X181936Y19018D01*
X181907Y18814D01*
X181888Y18589D01*
X181878Y18355D01*
Y18346D01*
Y18316D01*
Y18277D01*
Y18219D01*
X181888Y18150D01*
Y18063D01*
X181897Y17975D01*
X181907Y17877D01*
X181936Y17653D01*
X181975Y17409D01*
X182034Y17165D01*
X182112Y16931D01*
Y16921D01*
X182122Y16902D01*
X182141Y16873D01*
X182161Y16834D01*
X182209Y16717D01*
X182288Y16590D01*
X182395Y16434D01*
X182522Y16287D01*
X182668Y16141D01*
X182843Y16014D01*
X182853D01*
X182863Y16005D01*
X182892Y15985D01*
X182931Y15966D01*
X183039Y15927D01*
X183175Y15868D01*
X183331Y15819D01*
X183516Y15770D01*
X183721Y15732D01*
X183936Y15722D01*
X184004D01*
X184053Y15732D01*
X184111D01*
X184189Y15741D01*
X184355Y15770D01*
X184541Y15819D01*
X184745Y15897D01*
X184940Y15995D01*
X185135Y16131D01*
X185145Y16141D01*
X185155Y16151D01*
X185214Y16209D01*
X185301Y16307D01*
X185409Y16434D01*
X185516Y16609D01*
X185633Y16814D01*
X185730Y17068D01*
X185809Y17351D01*
X186657Y17136D01*
Y17126D01*
X186647Y17087D01*
X186628Y17039D01*
X186608Y16961D01*
X186569Y16882D01*
X186530Y16775D01*
X186491Y16668D01*
X186433Y16551D01*
X186306Y16287D01*
X186130Y16024D01*
X185935Y15770D01*
X185818Y15654D01*
X185692Y15546D01*
X185682Y15536D01*
X185662Y15527D01*
X185623Y15497D01*
X185565Y15458D01*
X185496Y15419D01*
X185418Y15371D01*
X185331Y15322D01*
X185223Y15273D01*
X185106Y15224D01*
X184979Y15176D01*
X184833Y15127D01*
X184687Y15088D01*
X184365Y15020D01*
X184189Y15010D01*
X184004Y15000D01*
X183907D01*
X183829Y15010D01*
X183741D01*
X183643Y15020D01*
X183526Y15039D01*
X183409Y15049D01*
X183136Y15107D01*
X182853Y15176D01*
X182580Y15283D01*
X182444Y15341D01*
X182317Y15419D01*
X182307Y15429D01*
X182288Y15439D01*
X182258Y15468D01*
X182209Y15497D01*
X182092Y15595D01*
X181956Y15732D01*
X181790Y15897D01*
X181634Y16112D01*
X181468Y16356D01*
X181332Y16639D01*
Y16648D01*
X181322Y16678D01*
X181302Y16717D01*
X181283Y16775D01*
X181254Y16853D01*
X181224Y16941D01*
X181195Y17039D01*
X181166Y17155D01*
X181136Y17273D01*
X181107Y17409D01*
X181049Y17702D01*
X181010Y18014D01*
X181000Y18355D01*
Y18365D01*
Y18404D01*
Y18453D01*
X181010Y18521D01*
Y18609D01*
X181019Y18716D01*
X181029Y18823D01*
X181049Y18950D01*
X181098Y19223D01*
X181156Y19516D01*
X181254Y19818D01*
X181380Y20101D01*
Y20111D01*
X181400Y20130D01*
X181419Y20169D01*
X181449Y20228D01*
X181488Y20286D01*
X181536Y20355D01*
X181663Y20521D01*
X181810Y20706D01*
X181995Y20891D01*
X182219Y21077D01*
X182463Y21233D01*
X182473D01*
X182492Y21252D01*
X182531Y21272D01*
X182590Y21291D01*
X182648Y21320D01*
X182726Y21359D01*
X182824Y21389D01*
X182922Y21428D01*
X183029Y21467D01*
X183146Y21496D01*
X183409Y21564D01*
X183702Y21603D01*
X184014Y21623D01*
X184111D01*
X184180Y21613D01*
D02*
G37*
G36*
X191573Y20823D02*
X191563Y20813D01*
X191544Y20794D01*
X191514Y20755D01*
X191466Y20706D01*
X191417Y20638D01*
X191349Y20559D01*
X191271Y20462D01*
X191192Y20364D01*
X191105Y20247D01*
X191007Y20111D01*
X190900Y19974D01*
X190802Y19818D01*
X190695Y19653D01*
X190578Y19477D01*
X190471Y19282D01*
X190354Y19087D01*
X190344Y19077D01*
X190324Y19038D01*
X190295Y18980D01*
X190256Y18901D01*
X190207Y18804D01*
X190149Y18687D01*
X190081Y18550D01*
X190012Y18404D01*
X189944Y18248D01*
X189866Y18072D01*
X189788Y17887D01*
X189710Y17692D01*
X189564Y17292D01*
X189427Y16863D01*
Y16853D01*
X189417Y16824D01*
X189408Y16785D01*
X189388Y16726D01*
X189369Y16648D01*
X189349Y16561D01*
X189330Y16453D01*
X189300Y16346D01*
X189281Y16219D01*
X189251Y16083D01*
X189203Y15790D01*
X189164Y15458D01*
X189135Y15107D01*
X188325D01*
Y15117D01*
Y15146D01*
Y15185D01*
X188335Y15244D01*
Y15312D01*
X188344Y15400D01*
X188354Y15507D01*
X188364Y15615D01*
X188384Y15741D01*
X188403Y15888D01*
X188423Y16034D01*
X188452Y16190D01*
X188481Y16365D01*
X188520Y16541D01*
X188618Y16931D01*
Y16941D01*
X188627Y16980D01*
X188647Y17039D01*
X188666Y17117D01*
X188696Y17214D01*
X188735Y17321D01*
X188774Y17448D01*
X188822Y17594D01*
X188881Y17741D01*
X188939Y17907D01*
X189076Y18258D01*
X189242Y18628D01*
X189427Y18999D01*
X189437Y19009D01*
X189456Y19048D01*
X189486Y19096D01*
X189525Y19165D01*
X189573Y19253D01*
X189632Y19350D01*
X189700Y19457D01*
X189769Y19584D01*
X189944Y19848D01*
X190139Y20130D01*
X190344Y20413D01*
X190568Y20686D01*
X187428D01*
Y21437D01*
X191573D01*
Y20823D01*
D02*
G37*
G36*
X120171Y22990D02*
X120259D01*
X120357Y22980D01*
X120474Y22961D01*
X120591Y22951D01*
X120864Y22893D01*
X121147Y22824D01*
X121420Y22717D01*
X121556Y22659D01*
X121683Y22581D01*
X121693Y22571D01*
X121713Y22561D01*
X121742Y22532D01*
X121791Y22503D01*
X121908Y22405D01*
X122044Y22269D01*
X122210Y22103D01*
X122366Y21888D01*
X122532Y21644D01*
X122668Y21361D01*
Y21352D01*
X122678Y21322D01*
X122698Y21283D01*
X122717Y21225D01*
X122746Y21147D01*
X122776Y21059D01*
X122805Y20961D01*
X122834Y20844D01*
X122863Y20727D01*
X122893Y20591D01*
X122951Y20298D01*
X122990Y19986D01*
X123000Y19645D01*
Y19635D01*
Y19596D01*
Y19547D01*
X122990Y19479D01*
Y19391D01*
X122980Y19284D01*
X122971Y19177D01*
X122951Y19050D01*
X122902Y18777D01*
X122844Y18484D01*
X122746Y18182D01*
X122619Y17899D01*
Y17889D01*
X122600Y17870D01*
X122580Y17831D01*
X122551Y17772D01*
X122512Y17714D01*
X122464Y17645D01*
X122337Y17479D01*
X122190Y17294D01*
X122005Y17109D01*
X121781Y16924D01*
X121537Y16767D01*
X121527D01*
X121508Y16748D01*
X121469Y16728D01*
X121410Y16709D01*
X121352Y16680D01*
X121273Y16641D01*
X121176Y16611D01*
X121079Y16572D01*
X120971Y16533D01*
X120854Y16504D01*
X120591Y16436D01*
X120298Y16397D01*
X119986Y16377D01*
X119888D01*
X119820Y16387D01*
X119742Y16397D01*
X119645Y16407D01*
X119537Y16416D01*
X119420Y16436D01*
X119167Y16494D01*
X118894Y16582D01*
X118757Y16641D01*
X118621Y16709D01*
X118494Y16787D01*
X118367Y16875D01*
X118357Y16884D01*
X118338Y16894D01*
X118308Y16924D01*
X118260Y16962D01*
X118211Y17011D01*
X118143Y17079D01*
X118074Y17148D01*
X118006Y17226D01*
X117928Y17323D01*
X117860Y17421D01*
X117782Y17538D01*
X117704Y17665D01*
X117635Y17792D01*
X117567Y17938D01*
X117450Y18250D01*
X118289Y18445D01*
Y18435D01*
X118299Y18416D01*
X118308Y18377D01*
X118328Y18328D01*
X118357Y18269D01*
X118386Y18201D01*
X118455Y18055D01*
X118542Y17889D01*
X118660Y17714D01*
X118786Y17557D01*
X118942Y17421D01*
X118962Y17411D01*
X119021Y17372D01*
X119108Y17323D01*
X119235Y17255D01*
X119381Y17197D01*
X119567Y17148D01*
X119771Y17109D01*
X120006Y17099D01*
X120074D01*
X120123Y17109D01*
X120191D01*
X120259Y17119D01*
X120435Y17148D01*
X120630Y17187D01*
X120835Y17255D01*
X121039Y17343D01*
X121235Y17460D01*
X121244D01*
X121254Y17479D01*
X121313Y17528D01*
X121400Y17606D01*
X121508Y17714D01*
X121615Y17850D01*
X121732Y18006D01*
X121839Y18201D01*
X121927Y18416D01*
Y18426D01*
X121937Y18445D01*
X121946Y18474D01*
X121956Y18523D01*
X121976Y18572D01*
X121986Y18640D01*
X122025Y18796D01*
X122064Y18981D01*
X122093Y19186D01*
X122112Y19411D01*
X122122Y19645D01*
Y19655D01*
Y19684D01*
Y19723D01*
Y19781D01*
X122112Y19850D01*
Y19937D01*
X122103Y20025D01*
X122093Y20123D01*
X122064Y20347D01*
X122025Y20591D01*
X121966Y20835D01*
X121888Y21069D01*
Y21079D01*
X121878Y21098D01*
X121859Y21127D01*
X121839Y21166D01*
X121791Y21283D01*
X121713Y21410D01*
X121605Y21566D01*
X121478Y21713D01*
X121332Y21859D01*
X121157Y21986D01*
X121147D01*
X121137Y21995D01*
X121108Y22015D01*
X121069Y22034D01*
X120961Y22073D01*
X120825Y22132D01*
X120669Y22181D01*
X120484Y22229D01*
X120279Y22269D01*
X120064Y22278D01*
X119996D01*
X119947Y22269D01*
X119888D01*
X119810Y22259D01*
X119645Y22229D01*
X119459Y22181D01*
X119255Y22103D01*
X119059Y22005D01*
X118864Y21869D01*
X118855Y21859D01*
X118845Y21849D01*
X118786Y21790D01*
X118699Y21693D01*
X118591Y21566D01*
X118484Y21391D01*
X118367Y21186D01*
X118269Y20932D01*
X118191Y20649D01*
X117343Y20864D01*
Y20874D01*
X117353Y20913D01*
X117372Y20961D01*
X117392Y21040D01*
X117431Y21117D01*
X117470Y21225D01*
X117509Y21332D01*
X117567Y21449D01*
X117694Y21713D01*
X117870Y21976D01*
X118065Y22229D01*
X118182Y22346D01*
X118308Y22454D01*
X118318Y22464D01*
X118338Y22473D01*
X118377Y22503D01*
X118435Y22542D01*
X118504Y22581D01*
X118582Y22629D01*
X118669Y22678D01*
X118777Y22727D01*
X118894Y22776D01*
X119021Y22824D01*
X119167Y22873D01*
X119313Y22912D01*
X119635Y22980D01*
X119810Y22990D01*
X119996Y23000D01*
X120093D01*
X120171Y22990D01*
D02*
G37*
G36*
X114534D02*
X114602D01*
X114680Y22980D01*
X114778Y22961D01*
X114885Y22942D01*
X115002Y22912D01*
X115129Y22873D01*
X115265Y22824D01*
X115392Y22766D01*
X115529Y22698D01*
X115665Y22610D01*
X115802Y22512D01*
X115929Y22405D01*
X116046Y22278D01*
X116055Y22269D01*
X116075Y22239D01*
X116104Y22200D01*
X116143Y22142D01*
X116192Y22064D01*
X116241Y21966D01*
X116299Y21849D01*
X116348Y21713D01*
X116406Y21556D01*
X116465Y21381D01*
X116514Y21186D01*
X116563Y20971D01*
X116602Y20737D01*
X116631Y20474D01*
X116650Y20201D01*
X116660Y19898D01*
Y19889D01*
Y19879D01*
Y19850D01*
Y19820D01*
Y19723D01*
X116650Y19596D01*
X116641Y19440D01*
X116621Y19264D01*
X116602Y19069D01*
X116572Y18865D01*
X116543Y18640D01*
X116494Y18416D01*
X116436Y18191D01*
X116368Y17977D01*
X116290Y17752D01*
X116202Y17557D01*
X116094Y17362D01*
X115977Y17197D01*
X115968Y17187D01*
X115948Y17167D01*
X115919Y17128D01*
X115870Y17079D01*
X115802Y17021D01*
X115733Y16962D01*
X115646Y16894D01*
X115548Y16826D01*
X115441Y16758D01*
X115314Y16689D01*
X115187Y16631D01*
X115041Y16572D01*
X114885Y16524D01*
X114719Y16485D01*
X114544Y16465D01*
X114358Y16455D01*
X114290D01*
X114231Y16465D01*
X114173D01*
X114095Y16475D01*
X113919Y16504D01*
X113724Y16563D01*
X113519Y16641D01*
X113315Y16738D01*
X113217Y16806D01*
X113119Y16884D01*
X113110D01*
X113100Y16904D01*
X113041Y16962D01*
X112963Y17060D01*
X112866Y17187D01*
X112759Y17353D01*
X112671Y17548D01*
X112583Y17782D01*
X112534Y18045D01*
X113315Y18104D01*
Y18094D01*
Y18084D01*
X113334Y18026D01*
X113363Y17948D01*
X113393Y17850D01*
X113490Y17626D01*
X113549Y17528D01*
X113617Y17440D01*
X113627Y17421D01*
X113675Y17382D01*
X113744Y17333D01*
X113832Y17265D01*
X113949Y17206D01*
X114085Y17148D01*
X114241Y17109D01*
X114407Y17099D01*
X114475D01*
X114544Y17109D01*
X114631Y17128D01*
X114739Y17148D01*
X114856Y17187D01*
X114963Y17245D01*
X115080Y17314D01*
X115099Y17323D01*
X115139Y17362D01*
X115207Y17431D01*
X115285Y17519D01*
X115382Y17626D01*
X115480Y17762D01*
X115577Y17928D01*
X115665Y18113D01*
Y18123D01*
X115675Y18133D01*
X115685Y18172D01*
X115695Y18211D01*
X115714Y18260D01*
X115733Y18328D01*
X115753Y18406D01*
X115772Y18494D01*
X115792Y18591D01*
X115812Y18699D01*
X115831Y18825D01*
X115850Y18952D01*
X115860Y19099D01*
X115870Y19255D01*
X115880Y19420D01*
Y19586D01*
X115870Y19576D01*
X115831Y19528D01*
X115772Y19450D01*
X115685Y19352D01*
X115587Y19245D01*
X115470Y19138D01*
X115334Y19040D01*
X115187Y18952D01*
X115168Y18943D01*
X115119Y18923D01*
X115031Y18884D01*
X114924Y18845D01*
X114797Y18806D01*
X114651Y18767D01*
X114495Y18747D01*
X114329Y18738D01*
X114251D01*
X114192Y18747D01*
X114124Y18757D01*
X114046Y18767D01*
X113861Y18806D01*
X113656Y18884D01*
X113539Y18923D01*
X113432Y18981D01*
X113315Y19050D01*
X113198Y19128D01*
X113090Y19216D01*
X112983Y19323D01*
X112973Y19333D01*
X112963Y19352D01*
X112934Y19381D01*
X112895Y19430D01*
X112856Y19489D01*
X112807Y19557D01*
X112759Y19635D01*
X112700Y19723D01*
X112651Y19830D01*
X112603Y19937D01*
X112554Y20064D01*
X112515Y20191D01*
X112476Y20337D01*
X112446Y20484D01*
X112437Y20649D01*
X112427Y20815D01*
Y20825D01*
Y20844D01*
Y20874D01*
Y20913D01*
X112437Y20971D01*
Y21030D01*
X112456Y21186D01*
X112495Y21352D01*
X112534Y21547D01*
X112603Y21742D01*
X112690Y21937D01*
Y21947D01*
X112700Y21956D01*
X112720Y21986D01*
X112739Y22025D01*
X112798Y22112D01*
X112876Y22229D01*
X112983Y22356D01*
X113110Y22483D01*
X113246Y22610D01*
X113412Y22727D01*
X113432Y22737D01*
X113490Y22766D01*
X113588Y22815D01*
X113705Y22863D01*
X113861Y22912D01*
X114036Y22961D01*
X114231Y22990D01*
X114436Y23000D01*
X114475D01*
X114534Y22990D01*
D02*
G37*
G36*
X133986Y419990D02*
X134298Y419951D01*
X134591Y419893D01*
X134727Y419863D01*
X134844Y419834D01*
X134962Y419805D01*
X135059Y419776D01*
X135147Y419746D01*
X135225Y419717D01*
X135283Y419698D01*
X135322Y419678D01*
X135352Y419668D01*
X135361D01*
X135644Y419532D01*
X135888Y419366D01*
X136103Y419210D01*
X136269Y419044D01*
X136405Y418908D01*
X136503Y418791D01*
X136532Y418742D01*
X136561Y418713D01*
X136571Y418693D01*
X136581Y418683D01*
X136659Y418557D01*
X136717Y418420D01*
X136824Y418147D01*
X136893Y417864D01*
X136951Y417591D01*
X136961Y417474D01*
X136980Y417357D01*
X136990Y417259D01*
Y417172D01*
X137000Y417093D01*
Y416996D01*
X136990Y416811D01*
X136980Y416635D01*
X136912Y416313D01*
X136873Y416167D01*
X136824Y416021D01*
X136776Y415894D01*
X136727Y415777D01*
X136678Y415669D01*
X136629Y415582D01*
X136581Y415504D01*
X136542Y415435D01*
X136503Y415377D01*
X136473Y415338D01*
X136463Y415318D01*
X136454Y415308D01*
X136347Y415182D01*
X136229Y415065D01*
X135976Y414870D01*
X135712Y414694D01*
X135449Y414567D01*
X135332Y414509D01*
X135225Y414470D01*
X135118Y414431D01*
X135040Y414392D01*
X134962Y414372D01*
X134913Y414353D01*
X134874Y414343D01*
X134864D01*
X134649Y415191D01*
X134932Y415270D01*
X135186Y415367D01*
X135391Y415484D01*
X135566Y415591D01*
X135693Y415699D01*
X135791Y415786D01*
X135849Y415845D01*
X135859Y415855D01*
X135869Y415864D01*
X136005Y416059D01*
X136103Y416255D01*
X136181Y416459D01*
X136229Y416645D01*
X136259Y416811D01*
X136269Y416889D01*
Y416947D01*
X136278Y416996D01*
Y417064D01*
X136269Y417279D01*
X136229Y417484D01*
X136181Y417669D01*
X136132Y417825D01*
X136073Y417962D01*
X136034Y418069D01*
X136015Y418108D01*
X135995Y418137D01*
X135986Y418147D01*
Y418157D01*
X135859Y418332D01*
X135712Y418478D01*
X135566Y418605D01*
X135410Y418713D01*
X135283Y418791D01*
X135166Y418839D01*
X135127Y418859D01*
X135098Y418878D01*
X135078Y418888D01*
X135069D01*
X134835Y418966D01*
X134591Y419025D01*
X134347Y419064D01*
X134123Y419093D01*
X134025Y419103D01*
X133937Y419112D01*
X133850D01*
X133781Y419122D01*
X133723D01*
X133684D01*
X133654D01*
X133645D01*
X133411Y419112D01*
X133186Y419093D01*
X132982Y419064D01*
X132796Y419025D01*
X132640Y418986D01*
X132572Y418976D01*
X132523Y418956D01*
X132474Y418947D01*
X132445Y418937D01*
X132425Y418927D01*
X132416D01*
X132201Y418839D01*
X132006Y418732D01*
X131850Y418615D01*
X131713Y418508D01*
X131606Y418400D01*
X131528Y418313D01*
X131479Y418254D01*
X131460Y418244D01*
Y418235D01*
X131343Y418040D01*
X131255Y417835D01*
X131187Y417630D01*
X131148Y417435D01*
X131119Y417259D01*
X131109Y417191D01*
Y417123D01*
X131099Y417074D01*
Y417006D01*
X131109Y416772D01*
X131148Y416567D01*
X131197Y416381D01*
X131255Y416235D01*
X131323Y416108D01*
X131372Y416021D01*
X131411Y415962D01*
X131421Y415942D01*
X131558Y415786D01*
X131713Y415660D01*
X131889Y415543D01*
X132055Y415455D01*
X132201Y415387D01*
X132269Y415357D01*
X132328Y415328D01*
X132377Y415308D01*
X132416Y415299D01*
X132435Y415289D01*
X132445D01*
X132250Y414450D01*
X131938Y414567D01*
X131792Y414636D01*
X131665Y414704D01*
X131538Y414782D01*
X131421Y414860D01*
X131323Y414928D01*
X131226Y415006D01*
X131148Y415074D01*
X131080Y415143D01*
X131011Y415211D01*
X130962Y415260D01*
X130924Y415308D01*
X130894Y415338D01*
X130885Y415357D01*
X130875Y415367D01*
X130787Y415494D01*
X130709Y415621D01*
X130641Y415757D01*
X130582Y415894D01*
X130494Y416167D01*
X130436Y416420D01*
X130416Y416538D01*
X130407Y416645D01*
X130397Y416742D01*
X130387Y416820D01*
X130377Y416889D01*
Y416986D01*
X130397Y417298D01*
X130436Y417591D01*
X130504Y417854D01*
X130533Y417971D01*
X130572Y418078D01*
X130611Y418176D01*
X130641Y418274D01*
X130680Y418352D01*
X130709Y418410D01*
X130728Y418469D01*
X130748Y418508D01*
X130767Y418527D01*
Y418537D01*
X130924Y418781D01*
X131109Y419005D01*
X131294Y419190D01*
X131479Y419337D01*
X131645Y419464D01*
X131713Y419512D01*
X131772Y419551D01*
X131831Y419581D01*
X131870Y419600D01*
X131889Y419620D01*
X131899D01*
X132182Y419746D01*
X132484Y419844D01*
X132777Y419902D01*
X133050Y419951D01*
X133177Y419971D01*
X133284Y419981D01*
X133391Y419990D01*
X133479D01*
X133547Y420000D01*
X133596D01*
X133635D01*
X133645D01*
X133986Y419990D01*
D02*
G37*
G36*
X132777Y412880D02*
X132708Y412734D01*
X132650Y412597D01*
X132582Y412470D01*
X132523Y412363D01*
X132474Y412275D01*
X132435Y412217D01*
X132425Y412207D01*
Y412197D01*
X132328Y412031D01*
X132221Y411885D01*
X132133Y411758D01*
X132045Y411651D01*
X131977Y411563D01*
X131928Y411495D01*
X131889Y411456D01*
X131879Y411446D01*
X136893D01*
Y410656D01*
X130455D01*
Y411173D01*
X130611Y411261D01*
X130767Y411368D01*
X130914Y411485D01*
X131050Y411602D01*
X131158Y411709D01*
X131245Y411797D01*
X131304Y411856D01*
X131314Y411866D01*
X131323Y411875D01*
X131479Y412061D01*
X131626Y412256D01*
X131753Y412451D01*
X131860Y412626D01*
X131948Y412782D01*
X131977Y412851D01*
X132006Y412909D01*
X132035Y412948D01*
X132055Y412987D01*
X132065Y413007D01*
Y413016D01*
X132835D01*
X132777Y412880D01*
D02*
G37*
%LPC*%
G36*
X156895Y439640D02*
X154886D01*
X156895Y436772D01*
Y439640D01*
D02*
G37*
G36*
X114456Y22356D02*
X114407D01*
X114368Y22346D01*
X114280Y22337D01*
X114153Y22308D01*
X114027Y22259D01*
X113880Y22190D01*
X113734Y22093D01*
X113597Y21956D01*
X113578Y21937D01*
X113539Y21878D01*
X113480Y21790D01*
X113412Y21674D01*
X113354Y21517D01*
X113295Y21322D01*
X113256Y21108D01*
X113237Y20864D01*
Y20854D01*
Y20835D01*
Y20796D01*
X113246Y20757D01*
Y20698D01*
X113256Y20630D01*
X113276Y20484D01*
X113324Y20318D01*
X113383Y20142D01*
X113471Y19976D01*
X113588Y19820D01*
X113607Y19801D01*
X113646Y19762D01*
X113724Y19693D01*
X113832Y19625D01*
X113958Y19557D01*
X114114Y19489D01*
X114290Y19450D01*
X114485Y19430D01*
X114534D01*
X114573Y19440D01*
X114670Y19450D01*
X114797Y19479D01*
X114934Y19528D01*
X115090Y19596D01*
X115236Y19693D01*
X115382Y19820D01*
X115402Y19840D01*
X115441Y19889D01*
X115499Y19976D01*
X115568Y20084D01*
X115636Y20230D01*
X115695Y20405D01*
X115733Y20601D01*
X115753Y20825D01*
Y20844D01*
Y20893D01*
X115743Y20971D01*
X115733Y21069D01*
X115714Y21196D01*
X115685Y21322D01*
X115646Y21459D01*
X115587Y21605D01*
X115577Y21625D01*
X115558Y21664D01*
X115519Y21732D01*
X115460Y21810D01*
X115392Y21908D01*
X115314Y21995D01*
X115217Y22093D01*
X115109Y22171D01*
X115099Y22181D01*
X115051Y22200D01*
X114992Y22229D01*
X114914Y22259D01*
X114817Y22298D01*
X114700Y22327D01*
X114583Y22346D01*
X114456Y22356D01*
D02*
G37*
%LPD*%
D12*
X213000Y331000D02*
Y363000D01*
X229000D01*
Y331000D02*
Y363000D01*
X213000Y331000D02*
X229000D01*
X62000Y329000D02*
Y361000D01*
X78000D01*
Y329000D02*
Y361000D01*
X62000Y329000D02*
X78000D01*
X140000Y429000D02*
Y447000D01*
X110000Y429000D02*
X140000D01*
X110000D02*
Y447000D01*
X140000D01*
X144000Y424000D02*
X162000D01*
Y394000D02*
Y424000D01*
X144000Y394000D02*
X162000D01*
X144000D02*
Y424000D01*
X144000Y429000D02*
Y447000D01*
X174000D01*
Y429000D02*
Y447000D01*
X144000Y429000D02*
X174000D01*
X111000Y318000D02*
X188000D01*
Y249000D02*
Y318000D01*
X99000Y249000D02*
X188000D01*
X99000D02*
Y318000D01*
X111000D01*
X76000Y264000D02*
Y296000D01*
X92000D01*
Y264000D02*
Y296000D01*
X76000Y264000D02*
X92000D01*
X223000Y160000D02*
Y192000D01*
X239000D01*
Y160000D02*
Y192000D01*
X223000Y160000D02*
X239000D01*
X62343Y229971D02*
X84971Y207343D01*
X73657Y196029D02*
X84971Y207343D01*
X51029Y218657D02*
X73657Y196029D01*
X51029Y218657D02*
X62343Y229971D01*
X76343Y242971D02*
X98970Y220343D01*
X87657Y209030D02*
X98970Y220343D01*
X65029Y231657D02*
X87657Y209030D01*
X65029Y231657D02*
X76343Y242971D01*
X89000Y455900D02*
X195000D01*
X89000D02*
Y562900D01*
X195000D01*
Y455900D02*
Y562900D01*
X89000Y545900D02*
X195000D01*
X142000D02*
Y562900D01*
Y545900D02*
Y545900D01*
X136000Y551900D02*
X142000Y545900D01*
X148000Y551900D01*
X223380Y131030D02*
X238620D01*
Y155160D02*
Y158970D01*
X223380D02*
X238620D01*
X223380Y127220D02*
Y158970D01*
Y127220D02*
X238620D01*
Y158970D01*
X62380Y388970D02*
X77620D01*
X62380Y361030D02*
Y364840D01*
Y361030D02*
X77620D01*
Y392780D01*
X62380D02*
X77620D01*
X62380Y361030D02*
Y392780D01*
X213380Y392970D02*
X228620D01*
X213380Y365030D02*
Y368840D01*
Y365030D02*
X228620D01*
Y396780D01*
X213380D02*
X228620D01*
X213380Y365030D02*
Y396780D01*
X177000Y10000D02*
Y28000D01*
Y10000D02*
X207000D01*
Y28000D01*
X177000D02*
X207000D01*
X127000Y10000D02*
Y28000D01*
X97000D02*
X127000D01*
X97000Y10000D02*
Y28000D01*
Y10000D02*
X127000D01*
X142000Y326000D02*
Y358000D01*
X126000D02*
X142000D01*
X126000Y326000D02*
Y358000D01*
Y326000D02*
X142000D01*
X124000Y424000D02*
X142000D01*
Y394000D02*
Y424000D01*
X124000Y394000D02*
X142000D01*
X124000D02*
Y424000D01*
X263998Y273239D02*
X256380D01*
X254952Y273715D01*
X254476Y274192D01*
X254000Y275144D01*
Y276096D01*
X254476Y277048D01*
X254952Y277524D01*
X256380Y278000D01*
X257332D01*
X261617Y270192D02*
X262093D01*
X263045Y269716D01*
X263521Y269240D01*
X263998Y268288D01*
Y266384D01*
X263521Y265431D01*
X263045Y264955D01*
X262093Y264479D01*
X261141D01*
X260189Y264955D01*
X258761Y265908D01*
X254000Y270669D01*
Y264003D01*
X20002Y149361D02*
X27620D01*
X29048Y148884D01*
X29524Y148408D01*
X30000Y147456D01*
Y146504D01*
X29524Y145552D01*
X29048Y145076D01*
X27620Y144600D01*
X26668D01*
X20002Y152884D02*
Y158121D01*
X23811Y155264D01*
Y156692D01*
X24287Y157645D01*
X24763Y158121D01*
X26191Y158597D01*
X27144D01*
X28572Y158121D01*
X29524Y157169D01*
X30000Y155740D01*
Y154312D01*
X29524Y152884D01*
X29048Y152408D01*
X28096Y151931D01*
D13*
X250000Y39000D02*
Y389000D01*
Y39000D02*
X271000D01*
X271000Y389000D02*
X271000Y39000D01*
X250000Y389000D02*
X271000D01*
X34000Y33600D02*
Y383600D01*
X13000D02*
X34000D01*
X13000D02*
X13000Y33600D01*
X34000D01*
D43*
X227460Y336540D02*
X218463D01*
Y341039D01*
X219962Y342538D01*
X222961D01*
X224461Y341039D01*
Y336540D01*
Y339539D02*
X227460Y342538D01*
X219962Y345537D02*
X218463Y347037D01*
Y350036D01*
X219962Y351535D01*
X221462D01*
X222961Y350036D01*
Y348536D01*
Y350036D01*
X224461Y351535D01*
X225961D01*
X227460Y350036D01*
Y347037D01*
X225961Y345537D01*
X76460Y334540D02*
X67463D01*
Y339039D01*
X68962Y340538D01*
X71961D01*
X73461Y339039D01*
Y334540D01*
Y337539D02*
X76460Y340538D01*
Y349535D02*
Y343537D01*
X70462Y349535D01*
X68962D01*
X67463Y348036D01*
Y345037D01*
X68962Y343537D01*
X114538Y284038D02*
X113039Y285537D01*
X110040D01*
X108540Y284038D01*
Y282538D01*
X110040Y281038D01*
X113039D01*
X114538Y279539D01*
Y278039D01*
X113039Y276540D01*
X110040D01*
X108540Y278039D01*
X117537Y285537D02*
Y276540D01*
X120536Y279539D01*
X123535Y276540D01*
Y285537D01*
X126534Y276540D02*
X129533D01*
X128034D01*
Y285537D01*
X126534Y284038D01*
X90460Y269540D02*
X81463D01*
Y274039D01*
X82962Y275538D01*
X85961D01*
X87461Y274039D01*
Y269540D01*
Y272539D02*
X90460Y275538D01*
X81463Y284535D02*
X82962Y281536D01*
X85961Y278537D01*
X88960D01*
X90460Y280037D01*
Y283036D01*
X88960Y284535D01*
X87461D01*
X85961Y283036D01*
Y278537D01*
X237460Y165540D02*
X228463D01*
Y170039D01*
X229962Y171538D01*
X232961D01*
X234461Y170039D01*
Y165540D01*
Y168539D02*
X237460Y171538D01*
X228463Y174537D02*
Y180535D01*
X229962D01*
X235961Y174537D01*
X237460D01*
X56036Y215828D02*
X62398Y222190D01*
X65579Y219009D01*
Y216889D01*
X63458Y214768D01*
X61337D01*
X58156Y217949D01*
X60277Y215828D02*
Y211587D01*
X73001D02*
X68759Y215828D01*
X65579Y212647D01*
X68759Y211587D01*
X69820Y210527D01*
Y208406D01*
X67699Y206285D01*
X65579D01*
X63458Y208406D01*
Y210527D01*
X70036Y228828D02*
X76398Y235190D01*
X79579Y232009D01*
Y229889D01*
X77458Y227768D01*
X75337D01*
X72156Y230949D01*
X74277Y228828D02*
Y224587D01*
X79579Y219286D02*
X85941Y225648D01*
X79579D01*
X83820Y221406D01*
X234917Y156430D02*
X225920D01*
Y151931D01*
X227419Y150432D01*
X233418D01*
X234917Y151931D01*
Y156430D01*
X233418Y147433D02*
X234917Y145933D01*
Y142934D01*
X233418Y141435D01*
X231918D01*
X230418Y142934D01*
Y144434D01*
Y142934D01*
X228919Y141435D01*
X227419D01*
X225920Y142934D01*
Y145933D01*
X227419Y147433D01*
X66083Y363570D02*
X75080D01*
Y368069D01*
X73580Y369568D01*
X67582D01*
X66083Y368069D01*
Y363570D01*
X75080Y372567D02*
Y375566D01*
Y374067D01*
X66083D01*
X67582Y372567D01*
X217083Y367570D02*
X226080D01*
Y372068D01*
X224580Y373568D01*
X218582D01*
X217083Y372068D01*
Y367570D01*
X226080Y382565D02*
Y376567D01*
X220082Y382565D01*
X218582D01*
X217083Y381066D01*
Y378067D01*
X218582Y376567D01*
X127540Y331540D02*
X136537D01*
Y336039D01*
X135038Y337538D01*
X132038D01*
X130539Y336039D01*
Y331540D01*
Y334539D02*
X127540Y337538D01*
Y340537D02*
Y343536D01*
Y342037D01*
X136537D01*
X135038Y340537D01*
M02*
